<mxfile host="app.diagrams.net" modified="2024-03-25T07:33:47.769Z" agent="Mozilla/5.0 (Windows NT 10.0; Win64; x64) AppleWebKit/537.36 (KHTML, like Gecko) Chrome/123.0.0.0 Safari/537.36" etag="-H99eM4bf0p38aC7J7yg" version="23.1.6" type="gitlab">
  <diagram id="i0oEYvOnRiqcVp2mykJb" name="Kester Weather Site">
    <mxGraphModel dx="2049" dy="1916" grid="1" gridSize="10" guides="1" tooltips="1" connect="1" arrows="1" fold="1" page="1" pageScale="1" pageWidth="1900" pageHeight="850" math="0" shadow="0">
      <root>
        <mxCell id="0" />
        <mxCell id="1" parent="0" />
        <mxCell id="ci4K4oEzOC30gkBtyNfN-9" style="edgeStyle=orthogonalEdgeStyle;rounded=0;orthogonalLoop=1;jettySize=auto;html=1;exitX=0.11;exitY=1;exitDx=0;exitDy=0;exitPerimeter=0;entryX=0;entryY=0.5;entryDx=0;entryDy=0;" parent="1" source="ci4K4oEzOC30gkBtyNfN-1" target="dws5M60ZwzQ7IvA7W7Ju-78" edge="1">
          <mxGeometry relative="1" as="geometry">
            <mxPoint x="1321.5" y="-336.4999999999998" as="targetPoint" />
          </mxGeometry>
        </mxCell>
        <mxCell id="ci4K4oEzOC30gkBtyNfN-1" value="" style="shape=image;verticalLabelPosition=bottom;labelBackgroundColor=default;verticalAlign=top;aspect=fixed;imageAspect=0;image=data:image/png,iVBORw0KGgoAAAANSUhEUgAAAJ0AAAAxCAYAAADA+KtDAAAUS0lEQVR4Ae1c93cbR5Lev9BriaICJd961/b5fOs9P5+tRDFTEoNyXMmygkkwAWAASIpRYqYSSVEUSTFnMOcE0r98974eFDAcDQJlSc/24Yd5PZiprq6u/rq6uroGf9na/hXhK6yDj4mBv3zMxsJthcFNDIRBF7b0H32lC4MuDLow6MJL8J9/CQ5burClC1u6sKULW7qPPgvCoAuDLiTQubd+hXtrGywJGvf2r9hUv7dDqh8G2ocDmn5cfi96fmefTgNacGUJIH8vHQ7LEXzMPrSO3gl0nD0iGEE1t+JG7+Q6xuY31fPB2Q0Mz25gaX3LS0d6fT2pHy4/HAg23FvILG/DzcInWFhZ3zEW71Pvux3XXYGOy6YIO7/qRmPfCu41TiOtYhxxD2eQ3zKr3t+um0KccxyXq12wtsyic2IVG24NqFx2hUe49OnzfepCQDC3uIojyXmIiM/FoGtO6V1coPfZ3m55hQw6Acv65hZqe5eQXjGBk4VjOOmYwFHbAGIeznlBd6t2CjEl0zhmH0K004UT+cO4Uz+Nnsm1MOB0E3e3g7Vb+rnldXyZasfeU79gaHJe6X7TvXP12S1PM/q23nFUPu9DQ8cwFkOwqCGBTgA3teTG3cYZBbTjBSM4au3DcfsATtj6EVM6uwN0p5yTOG4bUNdRaz9OOl2ILx5HVdfCewPepntbbVhYcgZTTl4y00VB/M2lRn7rS3lnrKOnMd5LHeNzf7+Nsvnk3GnphK8/WdgHo6Uy40Vg8fnM4ir+kWLDnugHGHDNqWc0GmY6MsrulVnpVtOpry3fprFjwAVLZQss5W2wVLSh8lkvOB5GfvrfQUEnCphY2MSFShdOFU/tANNx+yCOvwW6SQjoCDhepGHJ5/aWWaU84a0XKJR7o+LN6oRCY1bvfT4LVYZ30UOwgWU/Vjfc+CLVjr+efADX3HJAIEi/KUso8sgkftTSj6ddI0i8V4nK572ofN6D2cWVgG0FBR2FmVt141KVSy2VAh4BkwDKzNId8wDumHVAAU5ZRi7FJTMofunxMXa53OgHsmd0Fg+f9iCjvBV3S54ju6oNdS8HMTm/uqPTAxPzSiFT8z5liGJHphZR9aIPE7NLO+rIIJiV/eNzqG7pw0wA5epBMeRaUG1YqijnC2RWtOLRi36wbeFPeQgMyjLo0pZCkZE00wsrqHrRi74xbcLyGQe+Y2AStppXKG3u9oJlfGYJtS8HUfGsB0dO5+KTE/dRVN+JhlfD6nlN2wDGZ98GoV63YzOLeNw6AEt5K24VPcVt5zPkPnqpADa/7NuUPOsagZ3tN3XjYfMblD15g7VN81VF+hoQdBSC1y9NkwooArgf8/o8IOrHMbWEmi+vArqjHisnQD1hH0S0YwJtIxo49J0VwcxKGYTXg1NItdTgYEIW9iXasD8pH5FJduxPsmNffC7+nmKFpaoNS6uaci7k1eFQWimKG7vVIKtlwrPc3i5qRlRaKfJqXnnfmbXNZwKk87l1OJRajPJnPaZ1RM7BiXlctjXiSHIO9iXkITJZkzMy2YZ9iVZEJWXjemEzxqY18FlrXiEqvRQ3CpoUX4KKsrLth096cCi1BOnZj9Xvjn4X4u9VYc+pTCXL1+cKwKWTtATHgTNF6t1fT9zDJ8fvYk+MBXvjslV54KwDuY/aFa3wF5kn51dwx/kMfz+rbUA03do0/SbnY09MJr674oCjqVuBnjJyolS96Ff6JeApg/DjvfHyCzoRpnVk1WPhBnDMAB6CKCTQeegEdATj8cJRpJaNYnEt8KwQgQWY9BkOJ+eqATySlI00Sw2yK9vgaOhEbnUbLuTV4/OzVhw4XYCYnyuwtLqBK7Z6HE4vVbOd/DY3t7Hp1pRxvaARUWklyKpq0wZh078/IopMtTxCVGoxipu63qojNFxyvkzPVxNiX2wmkh5UI7O8FY6G18oyXC9own+dz8f+5Hz89yUHRmcWUVDfiSPpD3HN3qgNnFuTlTI7G7txOK0El611aOudwMGkXETE5+DHmyX4yfkcde1D3sHlTrW0+Q0K61/jcFI2CLzs6jZl+cqe9qCkudtrTclbZO4cnMK3lx2ITLKpJTnmTgUyylqUzAX1HbjteIp/XSlCRFyOajvF8hiLKxuq3ZmlFe+klDHzV/oFHStsbG3jSvW4skpi5QQ4UoYKOkWvA+0xa5+ynjU9wWeGKKWxYxgHEnIQEZuNi3l14LJp1rGJ2WX87HymBvRcdi3O59TgUKoTRQ0ekHAD4nF2aVVotbKrXype8tyMr8iRlvUYh1KcavBIJ3XkfefQFD47Y0VEQh7i71WCgyk0er4Ly+sKGPsTcvD9daeyMAfPFuFavgY61pF6jqYuNZF+vOHE387Y8FV6PhpeDSm/Tc9Tf89ljhsJ+nS0YPp3ci8yD08t4otUGyITbfj+qgPPu0dNN1+M9zkaOxWYubqcyXiEtQ2f4RB+wt+sNAWdWLlu15oKixAwBJcATV/uCnQeH0/xs/Yj2jGOS9UTWA+w25FOTC+u4IsUq1qmfnI+3aFAyiuXvpP5tR1qOYhKtKh6BXWvvcCSwbyRHzropI4/0LHt1XW3sj60YCkZj7C8pgXM+U6ByGSH3dg+hH2xFkQlZCkLctXe8JacRY2dann8NPoXfJVmw8iULwrAVUDGTGtnSwFGdq+fRt/fsXvlkih6VfRb20h8UIX9yQU4drMUk3M+gApv8tfXedo1isMet8HR6JnMIcZg/YBOW3ocbXMqFEIr975BpwG5H9GFoxic1uJ3MqhUhFzyjD7IgTOFOHG71Ou76BUt9CxFUbxPyXyEPbFZ2BubDVPQ7cLSiSxG0Onbo5NOf+0/022YXdR8VgmM62XU5GQoR1vOLRWt2KvkzMIVmwnomroREZeNvTGZqGsfVPoheIw8hS/LuaU1r6Ub8mxOpA98L/ctPWOIiM1SIOoZnVE8xT808ifw5B19x8hEK74+l6/cGCOtv9+moBPiGzUTamnlUsid51FuIAyX8s+4VJbOwt6iCXyrdhIxzkkcM9DuqKusXh9OlUyjsU/bSelPPEQGllzmafJpzhs8vos/wEk9UWjn4CQi4zJVVL6g3sTSvQfQ0UcUK0B/j0uv9bHmqPsDhsjJerwI0M/P5qlBvOrx6dgH6YezqUu5C9+cz8fKuvuteJ3wYymyCOg+jX6gCw77fFbh/e/CJ0rmK2JhQ7BYbIO72H+kaBuOpg7NpxSeenmM935Bt7KxjaSScZwsmsBx+xCO5w8HuIYQV76o4m9s4FbdDGJLZ9WJRKB6J/K1ekVtEiLwWTi98kanFxFx6hflR1CRxk4E+s1Z+d2VIrV0fDDQeSzOytqmmvV7Yy3oHZtRg08rGEg+fT9TM6vBnaWZT1fc1A36e0n3K0PmFwx0Wtu/qgnNnX9Dx5CSOdhE0ct8PrcWh1KK1RkvnwczBqTxC7rF1S08H15Fx8QaXo1LyfudV8fEunr/cnwdo54D/4HpDbSPa8+N9PJb6pFuZE7bAVEg/SUd4G4tIiFX+Ur696Hen814hINnHShq6FT89Rbkffh0MkiTc8uIOPUA/3E6F/O7mBxiHbi75Ybnms1kI9HQrQBJYLLfohszHYRq6ViXwPwsOQf0FRl/5DOpb8ZbnonMOdVtiEopBsNSodb1C7rl9S0FhrmVTcwuuzG7Yn4xw4Q0M8ubWF7XTDcByzqqbrB6S5tY8hM22dh0q448fzOmlpa4OxXqt3Q8WCkDo3avKU5fyES3bL3r7pUgZuiBMmx4wiwj0wv45MQ9fJVqxfKa+UQyk1kGMO9xOw6mFHtDJvrJwZDJgbNOpFo00AUChrwLZOmEhkHnqMQs7Dl5H2OeGJuZjMZn6xva2DAsQ12kWrT4oejcSK//HRB0jKPFO0eR4BhGvJ8rwTmCRL4rmYSzXVsm7zdNI945joSi4PUSSlwo69B2YpuGpUg60N7nwr74PPxww7kr0ElHA1q6gmYcTHH64nQBdtICjjQLLacTpU/eaKDzLK9T88uIjM3AZ2dyMbsggW+fDyXyGEvhe//hC2XprudrwWEj6LTBFdDtXBX0PAVQgUAn9Dyg/9vpHOw5lQHZREh9oTErRebMCspcjMtWbfMTSl2/oGND12tcKlvkqHVA8+fo25lc3CDQp7N5Uptu1k4qn+5oXr8pvfDgDjaubB4Nno2EgEw6KR0Ym14CA6yHE7O8O0KhCVby/PFflwqVT8dZSXo1mB5nWS2vKU51giHv/PEUedKyanAoxeELDntAt7bhxj8vFqpdJmN1pJfB8ceTz4Vv8oMqHDhbBLOQCS0dJ4dYOqOu9PyFnxd0J803ElLn6I1iFQN83Dawa5/ubKYWs8yp3nnCIbzNSlPQicWh5Yp9OKuySCTEwVMJ/aWyTOz9ik7y6VRqUzGzTHbS6utp9wOILhrF0Ix2XOVvgOgz/XC9WC2xPA9kR8SPMuuUeu85EmrvnVCAZfQ+v67DBzrPkvig9IU6XfA67yHs3KJ/KlfhGzmRcLu1MA3bvZhXr3aC9M80OQNbOmaEECQTM8vqnHRfYp5pyOQ3gS7I7pXn1rSiDC9pMpuHYviOl8g8Nb+KI6dzsDcmC609Y17dCp2/0g/oNEW9mdpdcJjZI2yIoGM2iffsVR8U9gSZ+Y7B4ctVE9gwLKt6YWVGW2vasf90AX64UaJCBqTxBzypQ5qEu1XauaMxTucBF4/VGIX/5pwdK+ubfrNfpK3R6SXlA/Es1WmyMeEBOONpPIqjhdbk9IVU9H3Tx/duFT5RsUTG6szidLsBnbShLJ3KMrlvGjKRnTWtcmR8Fg4m5oIxu2Ayiy5uO55gf7Id310uwuq6Lwgu7fsrTUEnxAxcvtdjMGs/JFnAewz2RjvsliVB2jaWzIL9Op3HNFZcstXvOP5hXVpJI49fylrA8AXPHwkSfXBYaF2zy+o9LWGe5xCcbRO43kvn5122N3iDuDwlULSe9yJHwr1KNUFO3i6DPrNFaGWwpY/FjV1q98hdL7N8r5oEh4ub3ux6eWUc7cs0G/bGWNDrCfpyTPXtix4uW+s9ccACr28n8pFe6ORZ+dMe7E/IUqckDIjzuZFGaI2lX9CJtWgbXfOevXJJ5DKrv0I9BpMTDZa0cicKR5FWNv7WdxRGAfWd4XngoUTtoDvxfhVe9rl2gI+0jMu9GZ3BhdxalWlxxd6k7ukPFda/DRLWyShvUdZuf5xF0fAoyyjHwsoG7jifKnB85gExkwxIJ26BKH14cgFfnbOrg/P/veYEz4yXdMdhqs7WNkjHM2Ja2vifK2GpeKmWuWsSpNXtso2WTtoyyqn/TYtEt4TJDz8XP/OefuhphA+PzL5jAD7ZrgK+TFOaW9wZE2U/h6cWVBpZREymOnn5d2GzB3D+Nzb69njvF3R8qSH8V2Q2TyOmdMabiCnWSvPzmB0cJLXJANQT+YM4WTSOthHtjE8/84wCym9RDvPlPk+xqVnJjNjjt8vAjA0qleGP2DsViIzJVO9PZzxSZ6F0zLnDchhAp/VxG9wApGfXKivDDIqjN0uRWdkCzmYq/2fnU3xzoVBljDAbRR2DpRbDKWeOOksocnLJ+v56iTpF+fRUJr6/5lQ7vLvFz3Cr6InKOolKzFYW8eitMhXXs9e9VmlWZstrUWOX6sPZjCptkA0xTdGTlDIRmGdHK8/dacxPFWBWzbXCJxia9K0wIjOD8KfuVCr6vXE5+OZ8Ac7n1ILLKGU+nVGtfDhmoTCl6pbjqSmQRQZ/ZUDQSSV+hHOp+jckcYofZ2MG8YA6+ipu330SpyiHQcxrBc3Kb2KOGI/HtEtTxrcXi+Bo6FJgYh8Yp6OlYyIjf8uASP9Y0kLm173CPy8WKB8wMsmKiMQ8FZTeE2vBt5eKUPZEy5+7XtCsdq9Vrf0aP8PmQ+RkkueDslZ8fT4fe2Izd8hJ343nswTxvMeiFDZ0IirFoSyqktOzxPO++sWAenfVXm/apr4v+nvKwiM5plExArAnOhMEVNPr4R18RGYmKDAp9H+uOJRVJ8DotzEXcF+CFQcSshB7t1J9D6FvZzf3QUEnwrgW3bhY5cKpEvn2wZOGHiBdncuoLMlaatSAys3jLpfnrMJ7NwLrrSJnJpcuhkKYAMns1ba+cXAp1PO8kFerrEQg0Ak9nW8Go5n3lvu4HfS3+OGJJISSjlnGdLgXV3e2IzxY6oE9vbCKZ92jauNhffwKzsZO9VsSAkhPXdAHa+0dx5Qnxqfnx7w1yuHSZYDo3we7n1laRdfIDDoHJkErbOZC6MdDZClp6lYJnwxcc9PVNTztPfAP1qa/90FBx4pyED+z7Mb9phntPFY+zLGZf5gTo0Imvg9z+FUYP8yp7val5PgTKthzPfD80comgO9DBZ0eKGZ8xc81e2f2jIMYTFa+1w+2GZ/f+iyYDEb+ofQzFBojX/kdEuhILI2sb26rTxDPVU6ozUCgTxB52E+wRRcMq6/I+iZ9ufUiwG8pqUzKZbxkEEXZoYKOsrCukR9/C089Taiyh8JTeBnbkucsA73T05ndG2Uwo9E/M9LrdaKne5f7kEFH5mLxeE8/r6lvGQ+appBePoa40rc/tr5S7YK9dQ7dk+tKYaxH4d9F0HepI21xJ8uNhP7A/134heuEvkMNpKtdgU4Y6Wc9nxGAfVPrGF/QAoRDc5sqWcD4txICAuHzoUuRczeW7kPLFOYfJGQSSEGaLxIc+e+6YQjUdqjv5Gv29Jwa9fGNNzgc4OObUHmH6YKPvT8dvZOlMzLTAOhzmhXQPP6RkfZj/hbLerOgGVGpTpQ/690RJviYsoTb8oH0vYDu965QftTT3u/yfi73e5f3zy7f/wvQ/dkH8Y/WvzDoghwn/dEG9I8gbxh0YdB9tBCWTIgw6MKgC4NOZkO49O32/my6CFu6sKULW7o/26wO9+dtix22dGFL99Et3f8BGYOzbEG/1Y0AAAAASUVORK5CYII=;points=[[0,0,0,0,0],[0,0.25,0,0,0],[0,0.5,0,0,0],[0,0.75,0,0,0],[0,1,0,0,0],[0.11,1,0,0,0],[0.25,0,0,0,0],[0.5,0,0,0,0],[0.5,1,0,0,0],[0.75,0,0,0,0],[0.75,1,0,0,0],[1,0,0,0,0],[1,0.25,0,0,0],[1,0.5,0,0,0],[1,0.75,0,0,0],[1,1,0,0,0]];" parent="1" vertex="1">
          <mxGeometry x="1270" y="-410" width="157" height="49" as="geometry" />
        </mxCell>
        <mxCell id="ci4K4oEzOC30gkBtyNfN-7" value="Local Development" style="text;html=1;strokeColor=none;fillColor=none;align=center;verticalAlign=middle;whiteSpace=wrap;rounded=0;fontSize=15;fontStyle=1" parent="1" vertex="1">
          <mxGeometry x="1317" y="-440" width="212" height="30" as="geometry" />
        </mxCell>
        <mxCell id="ci4K4oEzOC30gkBtyNfN-8" value="&lt;u style=&quot;font-size: 16px;&quot;&gt;Quarto&lt;/u&gt;: Framework to build documents using R, Python, Observable JS, and Julia. We use it to produce an HTML Document using:" style="text;html=1;strokeColor=none;fillColor=none;align=left;verticalAlign=middle;whiteSpace=wrap;rounded=0;fontSize=16;fontStyle=0" parent="1" vertex="1">
          <mxGeometry x="1427" y="-420" width="501" height="90" as="geometry" />
        </mxCell>
        <mxCell id="ci4K4oEzOC30gkBtyNfN-13" value="&lt;u&gt;Arquero&lt;/u&gt;&amp;nbsp;is a JavaScript library for query processing and transformation of array-backed data tables." style="text;html=1;strokeColor=none;fillColor=none;align=left;verticalAlign=middle;whiteSpace=wrap;rounded=0;fontSize=15;fontStyle=0" parent="1" vertex="1">
          <mxGeometry x="1529" y="-251" width="619" height="50" as="geometry" />
        </mxCell>
        <mxCell id="ci4K4oEzOC30gkBtyNfN-25" value="" style="edgeStyle=orthogonalEdgeStyle;rounded=0;orthogonalLoop=1;jettySize=auto;html=1;exitX=0;exitY=1;exitDx=0;exitDy=0;exitPerimeter=0;" parent="1" source="ci4K4oEzOC30gkBtyNfN-24" edge="1">
          <mxGeometry relative="1" as="geometry">
            <mxPoint x="1491.5" y="-775" as="sourcePoint" />
            <Array as="points">
              <mxPoint x="1421.5" y="-760" />
            </Array>
            <mxPoint x="1421.5000000000005" y="-672" as="targetPoint" />
          </mxGeometry>
        </mxCell>
        <mxCell id="ci4K4oEzOC30gkBtyNfN-26" value="Access Via Web Browser" style="edgeLabel;html=1;align=center;verticalAlign=middle;resizable=0;points=[];" parent="ci4K4oEzOC30gkBtyNfN-25" vertex="1" connectable="0">
          <mxGeometry x="-0.234" y="-3" relative="1" as="geometry">
            <mxPoint as="offset" />
          </mxGeometry>
        </mxCell>
        <mxCell id="ci4K4oEzOC30gkBtyNfN-24" value="User" style="shape=umlActor;verticalLabelPosition=bottom;verticalAlign=top;html=1;outlineConnect=0;" parent="1" vertex="1">
          <mxGeometry x="1521.5" y="-820" width="30" height="60" as="geometry" />
        </mxCell>
        <mxCell id="ci4K4oEzOC30gkBtyNfN-27" value="&lt;span&gt;https://kesterweather.nkester.com&lt;/span&gt;" style="text;html=1;strokeColor=none;fillColor=none;align=center;verticalAlign=middle;whiteSpace=wrap;rounded=0;fontSize=15;fontStyle=0" parent="1" vertex="1">
          <mxGeometry x="1236" y="-632" width="265" height="50" as="geometry" />
        </mxCell>
        <mxCell id="dws5M60ZwzQ7IvA7W7Ju-5" value="" style="group" vertex="1" connectable="0" parent="1">
          <mxGeometry x="38" y="-788" width="260" height="400" as="geometry" />
        </mxCell>
        <mxCell id="dws5M60ZwzQ7IvA7W7Ju-6" value="" style="shape=image;imageAspect=0;aspect=fixed;verticalLabelPosition=bottom;verticalAlign=top;image=data:image/jpeg,/9j/4AAQSkZJRgABAQEAYABgAAD/2wCEAAYEBQYFBAYGBQYHBwYIChAKCgkJChQODwwQFxQYGBcUFhYaHSUfGhsjHBYWICwgIyYnKSopGR8tMC0oMCUoKSgBBwcHCggKEwoKEygaFhooKCgoKCgoKCgoKCgoKCgoKCgoKCgoKCgoKCgoKCgoKCgoKCgoKCgoKCgoKCgoKCgoKP/CABEIBBoFeAMBIgACEQEDEQH/xAA0AAEAAQUBAQAAAAAAAAAAAAAAAgEDBAUGBwgBAQEBAQEBAQAAAAAAAAAAAAABAwIEBQb/2gAMAwEAAhADEAAAAPqkAAAAAAAAAAAAAAAAAAAAAAAAAAAAAAAAAAAAAAAAAAAAAAAAAAAAAAAAAAAAAAAAAAAAAAAAAAAAAAAAAAAAAAAAAAAAAAAAAAAAAAAAAAAAAAAAAAAAAAAAAAAAAAAAAAAAAAAAAAAAAAAAAAAAAAAAAAAAAAAAAAAAAAAAAAAAAAAAAAAAAAAAAAAAAAAAAAAAAAAAAAAAAAAAAAAAAAAAAAAAAAAAAAAAAAAAAAAAAAAAAAAAAAAAAAAAAAAAAAAAAAAAAAAAAAAAAAAAAAAAAAAAAAAAAAAAAAAAAAAAAAAAAAAAAAAAAAAAAAAAAAAAAAAAAAAAAAAAAAAAAAAAAAAAAAAAAAAAAAAAAAAAAAAAAAAAAAAAAAAAAAAAAAAAAAAAAAAAAAAAAAAAAAAAAAAAAAAAAAAAAAAAAAAAAAAAAAAAAAAAAAAAAAAAAAAAAAAAAAAAAAx4yEJgUAAAAAWMRNk5PrKCUAAAAAAAAAAAAAAAAAAAAAAAAAAAAAAAAAAAAAAAAAAAAAAAAAAAAAAAAAAAAAAAAAABqdt4f8nPtMy5j+Tnstdd8d9PXa7XXcv87j1+3y/L/T76K1qMz5mfdZHkXdfT0uaLke1+Znu914r6n9DvN5Hjet8XOXxe6435efuWZh6z9t6eU4Dwz6q93glxHTecc9epT+ftb3x9s2sbnPN7sL0T5Mv7eX0jWch0954/1P5N+q+89R9AfDXrvGvWcx536gnqHUfBH2vxt0Ax9QAAAAAAAAAAAAAAAAAAAAAAAAAAAAAAAAAAAAAAAAAAAAAAAAAAAAAAAAAAAAAAAADz70HjPmccPvOz8w/PYd35z6V56Zdrvdb1cXjfbfL+mNLos3NwXUdNY9N85zXdeHnz3qL/AG/0u/I/YfE+54nZeC9xwnlnuVy3Z/Yb/KnJ+9dN7/n+e6Lx32rrP0j5y9a5Lnv6d5vyrS57Ynm3uXI7+T65u/MvV+b6HjntHyx9T7+LwPKxfVO8/Zet+RvV/N7/ADr0T5t+0tMOjHl+iAAAAAAAAAAAAAAAAAAAAAAAAAAAAAAAAAAAAAAAAAAAAAAAAAAAAAAAAAAAAAAAAA5Dr3nnnG37B5OGj3j3d+dbXsHh5pj5L6PfBQ9AfMzws0+npyuj9GfP45zoz2da/jfQmE4SPesObFjOfT78B0P0428/m3V75xt4P7JtCfOeT9Bu88WGay3+fNf9JtcPBO/7xz18++/XE68M5n6Zd58R25nsE6AAAAAAAAAAAAAAAAAAAAAAAAAAAAAAAAAAAAAAAAAAAAAAAAAAAAAAAAAAAAAAAAAAAAAAAAAAAAAAAAAAAAAAAAAAAAAAAAAAAAAAAAAAAAAAAAAAAAAAAAAAAAAAAAAAAAAAAAAAAAAAAAAAAAAAAAAAAAAAAAAAAAAAAAAAAAAAAAAAANHi9TpnPUOic6Oic4Ojc6Oic5U6Jzo6JztToXPDoXPjoGgodA5/fy1EAAAAAAAAAAAAAAAAAAAAAAAAAAAAAAAAAAAAAAAAAAAAAAAAAAAAAAAAAAAAAAAAAAAAAAAAAAOW0Wt15xr+Nr9eOiz+cvy9FTU58t5KktEqFKSJFJbRWqRrUqtrXJm6+1Ysyek47bR6c849Ex7mOaAAAAAAAAAAAAAAAAAAAAAAAAAAAAAAAAAAAAAAAAAAAAAAAAAAAAAAAAAAAAAAAAAAAAAAAA0G/wDMupoIWZenPIztTQy8HJzosX8DDOm2HN3TqHOZEu7ppkbppaVu2lgbvB014uRxY2M7Iw4y8K3Wpdvw2w5vqg8+gAAAAAAAAAAAAAAAAAAAAAAAAAAAAAAAAAAAAAAAAAAAAAAAAAAAAAAAAAAAAAAAAAAAAAAADy/1Dy/Tnipwt+jPYS1eQZa3WM3O0tS7jZ2cUz6XZbFMlGMyK1j1v0Ocs7iFl67rUs6wVOlq1F7P1ezl9dHm0AAAAAAAAAAAAAAAAAAAAAAAAAAAAAAAAAAAAAAAAAAAAAAAAAAAAAAAAAAAAAAAAAAAAAAAAeXeo+W6c8ZbuWvRnCMo1LKwYxt2uzTL22t28bqcZcdqVFAKqGp0e/0nfGNk4lwyLVhOpThMls9XtI9dHm0AAAAAAAAAAAAAAAAAAAAAAAAAAAAAAAAAAAAAAAAAAAAAAAAAAAAAAAAAAAAAAAAAAAAAAAAeW+peXac8VbuW/RnCMo1GlaFLkLhtdlq86Tbz1spc+uAM+mCM+mEJ63Iw7MSlC35RrLOcJxLZ6vaS+vDzaAAAAAAAAAAAAAAAAAAAAAAAAAAAAAAAAAAAAAAAAAAAAAAAAAAAAAAAAAAAAAAAAAAAAAAAAPLvUfLu5xVu5b9OUIyjVKViLlq6bPOws1MmUZQAVoVpSsWcPMxOmDWlS7KleepyhOJbTVbSX18ebQAAAAAAAAAAAAAAAAAAAAAAAAAAAAAAAAAAAAAAAAAAAAAAAAAAAAAAAAAAAAAAAAAAAAAAAB5b6l5Zpzxlq5b9GcIyjVKViLtq4bXNws1MmUZQKlKVoK0qWsLMxKwQXpRlz1KcJxXaavaS+vjzaAAAAAAAAAAAAAAAAAAAAAAAAAAAAAAAAAAAAAAAAAAAAAAAAAAAAAAAAAAAAAAAAAAAAAAAAPK+s88150UJQ9GcYyoQVoUuW7htM7BzkyZRlAAAFnEy8SsKhLelGss5RrE9nq76+2uQ6/zdhKAAAAAAAAAAAAAAAAAAAAAAAAAAAAAAAAAAAAAAAAAAAAAAAAAAAAAAAAAAAAAAAAAAAAAAB5fw3XcV68b0ax6UjWIoFLlq6bTOwc5MicawqFAAWsTLxKwaSiXqwlz1OUaxPCzNcdV6z4z7Ln1dGPYAAAAAAAAAAAAAAAAAAAAAAAAAAAAAAAAAAAAAAAAAAAAAAAAAAAAAAAAAAAAAAAAAAAAAAHkfG9jx/rxrGcOlIyiUBS5buG0zsLNTJrGsVUqBQRaxMzDrChOEXaxlLOUarPAz8E3fsvjfsuXUxj2AAAAAAAAAAAAAAAAAAAAAAAAAAAAAAAAAAAAAAAAAAAAAAAAAAAAAAAAAAAAAAAAAAAAAAB5Fx/Ych7MaxlCqRlEoqKXIXDZ5uFmpkVjWKqVqqlYAtYmZh1hQnCLlaJ1clCZPBzcKNz7R4v7Tn1IY9gAAAAAAAAAAAAAAAAAAAAAAAAAAAAAAAAAAAAAAAAAAAAAAAAAAAAAAAAAAAAAAAAAAAAAAeRch1/I+zGsJxqFJRAKXLdw2mZhZqX6kK0rQRUFrEzMOsKE4RcrSsspQuLXCzcGNz7X4n7ZnZDHQAAAAAAAAAAAAAAAAAAAAAAAAAAAAAAAAAAAAAAAAAAAAAAAAAAAAAAAAAAAAAAAAAAAAAADyPkeu5H2Y1jKFRpWhSlaC5aumzzcLNS/WlRWgqVgC3h5mHWFGUYnWlZZTtzWWFm4Rt/bPE/bM+pDDsAAAAAAAAAAAAAAAAAAAAAAAAAAAAAAAAAAAAAAAAAAAAAAAAAAAAAAAAAAAAAAAAAAAAAADyTkOv5D2Y1jKNQpKJSlaFLtq6bPNws2S+CtaVoIqoLeJl4dYcJQLtYy56rOEyWHmYZtva/E/bM+pjDsAAAAAAAAAAAAAAAAAAAAAAAAAAAAAAAAAAAAAAAAAAAAAAAAAAAAAAAAAAAAAAAAAAAAAADyXkOv5H2YoTjUKSiRpURu27qbLNw82L1aVAqqlYFC3iZeJWFCcIlctzllKMlnh5eIbX2zxP2zOzGGgAAAAAAAAAAAAAAAAAAAAAAAAAAAAAAAAAAAAAAAAAAAAAAAAAAAAAAAAAAAAAAAAAAAAAAHk3IdfyHsxRnGoRlQgqI3bd02ebhZsl6tKlBQAFvEy8QwYTtxcrCUtycJrLEy8U2ftviftufUhh2AAAAAAAAAAAAAAAAAAAAAAAAAAAAAAAAAAAAAAAAAAAAAAAAAAAAAAAAAAAAAAAAAAAAAAB5LyXW8l7MUZxshSUVgrQXLd1Nnm4WaXRAUAEW8PMxKwYTtxKUZyynGa1xsrFNp7d4j7dl1UY9gAAAAAAAAAAAAAAAAAAAAAAAAAAAAAAAAAAAAAAAAAAAAAAAAAAAAAAAAAAAAAAAAAAAAAAeS8l1vJ+zFGcEjGVKgrRaXbV02ebhZkl4qUFBAVaxMzEMK1dtxKVJSynCayxsnFNp7d4j7bl1IY9gAAAAAAAAAAAAAAAAAAAAAAAAAAAAAAAAAAAAAAAAAAAAAAAAAAAAAAAAAAAAAAAAAAAAAAeTcl1vJezGsZRSMZRqNK0VctXU2eZh5heLsZF/oLmWnNuuwo5rA7Ln++dRiZeJpzgwuWi5KM+bOtKrXGycY2vtviPt2XVRj2AAAAAAAAAAAAAAAAAAAAAAAAAAAAAAAAAAAAAAAAAAAAAAAAAAAAAAAAAAAAAAAAAAAAAAB5NyfV8n68axlHqUjKKwpWhS7auJtM3CzC9mYeZzeWzs7jcNcmdiCbHvZ2+pz+JlYm+eFCcInOEpZypVWPkY5tfbfEfb86GGgAAAAAAAAAAAAAAAAAAAAAAAAAAAAAAAAAAAAAAAAAAAAAAAAAAAAAAAAAAAAAAAAAAAAAAHk3J9ZyXsxrGUbIxlFY0rQpdtXTZ5mFmpezMPM5vPYe457DTo46SNZPdcd2FnPYmXib54Vu5bLk4T5s60ktcbJxzY+3+Ie359VGHYAAAAAAAAAAAAAAAAAAAAAAAAAAAAAAAAAAAAAAAAAAAAAAAAAAAAAAAAAAAAAAAAAAAAAAHk3JdbyXsxrGVCEJwqlFBdtXDZ5uFmpezMPM5vRafcYeGkMi9UhgaTd9TnsTKxd88K3OBcnCfNuSjJa42Tjmw9v8Q9vz6qMOwAAAAAAAAAAAAAAAAAAAAAAAAAAAAAAAAAAAAAAAAAAAAAAAAAAAAAAAAAAAAAAAAAAAAAAPJuS67kvZijOKQhOFsaVoLtq6bLNws1L2Zh5nN6DIycfz6QqjU9Pg53U53Ey8TfPCjKBdnGXPU5RlFcfIsVsPbvEfbs+qjDsAAAAAAAAAAAAAAAAAAAAAAAAAAAAAAAAAAAAAAAAAAAAAAAAAAAAAAAAAAAAAAAAAAAAAADybk+s5P2Y1jKKQhOFsaVoLluZtM3CzJL+Zh5ku+rY2OGkcTPwzT5Gn3HU57Ey8TfPBjOBfrSXPUpRkVsX8c2XtviXt2XQY9gAAAAAAAAAAAAAAAAAAAAAAAAAAAAAAAAAAAAAAAAAAAAAAAAAAAAAAAAAAAAAAAAAAAAAAeT8n1nJ+zGsJwSEJwtjStCly3cNnm4WbJfy8PMl3creyw0Vx4HNbSMupz2JlYm+eFGUS/KNeep1jIlj5Fg2XtviftmfQYdgAAAAAAAAAAAAAAAAAAAAAAAAAAAAAAAAAAAAAAAAAAAAAAAAAAAAAAAAAAAAAAAAAAAAAAeT8p1vJ+vGkJwshCcLY0rQTt3TY52FmpezcLNl3tnY4vn0zLNuhhQvWupzmJmYe+eFGUVvSjLmyrSpK1dgbD2zxT2vLoMewAAAAAAAAAAAAAAAAAAAAAAAAAAAAAAAAAAAAAAAAAAAAAAAAAAAAAAAAAAAAAAAAAAAAAAPKuS7DkPXlGFyFluFyFQpWhS5bumyzcLNi9m4eZG6rGzhplJ5xqLHacX1OdxMzD3zwYzgt6UJ82SkiULkTYe1eN+yZdBj2AAAAAAAAAAAAAAAAAAAAAAAAAAAAAAAAAAAAAAAAAAAAAAAAAAAAAAAAAAAAAAAAAAAAAAB5xxXrHnHpz1ULkO+Ldu7CrUbkVjct3DZZ2FmJfy8S7L1VjdZfm01uxuFcX2nCd86XDzMTfPBhOBdnC5z1WdJEpMuXa+qavaYdhxQAAAAAAAAAAAAAAAAAAAAAAAAAAAAAAAAAAAAAAAAAAAAAAAAAAAAAAAAAAAAAAAAAAAAAAHlPq3l2nPJ27V3fiEbtuy3C5CoTjI2eZh5iX1UbK/pku6aUbbU0rVrDzMOzChOJcuQuc9SnSUS2fPbWX2webQAAAAAAAAAAAAAAAAAAAAAAAAAAAAAAAAAAAAAAAAAAAAAAAAAAAAAAAAAAAAAAAAAAAAAAAB5l6b5jpzx+NkR9GeJHLpFLeNSr88LYGdmY2VZfKxQqUVpQoW8TLxTAjew4zWDe56VzaldprdmewDy6gAAAAAAAAAAAAAAAAAAAAAAAAAAAAAAAAAAAAAAAAAAAAAAAAAAAAAAAAAAAAAAAAAAAAAAAPMvTfNNOeLpKHoypGUahGcVYeVdGbczpMauzlLqG3oattRqm1GixN/hdOeycmMX5xnLStYxPZ6zaHr48uoAAAAAAAAAAAAAAAAAAAAAAAAAAAAAAAAAAAAAAAAAAAAAAAAAAAAAAAAAAAAAAAAAAAAAAADjuxt2eHY3X6j1Z6SOZi2W4XpJZvTpWbn63YG1uWrvFpWgFCtJUMDW7LWdTDrG/bGt2PNhKWwjD7XVei59ZAx7AAAAAAAAAAAAAAAAAAAAAAAAAAAAAAAAAAAAAAAAAAAAAAAAAAAAAAAAAAAAAAAAAAAAAAAAA03FenR7nkuN6JymvHNW9ng6c4sL1su7HW7JNrdt3+bBcoW06FEhrNZstX1MbKxsxa3o56zzt31GPWt25l2EAAAAAAAAAAAAAAAAAAAAAAAAAAAAAAAAAAAAAAAAAAAAAAAAAAAAAAAAAAAAAAAAAAAAAAAAAAKVGh5X0h3PEMXq+P3zu7LX53fO6v4+Rxa1t1K0RJIjW6jaarqUzLXonPem7PYvP2HNAAAAAAAAAAAAAAAAAAAAAAAAAAAAAAAAAAAAAAAAAAAAAAAAAAAAAAAAAAAAAAAAAAAAAAAAAAAAAA8m4Xv8Azj15Z225PI657WXKxXqtbayObved3HNS79zeD3z1mmwrab31zxn2XHToBh2AAAAAAAAAAAAAAAAAAAAAAAAAAAAAAAAAAAAAAAAAAAAAAAAAAAAAAAAAAAAAAAAAAAAAAAAAAAAAAB5f516T5768sKV6enMIZlojs8LbSYeJs8Wtdi7HFUvozvYvIfXsNOgGHYAAAAAAAAAAAAAAAAAAAAAAAAAAAAAAAAAAAAAAAAAAAAAAAAAAAAAAAAAAAAAAAAAAAAAAAAAAAAAAHm/n3oXAevKzcre75Ws2ykNrhbRcTF2OKa7F2OLZWmRCW/655N6zhp0Aw7AAAAAAAAAAAAAAAAAAAAAAAAAAAAAAAAAAAAAAAAAAAAAAAAAAAAAAAAAAAAAAAAAAAAAAAAAAAAAAA864Hv8AgfVlTIs5OnN2xl2Cu11u0iziZuOYWJn4tkreRaW56x5R6vhp0Aw7AAAAAAAAAAAAAAAAAAAAAAAAAAAAAAAAAAAAAAAAAAAAAAAAAAAAAAAAAAAAAAAAAAAAAAAAAAAAAAA884D0Dz/1ZSycfJ05ybGRYi5tdZtYsYuZi1i4uZi1dtX7MS9V8q9Sx06QYdgAAAAAAAAAAAAAAAAAAAAAAAAAAAAAAAAAAAAAAAAAAAAAAAAAAAAAAAAAAAAAAAAAAAAAAAAAAAAAAebcH1/n/ry3GTgZ/XOVYv2S9ttVt4x8TMxTFxsvF6X7F21EfRPKPS8u/QB59AAAAAAAAAAAAAAAAAAAAAAAAAAAAAAAAAAAAAAAAAAAAAAAAAAAAAAAAAAAAAAAAAAAAAAAAAAAAAAAPL+U7vgfTnr2wzdOcTIuTSe01UozcK3jK1mwlZrdlLXmV3nn/p+WnYDz9gAAAAAAAAAAAAAAAAAAAAAAAAAAAAAAAAAAAAAAAAAAAAAAAAAAAAAAAAAAAAAAAAAAAAAAAAAAAAAAcH596H556s7k7eX3xbyZXpb9+eXy1mHtdbWFj5tnqYVrIx6yfTPM/Tce+sHn0AAAAAAAAAAAAAAAAAAAAAAAAAAAAAAAAAAAAAAAAAAAAAAAAAAAAAAAAAAAAAAAAAAAAAAAAAAAAAAA4rzj27yH0Z4OXi5WvF7IsXzYZWJl83G1uy11mPYv2OmNjZOOZHqHA+uYaZYw7AAAAAAAAAAAAAAAAAAAAAAAAAAAAAAAAAAAAAAAAAAAAAAAAAAAAAAAAAAAAAAAAAAAAAAAAAAAAAAAYmWPOef9msa8eQXvQddpzz2XtZHP63rcauUs9zsjzLpfQ8jLrFyjLsAAAAAAAAAAAAAAAAAAAAAAAAAAAAAAAAAAAAAAAAAAAAAAAAAAAAAAAAAAAAAAAAAAAAAAAAAAAAAAAAAAAAAAAAAAAAAAAAAAAAAAAAAAAAAAAAAAAAAAAAAAAAAAAAAAAAAAAAAAAAAAAAAAAAAAAAAAAAAAAAAAAAAAAAAAAAAAAAAAAAAAAAAAAAAAAAAAAAAAAAAAAAAAAAAAAAAAAAAAAAAAAAAAAAAAAAAAAAAAAAAAAAAAAAAAAAAAAAAAAAAAAAAAAAAAAAAAAAAAAAAAAAAAAAAAAAAAAAAAAAAAAAAAAAAAAAAAAAAAAAAAAAAAAAAAAAAAAAAAAAAAAAAAAAAAAAAAAAAAAAAAAAAAAAAAAAAAAAAAAAAAAAAAAAAAAAAAAAAAAAAAAAAAAAAAAAAAAAAAAAAAAAAAAAAAAAAAAAAAAAAAAAAAAAAAAAAAAAAAAAAAAAAAAAAAAAAAAAAAAAAAAAAAAAAAAAAAAAAAAAAAAAAAAAAAAAAAAAAAAAAAAAAAAAAAAAAAAAAAAAAAAAAAAAAAAAAAAAAAAAAAAAAAAAAAAAAAAAAAAAAAAAAAAAAAAAAAAAAAAAAAAAAAAAAAAAAAAAAAAAAAAAAAAAAAAAAAAAAAAAAAAAAAAAAAAAAAAAAAAAAAAAAAAAAAAAAAAAAAAAAAAAAAAAAAAAAAAAAAAAAAAAAAAAAAAAAAAAAAAAAAAAAAAAAAAAAAAAAAAAAAAAAAAAAAAAAAAAAAAAAAAAAAAAAAAAAAAAAAAAAAAAAAAAAAAAAAAAAAAAAAAAAAAAAAAAAAAAAAAAAAAAAAAAAAAAAAAAAAAAAAAAAAAAAAAAAAAAAAAAAAAAAAAAAAAAAAAAAAAAAAAAAAAAAAAAAAAAAAAAAAAAAAAAAAAAAAAAAAAAAAAAAAAAAAAAAAAAAAAAAAAAAAAAAAAAAAAAAAAAAAAAAAAAAAAAAAAAAAAAAAAAAAAAAAAAAAAAAAAAAAAAAAAD//xABdEAABAwICBAYMBw0FBQYHAQABAAIDBBEFIQYSMUEHEBMyUXEiNDVhcHJzgZGxssEIFBYgJDOhFSMlNkJDUlNUdJLR4Tdig7PwMER1gtIXY4SiwtMYJpCToLDi4//aAAgBAQABPwD/APOyq6ymo2a9VURQt6ZHhvrUUjZY2SRuDmPAc0jeD/tqyrpqKB09bUQ08Ldskrwxo6yclh2OYZiWGy4hh9dT1VDGXB08Lw9g1edmMjZYZwiaJYriEFDh2PUdRVzu1I4mON3HoGXgKxvHqHBmN+OSEyOF2xMF3Ee7zqThEjD/AL3hz3N6XTAH0WKoNPcOneG1UM1MT+Vz2j0Z/YmOa9jXNN2uFwRvCxnG6HB4w6sls9wu2Nubneb3lS8IcQktFh0jmX2ulDTbqsfWsG0yw7EZWwya9LM7ICW2q49Ad/O3FPNHTwvlne2OJgu57jYAKv0+oIJC2kglqbflE6jT1Xz+xUnCDSyPAq6OWFp/KY8Pt9gVDWU9dTtnpJWyxO2Ob/rLixvSnDsJeYpHumqBtjizI6zsHrQ4RI+UscNeGdPLC/ot71gWkdBjPYU7yycC5hkFnebceLEa+mw6nM9bM2KMZXdtJ6AN5VXwg0rHkUtFLK0b3vDL/YVQae0E8gZVwS01/wAq+u0dds/sWmE0dRpHWywyNkjeWlrmm4I1QsG7j0PkI/ZHFp7wx6M6H1slBI6fEMSjyfBSgERnoe4kAHvC5G8Bf/ExDy1vktJyX6Xx8a3o5P3rQbhr0Y0qxGDDgKvD8QncGRRVDAWyOO5rmk/bZfCX000i0fx7DsNwTFJ6Glmo+VkEFmuc7XcL69tYZAbCvg5YnJW8HML6+udUVj6qa7p5deR2Y6TcrTjht0b0VxKqwww11diNM7UfHFGGsa617FziPsBWC1wxTB6CvbGYxVQRzhhN9XWaHWv51pFjVFo9gtViuKSOjoqZodI5rS4i5AGQz2kLQXhdwnTXSt+DYPQ1rGNgfOaio1W31S0WDQSc9beR1KsqoKKllqayaOCniaXySyODWtaNpJOQC0l+EPo3h1S6DB6KrxYtNjKCIYz1E3cf4VhPwk8Lmna3FcAq6SImxfBUNnt5iGL4SGk2FaU12j1dgVdHV0ppZAdUkOY7X2Oac2nrC+DvTfHOBiSm1xHy0tTHrn8m+V/tWgvAh8ndL8Kxb5T0dV8UmEnIshsX5HIHXPqTiGtJcQAMyTuWmHDzotgVTJS4c2fGKlhs40xDYQejlDt/5QR31R/CWo3z2rdGqiKG/Piq2yOt1FjR9q0I06wDTSldLgVaJJWC8tNINSaPrb0d8XHf8A2O1MlZjNZNM4lzpXDPcAbAeYLD9DMF+JxlwdVFzQeV5QgO74sbWVRoFRmphkpZ5GRB4MkUnZBzb5gHdl1rGq9mF4XUVbwCIm9i3pOwD02TRW47iwF3TVdQ7af9ZAD0AKk4PqQQD45VzumtmYrNaPSCStKNGZ8Dc2QP5akedVsgFiD0ELg+xh+I4c+mqXl09NYBx2uYdl+m1rehaf41JXYm+iifalpnapA/KeNpPVs9K0Z0LfiNMyqr5XQQPF2MYBruHTc5ALGtAhFTulwqeSR7RfkpbXd1EAZ+ZaF4tJhWMsikJFPO4RytOVjsB8x+y604xl+E4Tandq1M5LGH9Eb3f66VgGDVOO1xihOq0dlLK7MNHvKdwfUPIWbV1Imtzjqlt+q1/tWLYbWaPYm1j3FsjezimjNg4dIWAYuzEcCjr5SGFrTy3Q0t2/z86x3FKjHcVMhDiHO1IYh+SL5ADpPrWF6ARGnDsTqZRK4X1ISAG+cg3WkmhTqClkqsOlfNFGNZ8bx2QHSCNvoHFg3ceh8hH7IWn+JT4PoRjuI0ZDammopZInH8lwabHzHNaE4XTaR6Y4bh+LV/xSmrJ7TVL3C42k5neTkCd5C/7CNBPiwi+59Vr2+u+Nya/r1fsWhnAjh+imntPjlHiEtTRU8bzFT1DAXskIsDrCwIsXbgQbbV8LX8dMH/AOHj/MeuBDAsXn0+0exODCq+TDY6vs6tlO8wtsDe7wLD0rhp/tT0l/ez6gtB/wAS8A/4fT/5bVw8f2SaR+SZ/msXwWP7TJf+Hy+0xfCQ09qMa0ln0coZnNwnDn6krWmwmnHO1ukNOQHSCehcFfAXPpNhcGMaR1c1BQVAD4IIGjlpWHY8kghoO7I3GeWV9K/g40TcNkl0WxSsNaxpc2CuLHNlPQHNa3V84Pm2qspp6KrmpauJ8NRA90ckbxZzHA2II6QVwD/2E13/AIv2VwLf2p6NfvY9RXwn9PKmlki0TwuZ0QkiE1e9hsS082K+4WFz0ggdIXBFwRVunUTsRrah1BgrHFglDdaSdw2hgOVhvcd+QBzti3wbsCfQvGD4xicNZbsHVRjkjJ6CGtafPfzFTxY7weaZlpL6LGMOlBDmm4cNx/vMcD5wc1oJpHDpbonhuNU7QwVUd3x3vybwS1zfM4HzW8AulmhtRLWS1mFASCUl74SbEOO0i+Vu8mvxjBXWBrKMX2HWa0+4rCNOq+nla3EWsqYd7g0NeOq2R/1mtP6hlTopFPTv1oZZWOBG8EErDzWNqL4cagTgHOC+sB5s7LltJP1uMfxSKoGPVMRiqRik0Z2sk5RwPmK4N6SrpsanNRTzxRmnIu9haCdZvT51Wlzqydz+eZHE9d0yXSJrGtjfi4YBYBpksB3ly2kn63GP4pE/D8SfI6R9JWOkcdYuMTiSem9lwnl5qcOD/wBUTbv3F1hrsUY15wx1a1pI1zTl4BO6+quX0k/W4x/FKquDGqzV+NxYjPq31eVa91r7bXWAQVVPoLjTJYpYndmQ17S021Rfb3loM2N2lNCJbWu4i/Tqm328TgC0hwBaRmDsVSGColEWcYcdXqvksG7j0PkI/ZCxCkgxCgqaOrYJKaojdDKw/lNcCCPQVp7wGaSYHWTS4DA7GMLJJjMRHLMbuDmZEnvtv05bFQaWacaGSsp48RxfDSzm01SHarbdEcgI+xcGHD5U1uK0uFaYwwatQ8RR18LdTVcTYco3ZYneLW6N6+Fr+OmD/wDDx/mPXwYv7K4P3ub1hcNQI4VNJAQR9KPqC0H/ABLwD/h9P/ltXDyQOCTSIkgfeo/81i+Cx/abL/w+X2mLSLstL8U+OFwvXy8qXX1vrDe+++1UzYmU8TKcMELWgMDOaG2yt3rcXwh2U8fC3jQpQ0XELpA0WGuYmk/zPfJXAP8A2E13/i/ZXAt/ano1+9j1FcPfKf8Aa5pFy19blY7X/R5Jmr9llwSspmcGejAo9Xkjh8JOr+mWgv8APra3F8LRlONMcHdGGCpdQ/fbbS3Xdq3/APMvgrmY8Gk/LX1BiMoiv+jqR/8Aq1vALFp1SsxKpgq4nCBkhbHNHncDK5H8vQvlRgkkJJroiwjNrmn1ELSSehqcXmlwuPk6U2sA3VBO8gbgsOwiSt0BhoZuxmfGXs1txLi5vuWH1dXgWLCVrSyeFxa+N429IKpdOsJlh1p+Wgktmws1vQR/RS8IUYrbR0TnUuy7nWf122eZYXXR4lQRVcLJGRyC4EjbFac4Q/DsZkma36NUuMjCNgJ5w9P2ELRrTaKCkjpcVbJeMBrZmC9wNmsPesV09o4Y7YdG+olO941WgetaM6URY5K6FtNLFM1us78pgHX/AEXCBhEmI4WyenaXz0pLtUDNzTtA9APmWiukEuBVTzqcrTS2Ekd7HLYR3/Wnac4OINcOnLrfViPsv5faqLhAY+oLKmheIy6zDE7WdbdcHb6U9jKmmcyRp5OVlnNcLGxGwrFaGpwHFzGS5skTg+KQflC+Th/rbdYVp3RSwNGJMfBOB2Ra3Wae+N4Wk2m0dRSPpcJa8coNV8zxaw3ho9/Fg3ceh8hH7IWkeLQ4FgGIYrVfU0cD53C9tbVF7Dvk5edaGfCEwHEKaOLSiGXC60Cz5I2OlgcekWu4dRBt0laQcJ3BxV4PKzFMVocQpXNzpjA6Uv72rq7eu1u8jTDFdIHU2C07w2rqSylgJu4BzrMaT05gL4WOHTQ4to5Wv1nxvpHU5k3FzHXPnOv9hXwb+EPCKHCKPRKrZUsxKareYXtYHRv1sxc3uDkd3RmvhO6M1GGadOxtsbjQYoxpEgGTZWNDXNPQSAHd+56FwUcOmH4Ro5SYNpVBUh1GwQwVUDA8OjAs0PFwQQMri97DZv4bOGOm0vwf7h6PU9RFh73tfUT1ADXS6pu1oaCbNvY3OdwMhv8Agm6NTNnxXSWeMtgdH8Spyfy7uDnkdWq0X75C+EboTPo/phPjVNEThWKyGUPaMo5jm9p6zdw6bnoK4JuHSDB8Hp8G0uiqJIqZojgrYW65DAMmvbtNhlcXNrZb1pb8IXR+joHjRuGoxGvcLMMsZiiYel17OPUBn0hYnX1WKYjU19fM6erqZHSyyO2ucTclcA/9hNd/4v2VwLf2p6NfvY9RXwpdCZzVw6W0ERfCWNgrg0ZsIyZIe8QQ09Fm9K4GOGF2hlJ9x8cgmqsG1i6F8NjJTkm5ABIDmk52uCCTtvZY18ILRGkoDLhorcQqi3sYBEYgD/ec7YOq6xzFMa4RdNDUSRmoxOvkbFDBEOxYNjWN6Ggbz3yd5XB9o1HojofhmDROD3U8f3142PkcdZ56rk271vAIc9qxTQSgqnuko5ZKRx/JA12eYbftR4PKnWyr4SOksKwbQajo5mzVkpq3tNw0t1Wecb/9ZcWP6NUONffJg6KoAsJo9p6xvUnB5UB55OviLel0ZB9F1hGgtFSSCWuldVuGYZq6rPOM7poDQA0AAZABV9HT19M6nq4myxO2td6x0FV/B8x0hdQ1pYw7GSsvbzj+SpeD064NXXjU3tiZmfOdnoKwrDKTCqYQUUQYza47S49JO/ixzQyhxGZ09O91JO7N2q27XHpt/IpvB5Ua3ZV8Qb0iMk+i6wHRKgwmRsx1qmqbskkGTT3hu+3ixfCaPF6fka2LXAza4ZOae8VU8Hj+UJpa9upuEkeY84Oaw/g+jZIH19YZGj83E3Vv5z/JYpoG+or5ZaOeCCnNtSPVPYgABUMJpqKngcQ50UbWEjfYWWNYVRY3hdRhuK07KmiqG6skT72cL33ZjMA3GYstIfg34bUTPlwDGqiiaTcQ1MQmaO8HAtIHXc99RfBrxMyNE2kNEyPeWwOcR5rj1rg24IcB0IqG1zXSYjiwBAqp2gCO+3UYMm36SSduea0y0WwvTDA5MLxqEyQOOsx7TZ8Txsc07iL9W43C0V4BptGdN8MxilxyOppKSblTFJAWPIscrgkHbty6lpHgWG6SYTNhuM0sdVSS7WO2tO5zTtBHSM1jvwbA6qc/Ase1KcnKKrh1nNHjtOfoC0Z+DhSQVTJtJMZfVxNNzTUsfJh3eLySbdQB76wygpcLoIKLDqeOmpIG6kcUbbNaO8sXwyixnDp6DFKWKqo5m6skUguCPce/tC0l+DfRz1L5tHMakpI3G4p6qLlA3vB4INusE99YX8Gqc1AOKaRRNgG1tNTkud53EAegrTL4PtJWsw6HReqgw+Gnjc2Z9SHSSTvJ5xI724ADoC4PNCKnRbg8qNHaishqJpeWtMxpDRriwyOeS0E4B8T0b0vwrGJ8Zo54qOYSujZG4FwschfrU8Mc8L4Z42SxSNLXseAWuB2gg7QtMfg8YNidVJU6O18mEuedY074+Viv/dzBaPOe8FSfBqrzM0VmkVKyHeYqZz3egkD7VwecGmAaDRF+Gwunr3jVfW1FnSEdA3NHeHnJ/wDq64rpDDRycnCBK8c43yCi0mMn5pgPQSvu/L+pZ6SvlBL+oZ6SvlBL+oZ6SvlDJ+oZ6V8oZP1DPSV8oZN9O3+JfKJ/7O3+JfKN/wCzt/i/ovlG/wDZm/xf0Xyjd+zD+P8AovlG79mH8f8ARfKN37O3+JfKJ37O3+L+i+UL/wBnb/F/RfKJ37O3+L+i+ULv2dv8X9F8oXfs7f4v6L5QO/Z2/wAX9F8oHfs4/i/onaRFou6AAeN/RUeksMtQI5o+Tadj73HnQIcAQQQd48CxsNq03xmTDqeOKD84DrOG0BRVrJzfWz6CmvO4qCsezIm46CoqmOXK9j0HisrKysrKysrBWCAzVkRfegOLddT1TI7hvZOUk7pDcla9s72Wh+NOlqxQudrRkEtJ3EeBU5bVpXjb6quLKeQiKPJtjt76ZiQmZydUNZvSqnCI5QZKJ+qe9sXxioo36lSw6v6Sgq45h2LhdB3QVBWvjyJ1h0FQ1cUu/VPQeM8dvnBSzMiF3nzKorHyGzexarqaoZEMzn0KGGornA2LI/WqcQYc3sPrOnesOxuenr2Sue4x3s5t8iFDI2WJskZDmOFwe94E9L8TFDh5iYfv0wI6m71I/WcSdpWsoZ3xOuxxBTKyGobqVTBnvtkqvBRblaF9t9gckKuopH6lXGR31BVRytuxwKa7oKp62SPK9x0FQ1kcuR7F3QVdW+e5waLuIAVRX27GIedOeXklxuU54aLuIAT6l8z+Tpmlx6VR4W1v32qcCduewKesawakAsOlOcXG5NygVoVifKRuopT2Tc479G8eBPhGmfHjI7Iluo2w6EyZrx31dXWsoKqSB143Ed7chVU1WzUqWBpO+1wqvBHxnlaKTLaBfL0plfNTP5OrjIPSqeqjmbdjgU6QgZFU8sgP1jm9RXLSbpZD51ysn66T0rlpL/XPXLSbeWeuWk/XSLlpd0z/AEp881j99f6UZ5C/s3Od1lBwIuqirZFlzndAVPSVFc4OkJZH0dKY2moGarQC9VFS+Y5mw6EUCr261o5O5uOUYY6xMgBt0E5+BPhM7st8m1O72SiqC3J2zpTZGuFwUSrrWVNWSwHsXdj0HYjJSV7NSdoa49OxVuBy07uUonm36N/UVBWSxu1KlhDh0iyoZ4JbBxc09Sc2Bu159CvTnZIfQj8X/WH0L6Pe3KH0L6P+sPoQNOD9YfQpTT8mTrHLvKqrImE2uqaoqKt5jgYQOlUWFxwjlaghzttzsVTXADUgyHSi4k3JvxXsEXZX2Ab06Tc3ZvO8rRru7ReVb6/Anwmd2W+TanJyDi03aVFUg5OyKDgdiugVrKmrJo8mvOr0HMKPk6n62Nt+kKDDI7XaAF9zhe+Xo/oviHfb6B/JGg6S30D+S+IDpb6B/JfEO+30D+SGH99voH8k+guwtJFuofyU1BTxG7mBxC+OCAWhja3vnNOq5ZnffHk95XQRNk94GZ9Cc8u2+hBaNd3aHyrfX4E+Ezu0PJtTkUUUyVzNhuOhQztflfPo3oHLJbVCNioW9kFT21EbcRC6bIZq49Cve91iY7LYphmU02cmm4RdbrT5bZDM9K2m5Q2IbFo33dofLN9fgT4S+7Q8m1ORRRR4o6h7D2V3BU8rZCLHPoUIVCMwouaj1II8XmWSKxIXUwzKcQNqZJZvQE55OzYUEFuQWjfd6h8q31+BPhL7tf4bU5FFFHjg56p3vAFnHz5qnqZWc23nUWJyBubAfOhikmzkx6UMTl3xt9K+6cl/q2+lfdOT9W30r7pyk/Vtt1r7py/oN9KdiU1+axVVY6TnD7VNIc8gp5HbrDqCpyTe5JPEEFuQWjXd6h8q31+BPhM7tDybU5FFHiPFDzwoNyiTNnzzvUqlUyg2IIIbUNiC0Z7vUPlW+vwJ8JfdkeTanIoooo8UHPUCiTPnHilUqmUGw8QQQQWjHd6h8q31+BPhM7sjybU5OR4iiioOcoNiiTPmbuIcUql3qfeoNnENqCCC0Y7vUHlW+vwJ8Jndv/DanIo8R2ccHOUGwKJM2fMujxyqVTKBb01BBXWjHd6h8q31+BPhL7uf4bU5FFFFFFQc5QbAokw8Z4jxyqVTb1T7DxBBBDNaMd3qHyzfX4E+Ew/h3/Danoooo8RUHOUG5RpmxHi3/NlUqm3qDYUEEEChsWjGeP0Hlm+vwJYzpFPSVssNMyMtjyJcCbnfvWlOJSYlXummaxrwA06gyTkUUUeIqDnBQKJMR+ce+pVLvUqh3oIIcW5YfUuo6yKojtrxuDm3GV1gmk1RUVMTKxkfJvOrrMBFidm/wI4nUA11QXB2sZHXN++pJnS1tbck2mIF+hE5I8RRRRUHOCp1EmfMvxlSKXeplF3ldAobFdXyWKTOgoJ5GZOawkdapKpojbqsN/GVM4vp4nO5xaCfR4EMbNsSqrfrXesqMEVlbf8AXE8RRRR44Ocqfcokz55UilU21Rb+IIceOdy6ryZVETqNCpcqWEf3B6vAhjh/ClX5Z/rKHbtZ5T3BFH50A7NU6i3JqPzDxyKVTKLiagggsaH4NqfEKoh2DFS9rReIPV4EMb7r1vln+0V/vtX5T3BFH5pUHPUGwKJM2Lf847FJsUqmUaCCCagsY7nVHiFUJ7FvmVOLQR+KPV4EMb7r1vln+0V/vtX5T3BFFHi38cHOUGxRpuxHb8+RS71NtUe9BBDYmq6xfufUeKVRbGeZQfUx+KPV4EMb7r1vln+0Ue3avynuCKKPFv44OeoFGm7EeLZ8wqTYpVLvUe/iBV0DxYv3On8Uqj5rPMofqmeKPAhjfdet8s/2indu1fj+4cRRHzYOeoNyjQ+eVIpVNtKj2cQQTeLGO5tR4hVEexZ1BRfVM8UeBDG+69b5Z/tFO7cqvH9wRRR2Lejxwc9QblGm8Y+YVIpVNtKjQ2cbVuWMdzZ/FKo+azqCi+rZ1DwIY53YrfLP9opw+mVXj+4Io7EUVu44OcoNgUabs/2EilU21RregghkOLF+50/ilUfNZ1BRfVM8UeBDHO7Fb5Z/rKd25VeP7giiiit3EVT85QbAo03iHEPmSKXeptqjW9BBNKKxfufP4qo+azqCh+pZ4o8CGOd2K7yz/WU7tyq8f3BFFFHjKg5yg2KNNR49/wAyVSqZRoIcTVuWL9z5/FKo+azqUH1Mfij1eBDHe7Fd5Z/tFO7cqfH9yOxFFFHiKp+coNgUabxD50ql3qbaVGmlBb0OLFu0JvFVHzGdSg+pj8UeBDHu7Fd5Z/rKd25U+P7kUUQit/EVT85QbFGh88qRSqYZlM3oHoQ4gtyxXtCbxSqLmM6gqf6iPxR6vAhj3dmu8s/1lO7bqfH93EUUfmU/OUG5RpvzypFKpUxBDiC3LFO0ZvFKouYxQfUx+KPV4EMe7s13ln+sp3bdTb9P3cRRRR2cdPzlBuUabs/2EmxSqXamK6CHSmrcsU7Rm8VUfNjUP1MfijwIY93ZrvLP9ZTu26nx/ciiijxlQc5QblGgij86TYpVNtKaroG6GxN4sTH0KXqVFzI1H9W3qHgQx3uxXeWf6yndtVPj+5FFFFFWRUHOUG5Rof7CRTKRMVk0JqagsS7Tl6lRZxsUf1beoeBDHO69b5Z/tFO7bqPH93EUUVv4iqfnKBR7EEfm34pFNsUu9MQQ7yCCCxLtOXqVFzGJnMb1eBDG+61b5Z/tFHtqo8fiKKK2cRVPzlBsCYgj84p+xSqXaUziCCCGxYj2nL1Kh5jFHzG9XgQxvutW+Wf7RR7aqPHRRRRR4iqfnKDYFGh84oqQKVTbU3eggEAhxYlnRyjvKh5jPMo/q29Q8CGN91q3yz/aKPbdT4/uRRRRR4ioOcoNyjQWxUmH1FVHrwU8z2HY7VsD1XIuvuPXfsc3pb/1L7j137HN6W/zX3Grv2OX0t/mqnDainjL5oJmNG12rcDrtsThsIII6QpFKpdpTN6CAQQ2oLEe1JepUXNYmcxvV4EMb7rVvln+0Ue2qi36fuRRRRR4iqfaoFGgqOnFZiVLSvJDJH2dboGZCr9KsCw2tkoqzEoIamK2vEb3bcAi9h0FUuk2DVUHL0+IQSRazm6wJ2tDS4dY1m+kKuxfD6DkvjlbBDyt9TXeBrWaXm3/ACtJ6gpNKsDjoxVPxOnbTuYx4eTkWvcWtPnc1wHUVRaW4DXVkNJS4lBJUTEtjjzBebE2Fx0A+haQ0jKLFZI4RqxvaJQ0bG3JBt6FJsUqlTE1NQ4hsWIdqydSoeaxM5jerwIY53YrvLP9op3bVR4/uR4iijxFQc5QblGgsD/GCg8Z3slcI8GJz4zjtLheKYrgtRJW09Q2ppqSre2WMUwaW68LD+VuJ3KDGfis0bm0VRVVFZiEj4X1jJIW6rKena+UxvAc517hvYk87YLqSiwqu0ow/Eca0cp24E6ljpKuepDQaZ0UjWQnVZdga9wYBqHVLHknsbrD3tgxLEXcjjVSafEKGpdJUuNRKynFRJZjIoy4tjbqucBYEh17WstA4cUhxqhgxPGMWxl8mKNqIzUUdY1tPG2CcHspmAC5ewZFaYd2Gfu49pyfsUymOZTN6CahxBYh2q/qVBsZ5k3mjq8CGOO/DVcLHKZ+f/MUe2qjx/cj8x3EVBzlBuTE1YH+MFB4zvZK4RMUosF0jimOGYpUYhMAwupZpHxGKRvIh0kYNrB7gAG2cTYgrS/AMYwRoxLRud7ZI6YUwMkj6ypZVFz3Ojax1w3XjMdyRcBo75OimGY7T6KYbVYZ9yo4HUbJ5Iapk3KBgi1XVJY551y0ZNbYMNwQBkoNMKeWnxTE6igkGmGFtErmSskjD4WNBjcImFpLDcuOsXausb5EAaHiStmfX0tbiUkYe6Cf7otDXyEE3HJhrdRzDYA7CHG4JsRph3YZ+7j2nKTepVLvTENqagt6Cr+1JOpUGyPzIbB4EMe7sV3ln+so9tVPjooooo7eOn2qDcmbE3YsD/GCg8Z3slaRuloeE7Fa/R9lBUY1qxQvFe90Yha6JoBjOqW2Fw9xJaSAWgG4KqqPE67Hqanr6LB9I8Uw0manqnV3IOkYQC0OjDXBw1zIG5/kEkDK4bij8T+JY1WSVTzUQSPo21HJhlQ0a1wf1Re0ODDbsP71mGqqK2nmkjMFMMQiqT2UFPGDBELPjD2Pe1rzrmUgtflcGwJIHBlJitNpHhUWLVFE9lXQxFtJVRPjqojG1wbI0AOaRZzhcuaTrZgHI6Yd2Gfu49pyfsKlUqYhuTUNnE3IKv7Vk6lQbI/Mm80dXgQx3uxXeWf6yj21UeP7kUeIo8RVPtUGwKNN2LA/xgoPGd7JXC7hk2kNFjuG0zo4Y2wxPLmuDdecFpYHlpGs5w1Y2xuvm5rgMgsLkYcewWtl0QkweXDWSPjiniZBNVPLGNDYGtAMjhqudnrc7qVRilbT4/irtJYqB0kVF8Yp6iYcm57GTtlh+MhmrybuxaGg2u7K25aPPixfABUVOJU1dis+JU1NPGZBWx0zZZL60Yl12glsmrdo1ewAtdpWgumc+keO0s8NVXO5CuFBK2sgp7uY+KV51XMYHDsoW79wWmHdhn7uPacpFKplHvQQQQ6kFiHaknUsP2R+ZN5o6vAhjh/DFd5Z/rKPbVR46KKKJ4yoNqg2JmwJqwP8YKDxneyVieiVFiWMSYjVVFcZHxtj5ITWibqkFrg22RDgHA7nAFY5wXaO43S4dDXitc+ha5kU7ZyJSCSTrO35k+kqDg6wGPBY8KfHUT0bWcmWzS65e3lhNZx3jWaPNkodCcMgwBuD08tbDRx1AqYdSazoHB2sAw2yaDnbvlUuiMEOIUdXNimL1bqWQyxx1FTrsDtVzbkW6HH0rTHuwz93HtOT9ilUu0piCagLoILEO1ZOpYf+b8ybzR1eBDHO7Fb5Z/rKPbVR4/EUUUeIqn5yg2BRpuxYH+MFB4zvZK0gbUnEGakskdM+Noc8SyRhgDtZ2bRa7gGt1iQWi5G3PHnubh2E009fLFO6NpdVwPmdrEFgNmx21tYkC5I25ZlVkjJ8Ew55qZIYi+zjHNLrvOo8BoI7Nx1rGxzyPQsLoJKvAq+jkrK5gnGoyblJWyx/emAlpfZw7IOI3Z+ZcDmjOk+ETYtVaXYviNbLyrqalinqnyMMbTnLqkkdllbeAD0rTHuxH+7j2nJ+wqVTbSo9iCagggq/tWTqVBsj8yabtB73gQx3LGK7yz/aK/3qo8dHicijxwbVTqPYm5BYH+MFB4zvZK0ow6oxGoiZHBTupms++vL3tlNzk1hDHADbcjMbrbVisIp6Wme3Dp6p8EYa1kUlwyzmOFyTrEXY3YCSActyfSvmwah+JuYZxJysckUha1riHXIJY/c5w7Ib9xspn4rR6L4jM0moxJkMskAcRJdwZ2IsGM3jZbzrR5uIvLp6vG6PEqZzdVop6YRgOvt1g9194stMe68fkB7Tk/YpVMo0AgEOOu7Vk6lQZCPzJnNHV4EMe7sV3ln+sr/eqjx0eJyKPHBtVPuTNiasE/GCg8Z3slY3WVVJBI6lFCLRucX1M5ZqkDbqhpuPOFimKCkFIH0ZqZZ48+RkbqgFzG2BNrgl7d2wKuxKd+GUdZSvjpQZiJGz2IIAcNTK+ZcGjK57x2IvfjWjeKMlbIWTslibGx7BIGlli299UOuSBfda+9cGWKRSVNXSimkbJUOkmMzeQbE4xcnG4NbE4j8pue/PPKw0x7rx+QHtOUil3qVRobEEOOu7Vk6lQc2PzJnNHV4EMc7r1vln+0Ue2qjx0UU5FHi3KDnKDYFHsTVgf4wUHjO9krS2SRtRTGGLDnlgLnfGnXJ2gN1dRxsc9hByO4FaQVD46LC5YHMhaXNJdCySVoBbZrWljCCNYstcAGwTuWqsHoaunEUlRA/luwvC0kBzXZOaSL3cLEXz23QfNX6N4/8AR2tqpWSXjke1zSXQNLRmGi1i0G/QblcG9TSVFZiGvFhbMTaGRn4sYHTGFjQ0coYiWjxb5bhYBaY92Gfu7facpNil3qZRroQQQQ2Ku7Wk6lQc2PzJvNHV4EMd7r1vln+0Ue2qjx/ciinbEUeIqDnBQbAo0FgdvlBQeM72StLGudiMHJh7HMY15lhLy5gBdcuax7TbO1z+k7PaDU1PxbCaJkkFIPvTXlks4Y2Mt1SLXvcA239GaLjHgMMjBLE4jlHfEXNksTcmxcLFt77lTVT67RzF3yhtU7UeOTnp3FrgYmkNdG0kuBBFw3bc2G5cEbXGoqZI6yGSnEIaKegq9ajhNxk2F/3yN3eIAtfetMe7DP3ce05SbFKplFvQQQQQVd2s/qVBsj8yGweBDHO69b5Z/rKd21UeOiinIo8RUHOUByCiQ2LA/wAYKDxneyVpOHxYo2enhl+MmJjWTRteXCzn31bMcMg4kgg3FrC4VXTvmiwelg+hyGmN+VcSAxoZeIjIknLPIgNPfCpa6GDBqJ45CNtQ/UY18h1HOdc5OtmDYkGwuLJrpGYPiZifTQVLOUGvGQxrHBtmlxc2wsA3MgiwBtbJcFUdOauokpcLdybIREzFX15qOXGtfVYHMbZl87tAaTsutMe7DP3dvtOUm9SqbaokNiBQQQVb2s/qVB+a8yGweBDG+61b5Z/tFO7ZqPHRRTkUeODnKDco9iasD/GCg8Z3slaYXlrqOJs743Ns5rRLHGSXHV1mFzHG42m1rDNVFZMaOhbS8vLLNDr2MbTIRYXcTrNaD2Q2bzkFikgOj9LPIWTsj+tlljbkNVzHEtLgL52IvbM5KB8eGaK4lU19M6WmjikmeyTsnTxhlzraznDMC2ZtYDZsWh2JYPJj81HhuBUVBOIXF09K2OzywxiRt2gEtDpAATkSx3QtMe7DP3dvtOUmwqVTKJBBBBBVva8nUqD815kNg8CGNd1azyz/AFlPFqmo8coopyKPHDzlBsCj2ILA/wAYKDxneyVjMojx95FTLBL8Wja0vAMBu6TsHDWGbrZHKxaM87HGSyTC8ILXhzhFynLVEjGsDNUXc/X1tt25gEi5zF1VRQVWj8La0tmisxznUcvIsyzBadYdjl0pkZi0VxAYew0jzHMYXOeagA2Oq/LWJ3GwvnfI7+DNjWUFexkpfFFUujia+N7XxMsHBp142H8rWtYgX29GmPdln7uPacpNilUyiQQ2IIbUFVC8D+pUG2PzIbPAhjfdas8s/wBop/bVR45RRTkUeODnKDYFGmrA/wAYKDxneyVj9Q9r3U0EobJLGGlopTK431rWOsB+S4532FY48TQYbNypET4iXTNikdr31TqmNrgbG1872tbeq9pGA0T3RNjeJA+9+wjJDiXOu19gb9BsSM96pRL8mMVfTROlqXNlc3k3lolfqC2o5oYRuFxY3BzvmuDiOcUNdNPTOibNUa8b5J5JpHssA3WdI95uABcXABuLZXOmPdln7u32nKTYVKplDxDYgggqj6l/UqDbH5kNngQx233XrenlX+0U/tmoP98oopyKPEVBzlBsCjTdiwP8YKDxneyVpbHHLXQtnp31TRH2LIYGyvYST2TrxusMhbZmDkd2OvgGE4UKuOjqg4x2AIBc5uq8ckNU3B1bWsLgjMKujih0comMj5JpluyKrY1rATrHVkbcCwvsvtDVQ07a7RbFaRo1jK2WFzKQtawEsAtF2RA27zzib2XB7SS0dPiTKqifR1JqAXx8hHDGfvbQCxsbnN2DM3vcHZkFpj3YZ+7j2nKTYpd6mUO9BBDiCqPqX9Sw/wDN+ZDYPAhjY/C1af8Avn+sp4+kz+OUQnBOCKPHBzlDuUabsWB/jDQeM72StLZI4q+EzVD6Zpj7F0M7Y3vIJ7F15G3bnlt2nMb9Ig+OjweQv5C0YYRBNLGwEujNgYwciAWjxha67KbR/Do/jBldLJY/fZBygs4lpkycAANpz7HZnZaNuaaOVrJeUY2SzQHukDGlrSAHuN3Agg3/AL1srcWmHdln7uPacpNilUyi3oIcQCapmkxOAG5UFO8BhLTuQ2DwIaSF0OLVjRkNbW2dOfvUrTysrjtc4lEIohOCcOKyp+coNyj2JqwP8YaDxneyVpBHN8fa+J08DTEG8rFDLLrm57EiNwta97nbrHMWWMzV1NQYVBT0rGMLGGSM08lRqOa6MgDVcNg1zne+oFhdKypwSCLEKWJwdd7onxG1y4kHVdcg53scxdQQxQM1II2RsuTqsaALk5nLi0w7ss/dx7TlIpd6m3qNBNVk0IBFus1w7y0RpXVmI08diWNIe7vNH+vt8COkmAS4lUtnpnxtcW6rw8kX6DsWOUMmHV0lNMWmRu0tzGeacE5OCIRCKKg5ygUexNVBUNpMVo6iTKNj7OPQCLX+1YlhlPiLSyqNRqOaWFsdRJGHA7bhrgCoY2wwsiYXFrGhoLnFxsBvJzJ75z+ZpNUMqcZkMZBbEwRE9JBJPrUil3qZRoJqCaENqw+ITVkMbidV7w0276wTBaXB2PbTa7nP2veQTbo8CWnrHDH53FpAIbY225BOCIR2JwRCKKg5ygUaanC4scwqPGq2miEYqHOaMhrtDiPPtR0ird0jbeTCGkVb+m3+AL5RVn6bf4AqnHayeIsMhaDkdQapPn2rqAA7ykU29TKPegmoJoQWBwPkxSl1QPrG2ubb/AnwnfGfu0w0tTyThEOwe3XY7M7R/JGuliH0+geB+tpTyjfO3nfYoJqaraXUlRHLuIBzHeIT2Fu0EFFEIhFQc9QbAo01b+LqQ+ZJvUql2qNNCaEApHRwQmapkZDEMy95sE3EZanLC6Ylh/3moGqzra3a71d9aM0hGP0E1TPJUziZtnONmtz/ACWjIfae/wCBPhI7tDyTfetY3VVR01U7WniaZBskb2Lx1OGabFW07bU1ZyrBsjqW6w6g4Zj0FHEOSyxCjlgH6yL75H9mYHXZQmKqYH0k0c7DsLHX+xPYWnMEKyiFnKDco03YiFuVuMjil2KVS7VEmgnYqmenoY+UrZ2Qt3Bx7InvDamVtZVdoUwpoT+fqh2R8WPb6bKLDouWE9U59ZUA3Ek5vq+K3YPRfvoXO0rR4fhqj8s31+BPhI7tDyTfetyPFrEKow+lneZDHycp/OREsd5yNvnQbidOPvFTFWxj83UjVd/EP5BHFqaNwbiFPPQPP5Txdh/5hl61TBk5DqeRkoP6DgT6FFG5trtIUYKanIFBHbxeZG6kB6FI0ncVNC+1yLDpOQU9dRUIBqKhpcebHF2bnHvAJs2J1o+8RjDKc/lyjXmcO83Y3z+hUWGU1NJyzWulqTtnmOu/zHd5rLagEFo93ZovKt9Y8CfCT3aZ5JvvRyPEUeIkrXuC1wBadoIuCvuRQSP1o4nU7zneB2pn1bPsUFBVxdr4rOB+jK24+whRxYw3m1lK/wAZpHuKY7FwOyZRv6pLf+hOkxT9mpf/AL//APCLsWOYgpB/j/8A8K+LH8ijH+N//mr4ta1qIdcp/wDbVsXtm+h/jP8A7a1cXP56hH/M7/oRjxcj6+h/83/SpYMXO2tpG9TXKaixCS/K4s5o6I4z7ypsGp3O1qipq53d94aPsHvVBS01KSaWnjicdrrXcfOc0ASmhEWQsgtHu7NH5VvrHgT4SB+GWH/uh6ynjiIRRRRGahGagGSiaTuUcDiMgjTuG1fFyvi7uhCnJRpj0oU5RgNlNGWqVqnac1ACEEEUEFo6C7GqIAZ8s31jwJ6f4UamKKsjFywaj+rcVNTvYTcJwsiiirJrCVE3VKhOxQblDzUdq3IAehWzW9WHpTtiqlMpFEzJapCCFygLqGnfIbNC0JwcCpNXILtiyb33eBOeJk8L4pBdjwQQsUoTSVcsEovqnI9I3FT0TXi7cipqR7DsTmkHMLVumxW2rVshkVCdigOYUGbUdi6kUVtKCOYKq96m2lSHNRDsVq3RYRsUcbnGwCpqECzpPQqOndNNHDC27nmwsqGmZSUscEexgsT0nefAppBgwxJrXxODJ2CwvscOgqvw6pon6tTC5l9jtx6inNuM1NSRyXysU6nEZTh0IpwzUBVPtVOOxCIKDU5FAK3nTtiqzYlTI5vTG9iE1qjj1jZQxNY3IZqhoqiulDKeMuO87h1lYNgseHkSvdyk9ra25vV4FpGMkYWSNa9p2hwuCsS0Xpqi7qR3ISfo7Wn+SxHCaugP3+I6m57c2nzqoj3p7U8WRCgVOcwqbYERkmjeiFbcrIWunbFWbSpyoxd6AUYuVSwuc4BrSXHIAbSsJ0bfJqyVxMbNojHOPX0Knhjp4xHCxrGDYG+BlzQ4EOAIO0FYnozR1YLoPo8h/RF2nzfyWI6JYjAwvjbHO3ojOfoKqIXxvLXtLXDIgixCIsVFk5UxzVKbtCdlkgc7rativ1q+aJGqqzaVOdqpxndRMLiABmsL0WrqljZJQ2CM/rOdbq/nZYVhFNhzByTdaS2cjtv9PA9p3rMxycROZrFrXBjt+WaFfCZDHUNNPJsuc2nz7vP6Vqlpa7ItOYcMweoqmOxUttUJ46CrFC6KKzyTthVYcyptpVLHYDWuCdgtmeoLQfDIBQitc1r5Huc1pOepqktPnuD4IOFIXx9vkQoKsuo2cu0TAZXdt9KpKuGInkJZYL7WuGs3/XmVPXyZaoppfFOqT5v6KHFpY29lQut3n/0XygZexpnA9939FUaQujp5JIqF0z2i4ja8Au72xYVpzHiNS2mZhNc2dxsI2sLn+cWWNYhPg9GamuwytbENpEetbrtsWEadQ4vVmKhoZTE36yaQlrWD0Z9W1HSCTWOpQki+R1/6J2OVBab0AA6TJb3KOulrJC1jKRrtp1pbquxGrirHQExRlrrExtB9BN1h1W+aQXO3b0nrO9aC/i3D5Wb/ADXeCDhNbfH2+RCib9EA75QabqM2soJ3x81xHUVR1D5mvMji5weRc9F1S4k+PFGwasfItbmCwG+XTtQZSxYtHiFKHQVDHa3YOs13eIWlOkVVjmHtpHFtPHe7zECC4dGZtbzKnlFFFydP2LRlfb61NWzu2yv9Knlc65LiT31gr/pEm3mrEDfEZP8AW5YJz2rQU/8Ay5F5ab/Nd4IOEht8eHkQo2/RgO+VqJrU1qwpv1w/7woi2NHxfcm3zRvYqVpBUjVK1YK36Q/qVe38ISf63LBR2bVoJ+Lsflpv8x3gg4QxfHR5IKNv0YdZWpmmsTGLCWZz+UKLPw3s3e5NiyyT2WaVKzMqRilYsFZ9Jf4qxFn09/8ArcsGFnNWgn4vN8vN/mO8EHCAPw6PJBRD6OPOg3NNYmMWEs7Ko8qUWfhr/l9ya2w3qRpUjNqkapWrBGD4y/xViTfp7/8AW5YQOyatBfxfb5eX2z4INPu7g8kFEPo46ymjNMao2rCm9lUeVKLfw2PF9yDclI1SN2qRilasFb9Jf4qxQfT3dXuWE5Fq0F7gDy0vtnwQae93B5IKIfRx1n1pgzTAowsKb2dT5UrVBxseL7kBkpG5KRqkapWrBW/SH+KsVFq53RZYUOyatBu4I8vL7R8EGnvdweRCi+oHWfWmbVGNijCwsffKnypTgfu2236PuTASpBa6eNqkClCwdv0p/irFh9Od1BYWM2rQbuF/jye0fBBp73bb5EetQ/Uec+tM2qMKMLCx98qfKlEfhtvin1ICwUgUg2qQKULBx9Kd4vvWMD6c7qCwzPVWgvcL/Hk9o+CDT7u0zyI9ZUP1PnPrTFGolhf1tT5Uoj8Nt8X3KykGRUgUmSk3rBx9Kd4qxkWrndQWG7WrQF2tgkg6KiQfb4INPZg7GXAfm4w0+v3qkcHU4I6SmbVGolhn11T5Uoj8ONt+j7lbLvlSDbZSBSBSDNYP227xT61jI+mu6gsPdbVXBxVhza6l3cpyzT15H1D0+CDT5kk2MVTYnapGR9AVPLJQsENRfI5OVPO14BBCiIKiWG9sVXlfciPw6zxfcjsUgUiepslhDvphz2tPuWNm1W8973KhlkqHBsdw3eVwcsEdfMN5hOXnHgg09jfBjU9RGC5pDeUa3MjIdkBv7/UFKynrY+zDXNdscN6lwienOvSyazehRVs8BtPE4W32VNicTrXcAsGkEslS9uYMqe4MxthNtm/qQmZbaCpZW9IUs7RfMKesjaM3BVWJMGQNysErJXYgCInObbcsXcJKs7QCACFTmCigvdoa3a85ALg0bJJUVNRK0s1owGNdtDbjM98+4eCDTpuriTnDaWg/YqiJvKudC7kJSbkgXY7rb7xYqOqlp+2oHsb+si++M+zMecKGWCrZrMMUzelpBTsOpX5mMA9Sw2iZRB7GOuHPLupVmGz1dcyZkgawDcbHYvuVUC+rO8DrCfhVSRnUO9ITsFkPPqD/ABL7hw/nJS5Nw2ji5rNY99TzxUcesTHA39J5Av6U6aSc3p4XOB/Oy3jZ9uZ8w86paZolbJO/l5mm7SRZjPFb7zcrg+beOpf0Bo9f8vBBp4Pp48QKpykUDi03aSFJSU1Q/XmgYZP1jewf/ELFMo5I/qK+paP0ZNWQD0i/2qFlc0j75RzdbXRn1uURrR/uTD4lSD6wFr1gGeHSnqmj/wCpSSVn7A8eNPGPeVLJWH/dYG+NU39TSpBWO2y0kY/uxuefSSPUpKdzvrqypf3mERj/AMov9qEMEDi+GFjZP0yNZ38RuVI4udckkqn2hcHo+i1R77ff4INPR9Nb5Mesqq+sUSYmqPaqdblUc0qXanKRSo85U/OC4Pu0qk/3m+/wQafROE8Uluxcy1++Cf5qr+tUSYmCyjVPuW5VGwqUZp6epU49kFTjsgtAGkYfO62ReB9nggxjD48SonwSZHa13QVj2GT4fVuiqGFpGw7nDpCiFlGmhMCp9y3KfYpdqenqTeiOyWA4XUYlVNigYT+k47GjpKwyijw+ijp4tjRmek7z4IcSw6mxKnMNXEHt3HeOorFtC56cukoHctF+iecFJSTU7tWWNzHDpCa0pgVMFYhqqB2JUm1OCe0qOkmneGwxue49AWCaD1E72y17uRi26v5RWHUFPh9OIaWMMYNvSevwSVNJBUtIniY8d8Kq0WoZbmPWiPezCl0Se03ilY4dByTMCqYvzBPU8FHDKjfSy+a381Jg9RJkKWUddkdF6yQ8wNHfcFDobISOWmYB3s1S6JUMVjKXSn0BUtFTUrQKeFjO+Bn/APvXf//EADURAAEDAgUDAgQFAgcAAAAAAAEAAgMRMQQQEiBgBSFBMDITUWGRInGh0fGBwRVwgJCx4fD/2gAIAQIBAT8A/wBZznBoqSga+gQRfgvVuoOwUYLB+IoDq7aP1Nd9O37D/ldT6kcJpiiFXu/9/Cfieq4VvxpQC3yO3b7Kfq0ceFGJaK6rD6/9Js/Vns+O0Cl6UH8/qsJ1Vk2GdO/sW3H7fmo8X1PG1kw4DW/0/uum9SfO50GIFHtTuo4zGyFmCFGjz/K6niMWWjD4sdwag/x2UIqxo+gTmRx9nd0wMMg02Xwml5qgKuonQ1fpaqQg0KlbpYAFJG5zwCUWxN7FSx6O4twPqbcK9jY8UaVsViGnpwD8NPUfKv8Aay6s1zpop5KgOAt4PlPw+EDRXEkg/wBfuF1LA/BwcZjOpoJNfzTIcKYviHEkfTz9l/h7BgpXYd+vVTx8isFDBLFV85YR4/ZdPwMEjnSQylxoR3HzFF0XGR4UPw850ur5+y67jYsS5rIjXTXv+ah9jfyC1vHZzarS1sgI8pnaU18psTtdkHD4hCMLwaUUoowBFwEgr8k+J2rsFL+GMNN+B4jCw4kaZW1UfR8HG7UGd/qSVNCyZuiQVCj6Pg43agz7klOaHDSR2R6Lgy7Vo/U/umMaxoa0UAUvSMJK7W5nf6VCggjgboiFAsT07D4o6pW1Pzsj0bB6NGj9TX7po0gAITPHlFxJqSnPc41K+M+lK5fGf80ZHEUKc8vNShM8dqokk1P+WukrSVpK0laStJWkrSVpK0laSiCL8MazycqKnouFQnN08KYKnKmdFRUVFRU2OFRwqP3bKZVzrlTM24VH7tp2jYbcKjvuoFQKgVAqIjM24VH7vTOZtwqP3emczbhUbSDX0zmUQRfhIHb0zslFKcJFvTOybxwkW9M7JvHCRb15vHCRb0zsm8cJFvTOybxwkW9M7JvHCRb0zsm8cJFvXm8cJFvXm8cJFt/xCviFNfXtkdk3jhItuNs2X3TeOEi242zZfI5hTeOEi242zZfI5hTeOEi242zZ7sjmFN44SLbjbNnuyOYU3jhItuNs2e7I5i6m8cJFtxshkz3ZHZN44S2242zjvkdk3jhLHAim42Vco75HY92o8Jjuq7tIWkIADI5m3Co75UyrvJzNuFR+70zmbcKaaGqBrsO0I5yOoKcLa8hNeChvCKJTn0sia34aHkIGoruCc7T3Tnk8QZ7QqLSi0+EA43WkKlFLbiLPaNxUtuIs9o3FS24iz2jMoZFS24iz2jMoZy24iz2jMoZeVIO3EWWz7IUVcpLcRjtkRkFTKS3EYndqZHIZynxxJspF0JAVqCDgjK0J0pNv9/L/xAArEQABAwMEAgIBAwUAAAAAAAABAAIRAzFgEBIgIQQwE0FRFCNhIlJwgJD/2gAIAQMBAT8A/wB1pFkHB1jgtR+0dL9xVH7ehdbqjeyjUAbuU1D2m1AWyUHPd2Ex5PRut7nGGp5dZymBKZUr1pLCAFVdVFE77r9Q9tEED+E5xDC7+EzySKW910HeS4bgvHeX1i4/hUKzGUi4CEH+TUG5tl4/kfJLXdEYHU2kQ5OGztpVS4JRa3+5PZDRCAbE7lsG07SmAEdlMYD2CqTg3oqq4O6C6A7XxUj/AFU3wvkfUouDu4hVYf47S36TvIpmlfuE6m74A7+U3yqZbMrxnbqznfmU1hdQJH0VS8mmWCTC8f8AcrOqC2BloddCm0IgHooU2j60+Jv4QEI02n6QAHQTmNddfG2IUCIR8SkTMIU2tbtA6TKTGAho6K/S0pmFAiEfEpEzCbQY124BU6TaYhqPi0iZhNaGiGj/ABrKlSpUqVKlSpU4aXaSp5zoDCBnCjbjK3LcpUqeAwp1uUKFCjiMKdb1FDUXwp1uUqSpU6DUYU63rGovhTresai+FOPXrGoQM4oODMJN/WODMJN/WODMJN/WODMJ+/WODMJN/WODMJN/ezCTf3swk39Y4Mwk397MJN+e1bQi2NBwZhJvyGrrcmYSb8hq63JmEm/IX1dbkzCTfkNXW0HBmEm/IX1dbkzCTfkNXW5Mwk+l1tBwZhJvyGrrcmYSR6XW0HBojCXW5yVJU6DUYU6ylT6QNRhTrcZ5DUXwo9qPUNWjCyJRHpGgbhxAREcwEBGIG+koEfaMKVKbiLr8gm4i6/NuIuvyCbiLr824i6/IJpxFyjhGjcRdzbiLxzaMSLFtK2lbStpQZH/fL//Z;" vertex="1" parent="dws5M60ZwzQ7IvA7W7Ju-5">
          <mxGeometry y="240" width="186.66" height="140" as="geometry" />
        </mxCell>
        <mxCell id="dws5M60ZwzQ7IvA7W7Ju-7" value="" style="shape=image;imageAspect=0;aspect=fixed;verticalLabelPosition=bottom;verticalAlign=top;image=data:image/jpeg,/9j/4AAQSkZJRgABAQEAYABgAAD/4RCCRXhpZgAATU0AKgAAAAgABAE7AAIAAAAFAAAISodpAAQAAAABAAAIUJydAAEAAAAKAAAQcOocAAcAAAgMAAAAPgAAAAAc6gAAAAgAAAAAAAAAAAAAAAAAAAAAAAAAAAAAAAAAAAAAAAAAAAAAAAAAAAAAAAAAAAAAAAAAAAAAAAAAAAAAAAAAAAAAAAAAAAAAAAAAAAAAAAAAAAAAAAAAAAAAAAAAAAAAAAAAAAAAAAAAAAAAAAAAAAAAAAAAAAAAAAAAAAAAAAAAAAAAAAAAAAAAAAAAAAAAAAAAAAAAAAAAAAAAAAAAAAAAAAAAAAAAAAAAAAAAAAAAAAAAAAAAAAAAAAAAAAAAAAAAAAAAAAAAAAAAAAAAAAAAAAAAAAAAAAAAAAAAAAAAAAAAAAAAAAAAAAAAAAAAAAAAAAAAAAAAAAAAAAAAAAAAAAAAAAAAAAAAAAAAAAAAAAAAAAAAAAAAAAAAAAAAAAAAAAAAAAAAAAAAAAAAAAAAAAAAAAAAAAAAAAAAAAAAAAAAAAAAAAAAAAAAAAAAAAAAAAAAAAAAAAAAAAAAAAAAAAAAAAAAAAAAAAAAAAAAAAAAAAAAAAAAAAAAAAAAAAAAAAAAAAAAAAAAAAAAAAAAAAAAAAAAAAAAAAAAAAAAAAAAAAAAAAAAAAAAAAAAAAAAAAAAAAAAAAAAAAAAAAAAAAAAAAAAAAAAAAAAAAAAAAAAAAAAAAAAAAAAAAAAAAAAAAAAAAAAAAAAAAAAAAAAAAAAAAAAAAAAAAAAAAAAAAAAAAAAAAAAAAAAAAAAAAAAAAAAAAAAAAAAAAAAAAAAAAAAAAAAAAAAAAAAAAAAAAAAAAAAAAAAAAAAAAAAAAAAAAAAAAAAAAAAAAAAAAAAAAAAAAAAAAAAAAAAAAAAAAAAAAAAAAAAAAAAAAAAAAAAAAAAAAAAAAAAAAAAAAAAAAAAAAAAAAAAAAAAAAAAAAAAAAAAAAAAAAAAAAAAAAAAAAAAAAAAAAAAAAAAAAAAAAAAAAAAAAAAAAAAAAAAAAAAAAAAAAAAAAAAAAAAAAAAAAAAAAAAAAAAAAAAAAAAAAAAAAAAAAAAAAAAAAAAAAAAAAAAAAAAAAAAAAAAAAAAAAAAAAAAAAAAAAAAAAAAAAAAAAAAAAAAAAAAAAAAAAAAAAAAAAAAAAAAAAAAAAAAAAAAAAAAAAAAAAAAAAAAAAAAAAAAAAAAAAAAAAAAAAAAAAAAAAAAAAAAAAAAAAAAAAAAAAAAAAAAAAAAAAAAAAAAAAAAAAAAAAAAAAAAAAAAAAAAAAAAAAAAAAAAAAAAAAAAAAAAAAAAAAAAAAAAAAAAAAAAAAAAAAAAAAAAAAAAAAAAAAAAAAAAAAAAAAAAAAAAAAAAAAAAAAAAAAAAAAAAAAAAAAAAAAAAAAAAAAAAAAAAAAAAAAAAAAAAAAAAAAAAAAAAAAAAAAAAAAAAAAAAAAAAAAAAAAAAAAAAAAAAAAAAAAAAAAAAAAAAAAAAAAAAAAAAAAAAAAAAAAAAAAAAAAAAAAAAAAAAAAAAAAAAAAAAAAAAAAAAAAAAAAAAAAAAAAAAAAAAAAAAAAAAAAAAAAAAAAAAAAAAAAAAAAAAAAAAAAAAAAAAAAAAAAAAAAAAAAAAAAAAAAAAAAAAAAAAAAAAAAAAAAAAAAAAAAAAAAAAAAAAAAAAAAAAAAAAAAAAAAAAAAAAAAAAAAAAAAAAAAAAAAAAAAAAAAAAAAAAAAAAAAAAAAAAAAAAAAAAAAAAAAAAAAAAAAAAAAAAAAAAAAAAAAAAAAAAAAAAAAAAAAAAAAAAAAAAAAAAAAAAAAAAAAAAAAAAAAAAAAAAAAAAAAAAAAAAAAAAAAAAAAAAAAAAAAAAAAAAAAAAAAAAAAAAAAAAAAAAAAAAAAAAAAAAAAAAAAAAAAAAAAAAAAAAAAAAAAAAAAAAAAAAAAAAAAAAAAAAAAAAAAAAAAAAAAAAAAAAAAAAAAAAAAAAAAAAAAAAAAAAAAAAAAAAAAAAAAAAAAAAAAAAAAAAAAAAAAAAAAAAAAAAAAAAAAAAAAAAAAAAAAAAAAAAAAAAAAAAAAAAAAAAAAAAAAAAAAAAAAAAAAAAAAAAAAAAAAAAAAAAAAAAAAAAAAAAAAAAAAAAAAAAAAAAAAAAAAAAAAAAAAAAAAAAAAAAAAAAAAAAAAAAAAAAAAAAAAAAAAAAAAAAAAAAAAAAAAAAAAAAAAAAAAAAAAAAAAAAAAAAAAAAAAAAAAAAAAAAAAAAAAAAAAAAAAAAAAAAAAAAAAAAAAAAAAAAAAAAAAAAAAAAAAAAAAAAAAAAAAAAAAAAAAAAAAAAAAAAAAAAAAAAAAAAAAAAAAAAAAAAAAAAAAAAAAAAAAAAAAAAAAAAAAAAAAAAAAAAAAAAAAAAAAAAAAAAAAAAAAAAAAAAAAAAAAAAAAAAAAAAAAAAAAAAAAAAAAAAAAAAAAAAAAAAAAAAAAAAAAAAAAAAAAAAAAAAAAAAAAAAAAAAAAAAAAAAAAAAAAAAAAAAAAAAAAAAAAAAAAAAAAAAAAAAAAAAAAAAAAAAAAAAAAAAAAAAAAAAAAAAAAAAAAAAAAAAAAAAAAAAAAAAAAAAAAAAAAAAAAAAAAAAAAAAAAAAAAAAAAAAAAAAAAAAAAAAAAAAAAAAAAAAAAAAAAAAAAAAAAAAAAAAAAAAAAAAAAAAAAAAAAAAAAAAAAAAAAAAAAAAAAAAAAAAAAAAAAAAAAAAAAAAAAAAAAAAAAAAAAAAAAAAAAAAAAAAAAAAAAAAAAAAAAAAAAAAAAAAAAAAAAAAAAAAAAAAAAAAAAAAAAAAAAAAAE5laWwAAAAB6hwABwAACAwAAAhiAAAAABzqAAAACAAAAAAAAAAAAAAAAAAAAAAAAAAAAAAAAAAAAAAAAAAAAAAAAAAAAAAAAAAAAAAAAAAAAAAAAAAAAAAAAAAAAAAAAAAAAAAAAAAAAAAAAAAAAAAAAAAAAAAAAAAAAAAAAAAAAAAAAAAAAAAAAAAAAAAAAAAAAAAAAAAAAAAAAAAAAAAAAAAAAAAAAAAAAAAAAAAAAAAAAAAAAAAAAAAAAAAAAAAAAAAAAAAAAAAAAAAAAAAAAAAAAAAAAAAAAAAAAAAAAAAAAAAAAAAAAAAAAAAAAAAAAAAAAAAAAAAAAAAAAAAAAAAAAAAAAAAAAAAAAAAAAAAAAAAAAAAAAAAAAAAAAAAAAAAAAAAAAAAAAAAAAAAAAAAAAAAAAAAAAAAAAAAAAAAAAAAAAAAAAAAAAAAAAAAAAAAAAAAAAAAAAAAAAAAAAAAAAAAAAAAAAAAAAAAAAAAAAAAAAAAAAAAAAAAAAAAAAAAAAAAAAAAAAAAAAAAAAAAAAAAAAAAAAAAAAAAAAAAAAAAAAAAAAAAAAAAAAAAAAAAAAAAAAAAAAAAAAAAAAAAAAAAAAAAAAAAAAAAAAAAAAAAAAAAAAAAAAAAAAAAAAAAAAAAAAAAAAAAAAAAAAAAAAAAAAAAAAAAAAAAAAAAAAAAAAAAAAAAAAAAAAAAAAAAAAAAAAAAAAAAAAAAAAAAAAAAAAAAAAAAAAAAAAAAAAAAAAAAAAAAAAAAAAAAAAAAAAAAAAAAAAAAAAAAAAAAAAAAAAAAAAAAAAAAAAAAAAAAAAAAAAAAAAAAAAAAAAAAAAAAAAAAAAAAAAAAAAAAAAAAAAAAAAAAAAAAAAAAAAAAAAAAAAAAAAAAAAAAAAAAAAAAAAAAAAAAAAAAAAAAAAAAAAAAAAAAAAAAAAAAAAAAAAAAAAAAAAAAAAAAAAAAAAAAAAAAAAAAAAAAAAAAAAAAAAAAAAAAAAAAAAAAAAAAAAAAAAAAAAAAAAAAAAAAAAAAAAAAAAAAAAAAAAAAAAAAAAAAAAAAAAAAAAAAAAAAAAAAAAAAAAAAAAAAAAAAAAAAAAAAAAAAAAAAAAAAAAAAAAAAAAAAAAAAAAAAAAAAAAAAAAAAAAAAAAAAAAAAAAAAAAAAAAAAAAAAAAAAAAAAAAAAAAAAAAAAAAAAAAAAAAAAAAAAAAAAAAAAAAAAAAAAAAAAAAAAAAAAAAAAAAAAAAAAAAAAAAAAAAAAAAAAAAAAAAAAAAAAAAAAAAAAAAAAAAAAAAAAAAAAAAAAAAAAAAAAAAAAAAAAAAAAAAAAAAAAAAAAAAAAAAAAAAAAAAAAAAAAAAAAAAAAAAAAAAAAAAAAAAAAAAAAAAAAAAAAAAAAAAAAAAAAAAAAAAAAAAAAAAAAAAAAAAAAAAAAAAAAAAAAAAAAAAAAAAAAAAAAAAAAAAAAAAAAAAAAAAAAAAAAAAAAAAAAAAAAAAAAAAAAAAAAAAAAAAAAAAAAAAAAAAAAAAAAAAAAAAAAAAAAAAAAAAAAAAAAAAAAAAAAAAAAAAAAAAAAAAAAAAAAAAAAAAAAAAAAAAAAAAAAAAAAAAAAAAAAAAAAAAAAAAAAAAAAAAAAAAAAAAAAAAAAAAAAAAAAAAAAAAAAAAAAAAAAAAAAAAAAAAAAAAAAAAAAAAAAAAAAAAAAAAAAAAAAAAAAAAAAAAAAAAAAAAAAAAAAAAAAAAAAAAAAAAAAAAAAAAAAAAAAAAAAAAAAAAAAAAAAAAAAAAAAAAAAAAAAAAAAAAAAAAAAAAAAAAAAAAAAAAAAAAAAAAAAAAAAAAAAAAAAAAAAAAAAAAAAAAAAAAAAAAAAAAAAAAAAAAAAAAAAAAAAAAAAAAAAAAAAAAAAAAAAAAAAAAAAAAAAAAAAAAAAAAAAAAAAAAAAAAAAAAAAAAAAAAAAAAAAAAAAAAAAAAAAAAAAAAAAAAAAAAAAAAAAAAAAAAAAAAAAAAAAAAAAAAAAAAAAAAAAAAAAAAAAAAAAAAAAAAAAAAAAAAAAAAAAAAAAAAAAAAAAAAAAAAAAAAAAAAAAAAAAAAAAAAAAAAAAAAAAAAAAAAAAAAAAAAAAAAAAAAAAAAAAAAAAAAAAAAAAAAAAAAAAAAAAAAAAAAAAAAAAAAAAAAAAAAAAAAAAAAAAAAAAAAAAAAAAAAAAAAAAAAAAAAAAAAAAAAAAAAAAAAAAAAAAAAAAAAAAAAAAAAAAAAAAAAAAAAAAAAAAAAAAAAAAAAAAAAAAAAAAAAAAAAAAAAAAAAAAAAAAAAAAAAAAAAAAAAAAAAAAAAAAAAAAAAAAAAAAAAAAAAAAAAAAAAAAAAAAAAAAAAAAAAAAAAAAAAAAAAAAAAAAAAAAAAAAAAAAAAAAAAAAAAAAAAAAAAAAAAAAAAAAAAAAAAAAAAAAAAAAAAAAAAAAAAAAAAAAAAAAAAAAAAAAAAAAAAAAAAAAAAAAAAAAAAAAAAAAAAAAAAAAAAAAAAAAAAAAAAAAAAAAAAAAAAAAAAAAAAAAAAAAAAAAAAAAAAAAAAAAAAAAAAAAAAAAAAAAAAAAAAAAAAAAAAAAAAAAAAAAAAAAAAAAAAAAAAAAAAAAAAAAAAAAAAAAAAAAAAAAAAAAAAAAAAAAAAAAAAAAAAAAAAAAAAAAAAAAAAAAAAAAAAAAAAAAAAAAAAAAAAAAAAAAAAAAAAAAAAAAAAAAAAAAAAAAAAAAAAAAAAAAAAAAAAAAAAAAAAAAAAAAAAAAAAAAAAABOAGUAaQBsAAAA/+EKXWh0dHA6Ly9ucy5hZG9iZS5jb20veGFwLzEuMC8APD94cGFja2V0IGJlZ2luPSfvu78nIGlkPSdXNU0wTXBDZWhpSHpyZVN6TlRjemtjOWQnPz4NCjx4OnhtcG1ldGEgeG1sbnM6eD0iYWRvYmU6bnM6bWV0YS8iPjxyZGY6UkRGIHhtbG5zOnJkZj0iaHR0cDovL3d3dy53My5vcmcvMTk5OS8wMi8yMi1yZGYtc3ludGF4LW5zIyI+PHJkZjpEZXNjcmlwdGlvbiByZGY6YWJvdXQ9InV1aWQ6ZmFmNWJkZDUtYmEzZC0xMWRhLWFkMzEtZDMzZDc1MTgyZjFiIiB4bWxuczpkYz0iaHR0cDovL3B1cmwub3JnL2RjL2VsZW1lbnRzLzEuMS8iLz48cmRmOkRlc2NyaXB0aW9uIHJkZjphYm91dD0idXVpZDpmYWY1YmRkNS1iYTNkLTExZGEtYWQzMS1kMzNkNzUxODJmMWIiIHhtbG5zOmRjPSJodHRwOi8vcHVybC5vcmcvZGMvZWxlbWVudHMvMS4xLyI+PGRjOmNyZWF0b3I+PHJkZjpTZXEgeG1sbnM6cmRmPSJodHRwOi8vd3d3LnczLm9yZy8xOTk5LzAyLzIyLXJkZi1zeW50YXgtbnMjIj48cmRmOmxpPk5laWw8L3JkZjpsaT48L3JkZjpTZXE+DQoJCQk8L2RjOmNyZWF0b3I+PC9yZGY6RGVzY3JpcHRpb24+PC9yZGY6UkRGPjwveDp4bXBtZXRhPg0KICAgICAgICAgICAgICAgICAgICAgICAgICAgICAgICAgICAgICAgICAgICAgICAgICAgICAgICAgICAgICAgICAgICAgICAgICAgICAgICAgICAgICAgICAgICAgICAgICAgIAogICAgICAgICAgICAgICAgICAgICAgICAgICAgICAgICAgICAgICAgICAgICAgICAgICAgICAgICAgICAgICAgICAgICAgICAgICAgICAgICAgICAgICAgICAgICAgICAgICAgCiAgICAgICAgICAgICAgICAgICAgICAgICAgICAgICAgICAgICAgICAgICAgICAgICAgICAgICAgICAgICAgICAgICAgICAgICAgICAgICAgICAgICAgICAgICAgICAgICAgICAKICAgICAgICAgICAgICAgICAgICAgICAgICAgICAgICAgICAgICAgICAgICAgICAgICAgICAgICAgICAgICAgICAgICAgICAgICAgICAgICAgICAgICAgICAgICAgICAgICAgIAogICAgICAgICAgICAgICAgICAgICAgICAgICAgICAgICAgICAgICAgICAgICAgICAgICAgICAgICAgICAgICAgICAgICAgICAgICAgICAgICAgICAgICAgICAgICAgICAgICAgCiAgICAgICAgICAgICAgICAgICAgICAgICAgICAgICAgICAgICAgICAgICAgICAgICAgICAgICAgICAgICAgICAgICAgICAgICAgICAgICAgICAgICAgICAgICAgICAgICAgICAKICAgICAgICAgICAgICAgICAgICAgICAgICAgICAgICAgICAgICAgICAgICAgICAgICAgICAgICAgICAgICAgICAgICAgICAgICAgICAgICAgICAgICAgICAgICAgICAgICAgIAogICAgICAgICAgICAgICAgICAgICAgICAgICAgICAgICAgICAgICAgICAgICAgICAgICAgICAgICAgICAgICAgICAgICAgICAgICAgICAgICAgICAgICAgICAgICAgICAgICAgCiAgICAgICAgICAgICAgICAgICAgICAgICAgICAgICAgICAgICAgICAgICAgICAgICAgICAgICAgICAgICAgICAgICAgICAgICAgICAgICAgICAgICAgICAgICAgICAgICAgICAKICAgICAgICAgICAgICAgICAgICAgICAgICAgICAgICAgICAgICAgICAgICAgICAgICAgICAgICAgICAgICAgICAgICAgICAgICAgICAgICAgICAgICAgICAgICAgICAgICAgIAogICAgICAgICAgICAgICAgICAgICAgICAgICAgICAgICAgICAgICAgICAgICAgICAgICAgICAgICAgICAgICAgICAgICAgICAgICAgICAgICAgICAgICAgICAgICAgICAgICAgCiAgICAgICAgICAgICAgICAgICAgICAgICAgICAgICAgICAgICAgICAgICAgICAgICAgICAgICAgICAgICAgICAgICAgICAgICAgICAgICAgICAgICAgICAgICAgICAgICAgICAKICAgICAgICAgICAgICAgICAgICAgICAgICAgICAgICAgICAgICAgICAgICAgICAgICAgICAgICAgICAgICAgICAgICAgICAgICAgICAgICAgICAgICAgICAgICAgICAgICAgIAogICAgICAgICAgICAgICAgICAgICAgICAgICAgICAgICAgICAgICAgICAgICAgICAgICAgICAgICAgICAgICAgICAgICAgICAgICAgICAgICAgICAgICAgICAgICAgICAgICAgCiAgICAgICAgICAgICAgICAgICAgICAgICAgICAgICAgICAgICAgICAgICAgICAgICAgICAgICAgICAgICAgICAgICAgICAgICAgICAgICAgICAgICAgICAgICAgICAgICAgICAKICAgICAgICAgICAgICAgICAgICAgICAgICAgICAgICAgICAgICAgICAgICAgICAgICAgICAgICAgICAgICAgICAgICAgICAgICAgICAgICAgICAgICAgICAgICAgICAgICAgIAogICAgICAgICAgICAgICAgICAgICAgICAgICAgICAgICAgICAgICAgICAgICAgICAgICAgICAgICAgICAgICAgICAgICAgICAgICAgICAgICAgICAgICAgICAgICAgICAgICAgCiAgICAgICAgICAgICAgICAgICAgICAgICAgICAgICAgICAgICAgICAgICAgICAgICAgICAgICAgICAgICAgICAgICAgICAgICAgICAgICAgICAgICAgICAgICAgICAgICAgICAKICAgICAgICAgICAgICAgICAgICAgICAgICAgICAgICAgICAgICAgICAgICAgICAgICAgICAgICAgICAgICAgICAgICAgICAgICAgICAgICAgICAgICAgICAgICAgICAgICAgIAogICAgICAgICAgICAgICAgICAgICAgICAgICAgICAgICAgICAgICAgICAgICAgICAgICAgICAgICAgICAgICAgICAgICAgICAgICAgICAgICAgICAgICAgICAgICAgICAgICAgCiAgICAgICAgICAgICAgICAgICAgICAgICAgICA8P3hwYWNrZXQgZW5kPSd3Jz8+/9sAQwAHBQUGBQQHBgUGCAcHCAoRCwoJCQoVDxAMERgVGhkYFRgXGx4nIRsdJR0XGCIuIiUoKSssKxogLzMvKjInKisq/9sAQwEHCAgKCQoUCwsUKhwYHCoqKioqKioqKioqKioqKioqKioqKioqKioqKioqKioqKioqKioqKioqKioqKioqKioq/8AAEQgCUAHsAwEiAAIRAQMRAf/EAB8AAAEFAQEBAQEBAAAAAAAAAAABAgMEBQYHCAkKC//EALUQAAIBAwMCBAMFBQQEAAABfQECAwAEEQUSITFBBhNRYQcicRQygZGhCCNCscEVUtHwJDNicoIJChYXGBkaJSYnKCkqNDU2Nzg5OkNERUZHSElKU1RVVldYWVpjZGVmZ2hpanN0dXZ3eHl6g4SFhoeIiYqSk5SVlpeYmZqio6Slpqeoqaqys7S1tre4ubrCw8TFxsfIycrS09TV1tfY2drh4uPk5ebn6Onq8fLz9PX29/j5+v/EAB8BAAMBAQEBAQEBAQEAAAAAAAABAgMEBQYHCAkKC//EALURAAIBAgQEAwQHBQQEAAECdwABAgMRBAUhMQYSQVEHYXETIjKBCBRCkaGxwQkjM1LwFWJy0QoWJDThJfEXGBkaJicoKSo1Njc4OTpDREVGR0hJSlNUVVZXWFlaY2RlZmdoaWpzdHV2d3h5eoKDhIWGh4iJipKTlJWWl5iZmqKjpKWmp6ipqrKztLW2t7i5usLDxMXGx8jJytLT1NXW19jZ2uLj5OXm5+jp6vLz9PX29/j5+v/aAAwDAQACEQMRAD8A+jKKSiqAKWkzRQAtFJS0AFJRRQAtApKWgApaSigBaKKKACiiigAooooAKKKKACiiigAooooAKKKKACiiigAooooAKKKKACiiigAooooAKKKKACiiigApKWkoAKKKKACiiigApKKKACiiigAooooASiiigAooooAKDRQaAEooopgFJS0lAD6KKKQCUtJXinxb8V+JPCni9P7L1OaG1uLdZEj4KggkHg/SgD2yivmCH42+Mbc/NfRTe0kCn+WK0rf9oXxFFj7TZWM30Vl/rTsB9G0V4HB+0jOv/HzoETe8c5H8xV+L9pPTf+XjQbpf9yZT/OiwHttFc94M8Z6b440Ialpe5NrFJYJCN8Tehx7c10NIApaSigBaKSloAKWkooAWiiigAooooAKKKKACiiigAooooAKKKKACiiigAooooAKKKKACiiigAooooAKKKKACkpaSgAooooAKKSigAooooAKKKKACkoopgFFFFIAooooAKKKKAEooopgFJRRQA+koopAFeO/tCaaZNG0vUkH+plaFz7MMj9RXsVcX8W9O/tL4Z6ooXc9uqzr/AMBPP6ZoA+TpG55qB2qWUZzVaQ1QhjPUZeh2xUW7mgDuPhh49m8DeKo7iRmbT7giO7iHdf7w9x1/OvsC2uYby1iubWRZYZkDxupyGUjINfA5avfvgB8ReB4R1ibg5bT3Y9+pj/qPxFDA9/opKWpGFLSUUALRSUUALRRRQAUUUUAGaM0UUALRSUUALRSUUALRSZozQAtFJmjNAC0UmaKAFopKKAFpKM0ZoAWikpaACiikoAWkoooAKKKSgBaSiigAooooAKSlopgJRS0UgEopaSgAooooAKSlpKYBSUtJQAUUUlAD6KSikAtVtSs01DSruzlGUuIXjP4girIozQB8Q3luba5mgcYaJ2RvqDis6Va+gfFvwGvNV1+81DRdVto4rqVpfIuEYbCTkjIzxmuRuv2fvGKA+VJps/ptuCM/moqroR5C9RmuqfwHqQnlhkurBLiFyktu85V42Bxhsrj9aY/w+10DKLZS/wC5fQ//ABVAHKkmp7S7nsrqO4tZWimiYOjocFSOQRWpP4P123BL6e5A7o6v/ImqEmkajF/rLC5H/bFv8KAPsD4W+PYfHfhSO4kZV1G2Aju4gf4uzgeh6/nXa18V+AvFup+A/FEOpW8MpjPyXNuylfNj7j69x719Ow/F/wAGS6CdUbVBEqgbrd0ImBPbb3/DilYZ3FFedf8AC7PDLaHNq8UN81lDcC3aQxAEuRkYG7piq9r8f/BE04inuLu2Jx80luSvP+6TRYD02iq9jfW2pWUV5YzLNbzLuSRTwwqxmkAUUZozQAUUZooAKKKKACiiigAooooAKKKKAClpKKACiiigAooooAKWkooAWjNJRQAuaKSigAooooAKKKKACiiigAooooAKKSloAKKKSmAUUUUgCiiigBKKKKYBSUUUAFJS0lADqKSikAtFFFABmikooA4Hxh8H9C8Xau2pyzT2d04AdoApDn1II61zTfs/LF/x4+Kr2H0+Q/0cV7JRQB4rJ8D/ABCi7bbxpIw9Jkcj9WNZdx8EfGqZNvrOkTn1kgAJ/Hy69+op3YHzbP8ACL4iw5KwaVc/7jhf/ia5bxbp3izwtpwtfEmkw2sF0QFlRy5JHodzYwfpX13Xmnxg8CXXi+ytZ4rhUhs8l4y+0nJ5I4OT7cUXYHhfEHwT24+a41YNn/dQ/wCNc5rdjFb6Jo93EuJLiN/NbOclXIH04xXp7fD7U7jw/DpX2a5NnFKZUUlQ24jHXFZWq+A7iTT7WxvhNbw2m4Rvt6bjk5OOa0toI1vDfxm1fw5o9rplnpUF5awRL87khsnkjINdFD+0TMuPtfhg+5juf8Vro/g34MvvDWg3i6zBGVupFeEMVclQuAeCeowa7+bQ9JuB+/0uzlz/AH7dD/Ssxnn1l8efDk1uGvbe5tZO6eWz4/ELVj/henhHdjzph/vRMv6kV1MvgXwtNkvoGn5PUrAq/wAqxL34PeEbzdttJbYn/ni4GPzBpAZ5+PHg6N9s8lyme6orj/x1jV+2+NHgS5wP7aEJP/PWF1/pWJP8AdCZyYNSvEHo6o/9BVaT9n7TWPyamMf7Vtn/ANmp6AegWPj3wpqOBZ+IdOkJ6D7Qqn8jW5FcQ3ChoJY5VPQo4YfpXjbfs72Df8xJPwtiP/Z6fD8AI7Zt1rr88DdjCHX+TUgPZaK81sPhr4l0wj7F4+1JFH8MmZB+Tk16LbRyw2sUdxMZ5VQB5SoUuccnA4GaAJaKKKACiiigAooooAKKKKACiiigAooooAKKKKACiiigAooooAKKKKACiiigApKKKACiiigAooopgFFFJQAUUUUAFJS0lABRRSUAFFFFAC0UmaWkAUZopKAFopKWgBaKSigBaKKKACs3VXJeKMHjkkVpVkX7br/H91QKuG4mIRi3A96pX6BoVBGeKuv/AKoCql3zEK6STQ0BydP8sniNsAegrUrzDVPibpPhFri0eVJLxQrPHk/ID04HU+1QaF4z8WeMLVr3R7W3hsw+wTXMuwMfQBQTXM43ZVz1aiuR0HW9ah1aPTvElvAFuQfs9zby71ZwMlDkAg45H0rrqlqwwooopAFFFFAC0ZpKKAFopKKAFooooAKKSloAKKKKACiiigAooooASiiigBaKSigBaKSigBaSiigAooooAKKKKYBRRmikAUlLSUwCiiigAoopKACiiigBKKKKACiiigAooopAIzKilnYKqjJJOABXhHxC/aDNldTaZ4LSOQplX1CUbhn/AGF6H6n8q3v2gPGEugeEItJsZGjudUYq7KcERD735kgfnXyvnfIAT1NAHYz/ABa8czTGRvE18pznCSbR+Q4rf8N/tAeL9Gul/tS4TWLX+KO4UBvwcDOfrmuCt9GjkTM0xUnoFHSoNQ0k2cXmxS+YvfjBFGoj7T8E+OdI8d6KL/SJCHTCz27/AH4W9D7eh710lfFPwr8Yz+DvHVldq5FrO4gukzwyMcZ/Dr+FfaoIIBByDyDQAtLSUUALWHM2++lP+1ituvEPjhqsGhwomnarqy6jPkrBbTlIUHcsR39qqLsw3PWJAdg4rB8VaxHofh+4vpSB5anaD3NfI517xLuyut6kD/19yf41rQ+INbm8MXttq+o3l0szqIhcys4AAYkrn8K0dTQVjNe6uNa115Z5g011PlpJGwMk9Sewru5fEniD4aeVpljrNrcwyxibZCRLGpb6jg15arMp+UGpZGZlBIJP1NQpWCx6joPjLxN4i8XadfSTTXUOn3Mc0qoMLGhYKTgcdDX1ZXwfo2qT6bfwyRGRVLrvCORuXcCRX01oviPxZ4x09tYt5rHS9Od2ECzOzFgDjJ24x9TR8QbHqtLXiE/xfv8Awx4ibS9eMEoXBE9vL5kbg9DnqK9X8OeJbHxLYC5sZATjLJnOKlqwzYooopDCiiigAooooAKKKKACiiigApaSigBaM0lFAC0UlFABRRRQAUUUUAFFFFABRRRQAUUUUwCkpaSkAUUUUAFFFFMAopKKACiiigApKWkoAKKKKACiiigApKTNFID5v/adEg8SaKTny/sbbfrvOf6V4WrEOCDg19afHfwXL4o8Fre6fEZb7S2MgRRkvGR8wH0wD+Br5KZCj80CJ55buFtkpkjYdjlTTXnleMDc+Mc5PWnXV5cX8wkvLiSaQKE3yMWOAMAZPoOKu3Gtmbw7b6SLKzRYHL/aUhxM+SThn7jnpTAy4c+am3Oc8Yr3/Trn43xaPapaxXPkCJRHvSIvtxxksM5+vNec/CTwRceMfG1qhjb7FauJrmTHAUHO36npX2cAAMDgDpSA+c5rz44gncmpD/cij/oKz5r/AONIz5i68P8AciH9BX05S5o1GfJd/wCNfij4cgabU5tUgST5BLeRnCn0GeM/hXFXni/X9Rm8y91W4mOc4dsj8ulfYfjzwdb+NvDx066m8pVbeCc4z74INfPp+Fvl3EkaWUMoRyokM0mGweoFPViPO7jxDfXsaQX1xi3BBxDEiEEdDwBV/R5o7u+NleXonjnUpEWYkh/4evT0/Gu1k+F0+ONKgYeokkqFvhh5TBvsSKRzmOd+KrlbC5zi6JHbZV48EcciiSxQDKqK7iTw9qN8m2C0eWZF5CHczY7j1Nc3PazxymN4cODgq3BB+ho5WBgmx3yBE2qW6M7YUfU1n32oanpySaOdRke0jk3bIpy0LH+8McV1+qeFdRtfB7a9dQuttJcCCMZKk8E7vpxiuIe1kuj8m1AnbNTsIdcWwGkxXwvYJGeQobcOfMTH8RGOh9c13/wb8Z3Gj+IobeSQmFmAKk9jXnn9mylSGkGB29K3PBunzDX7faufmGCO/NNgfbKsHQMvIYZFLUNmpSxgVuqxqD+VTVJQUUUUAFLSUtABRRRQAUUUZoAKKKKACikooAWikooAXNFJRQAtFFJQAtJRRTAKKKKACiiigAooooAKKKKAA0lLSUAFFFFABRRRQAlFLSUAFFFFABRRRQA2ikpaQB161438QvgHY+ILqXUvDEsen3kh3SWzjETn1BH3T+BH0r2SigD5CvPgV46tZ/LXR/PGeHinQg/rW/4b/Zz8RX1zG/iCSHTbbOXG8SSEegC8fma+nqWgDG8LeFNK8H6Qun6NbiJOruR80h9Sa2qSloAKKKKAKeqTGK0wv8ZwfpWNEEHSNR+FaGsvlo0/GqEdbwWhLHT3LpGUQKFx021nGCMR79i5J54q3cVGy/6PWiAghSJJlliiVJFOVZRyDXStpunanHHcXdhbTOyht0kSsR+JFc1Hw1dVppzp8XsMVlUQ0YnjrwyviTwPe6TAirJs324AwA68gf0/GvkxtMubG7dZIirKSrBh0NfbFcZ4l+Gek+Ib5r5D9kuX5kZVyrn1I9ayGfMFvp9xNJuMXLV638KvAj3GqR6jdRbba3IbkfePYCu70v4T6RYzLJdSvc7f4Nu1TXcW9vDaW6w20axRIMKijAFAiWiiikMKKKKACiiigAooooAKKKKACiiigAooooAKKKKACiiigAooooAKKKKYBRRRSAKKKKYgooooGFFFFACUUtJQAUUUUAFFFJQAUUUUAFFFFACUUUUANpaSikAtFJS0AFLSUUALRRRQAtFJS0AYeqvuvcf3QBUCUt2++8kP+1SLXRHYlkU3LUMP3FK45pWH7qtEIojh66fSWzYgehrmW+/XQ6K+YHX0INZ1FoNGnRSUZrnKFooooAKKKKYED39skrRvKA69RjpTobuC4ZlhkDFeo9K5+4SR9WuSEYjd6Va0ZGj1CYMpGU7j3rRwXLcV9TcopKWshhRRRQAUUUUAFFFFABRRRQAUUUUAFFFFMAooooAKKKKACiorm4S1tZZ5M7I1LHAzXkviP4r39vJImnRGJQcAlBn9c0Aev0E4618s6v8AEXxVqDEDU7yMHtFIV/liuWubrV71y11fX0pPXfMx/maaQrn2RLeWsAzNcwxj/bkA/maozeKNAt/9frmmx/713GP618cyWsz/AH97f7z5qE2WzkqB+NOwXR9gt478KIefEWm/hcqf5GmH4g+E+2vWZ/3XzXyAFK8BgKXbKRhZCB9aQH1y/wAR/CUf3tbgH4N/hVaX4r+CYfv67CPpG5/9lr5PFtKR/rf1NNbT5G6yCkB9Vn4x+BB/zH4/+/Mn/wATR/wuPwIemvx/9+ZP/ia+Uf7Lk/vr+VA02YH5ZQPzoGfV/wDwuHwH/wBDDCPrFJ/8TT0+LfgRzx4ltB/vbh/MV8nHS53PzSqfqTSf2PKf4ozQB9dxfEzwVMcJ4n0z/gU4X+daVt4t8OXhAtdf0yUnoEvIyf518YnQ7g/d8s/jTf7BvD0iVvowoA+44p4Z13QyxyA90YMP0p9fFml2mt2EoNsLiPn+B/8AA17d8MvFOvPqMNjqDS3EUh24kY5X35oA9looooAZS0lLSAKWkooAWiiigBaKSigBaRm2oT6DNFQ3j7LOU/7NMDAJ3Sk+pqdAKrIfmqyp4rpRAx+tNf8A1ZpXNMY/IaoCo/3q2tEb5mHqKxW+9WpozYuAPUEVM9ho3qKKK5ShaKSigBaRjhSfalpshxE5/wBk0wOUgL7nYseSe9WbB2GrRZY4JI6+1NhhJHAqa2t5F1CF/LbAbk46V1O3KQdBRS4Jo2muUsKM0bTS7TQAlFLtNG00CEopdpo2mgBKKXaaNpoGJRRtNG00AFFG00uKAEooqOeUwws4XcwHC5xmgRJSVRN7cHHlxQkkZ2mXn6cCkXU1QH7UYYznoJM/zFOzGXZY1lieNxlXUqR7GvK/Ffg8WUjPHEGib7r4/nXqqurqGQhlYZBHeo7i3iu7doZ0Dow5BpAfM+p2RhLcYrmrqYIxB4r1n4gaVHpFw6RJ5gIyD9a8a1KO6mmPk27nn+FSatSJsI04PeoXkDCoV0rWpP8AVWUv/fNP/wCEZ8Sy/csZvwT/AOtVXCxWc4Y0sbc1bXwP4rl6WFx/3wf8Ksp8O/F7DiwmH6VGoWKiMKlDVZ/4Vp4xbpaSD/toB/Wl/wCFX+M/+fZv+/w/xpWfYZWJFGRVn/hV3jQ/8uzf9/x/jSH4Y+NF/wCXSQ/SYf40cr7AQgipFxTG+HXjNP8Alzm/CX/69QP4J8Yw9bS5/BiaOVgacUe6r8NuSRgVzI0PxbbN81veAD/ZJ/pWlptxrlrcKLsOqZ586MD+YpWYHdaNo8t1KoVTyeOOtey+FfDEekwrcXCjzyPlH9z/AOvWT8NbCG40ZdSmRGkJwhXlfqK7ugYZooooAbS0lFIBaKSloAKWkozQAtFJUFzcGHAUAk+tNK4FjFNmgWeMo+dp64qiL6Y+n5U9bqU9x+VaKDJuPGl2y9EP4saetnbj+D9TQkzt1NI8zL0xVWYgawtj/B/48ahawt8YCkfjQ15IOy/lURu5PRfyqkmA1tIt26M4/EVLa6clvKrrIeD0Iqsb6T0FH22TsBTabGbdGR61i/2jP7flQNQm9vyrP2Y7mzuFG6skX8vt+VOGoS/7P5UcgrmrTgOKyxqEvov5Uo1GX0H5UcjC5olQDwAPoKAKz/7Rk7haUai/90UcrA0xS1mf2k/9wU4ak39wUuRjuaNFZ/8AaZ7pS/2oO8dLkkF0X6iupjBbtIoBI9arDU1/uGmTXsU8RR0YA+lCg76iuVv7WuD2X8qjbV7kf3fypRFbf3pB9QKjlgtVz+8k/IVryx7CK8niS8ifGyMj3FdJbSme1jlIALqCQK5drSzd8s0x+gArVh1WK3hWNI3KqMDJpSh2Q7mxSVlHXF/55H86T+3B/wA8f1rPkkO6Nag1kHXD2i/WmnXG7RD86fJILmxSOAy4PIrH/tt/+eS/nSf25J/zyX86fJIRoNaR7wyDaR3BrOutCFyxPnMMn0zR/bUn/PJfzo/tqT/nktUlJCNGCI2lrHCG3CNQoJHWg3DDoBWadYkbrGtN/tNj/wAsl/OhQ7jKPiDS01aZZLjT4ZigwpLZNYi6LDDx9hjj/wCACun/ALRz/wAsh+dIb4N1hU/jVpJC1OfS0jT7saj6LU6Q1qSSwv1gX86gPlk4WPb+NUBWENKYqshKCtIZTMVMMdXClMK0AVDGaYVNXClRstMCi+RVdyauypVWRKQyuTzTo1V2w6qw9CM01hg0+L74pMDuNAVU0pEjUKikgKowBWnWVoBzYH/erVrme4wooopAMpaSikAtFJS0AFLSUUALWPd3cazN5rhD6McVr1XnsLa4ffNGGbHU1SdgMgahaDrcR/8AfVPXVLIdbmP/AL6rD8UahZ2lnc22kRStf7SI5EjBRW989a82s7/x9Dqkc13PFdWik77cQohcY6bguRzWnMxWR7WmsWAH/HzH+dI+rWLdLmP/AL6rxjV9U8eXlxG2kpHp8aj508pZd/4leKhvtR+Is8ubP7PapgDb9lVzn1yRRzMLI9obUbM9LmP/AL6FN+3Wh/5eI/8AvoV4iLz4lDrcWx+tnH/8TUL6j8SogWe5sce9kn9BT52KyPcTc2xPE0f/AH0KT7Rb/wDPeP8A76FeFxeIviAhAM2lsM9PsiiryeKfHItWDW+mvNuG0+SAu3v369KXOx6Hsv2m2/57x/8AfYo+1Wv/AD8R/wDfQrifB+uXt/O0fib7LaDb8rpBkE+nFd2NCeUeZbz27RtypEQPFHOwsRi8tP8An5i/76pwvrMf8vMf/fVXrfRI0jAnETv3ITFSvpFuVwkaKfXaKXtGFjN/tCy/5+Y/zo/tKxH/AC8JWlDpMKKRKkbHPB2jpUv9m2w/5ZJ/3yKPaMLGP/alj/z8LR/atj/z3H5Gtn+z7cf8s0/75FL9gh7Iv/fIo9owsYv9rWP/AD1P/fJo/tiy7Ox/4Aa2/sUX91f++RS/Y07Bf++aXtGFkYP9tWY6eYfpGaaddtR/BMfpGa1dTtxFYO6YBBHQVyE9xIGPzn86pSbFoacviezh+9DOf+2dQnxfaDpa3B/4CK0rqKG2tYHtxtkdBvYHrxXF6v47l0rWJrBdLu7oxBSZI5AAcjNaJ6XYaG83jO3HSyuPxwKgl8YwD5ms5MH/AGxXOH4jOeH0S++m8Gof+FiL5n/IAvMeu5aLhY6VPGNq3W1nH/fJ/rUo8WWWPmhnH/ABXND4kgDjRb76blrX8O+Lf+EgmuI1s7i0aBQx81gc5PtT5gsaieIbORQypNg/9MjUg1qyP/PQfWI1iatczpqjbXYDaO9RJezheJWqHJgdGNXsT/y1I+qGl/tWxP8Ay3X8Qa4i+8Q6rb3ohhmGzGeUBq5aapfT4Ms5P0UCjmYaHV/2lYn/AJeYx+NL9vsT/wAvUX/fVYLXN0cbCzfhSefe/wBz81FHMw0Og+22Z/5eof8AvsUv2q1PS5i/77Fc+Jbw/wDLNPxRacHuz1ih/FFo5pBodAJ7c9J4/wDvsU4SRHpKn/fQrnv9JPWK3/74FG2Y9Yrb/vgU+aQWR0W5D0dfzpfl/vD865zy5D1jt/8Avil8lu6w/wDfB/xo5pBodEQp7j86TAz2/OuOnvHt7xoTbxMAAdwyP61Yik85ceSqk+jN/jRzsNDruPUfnTTt/vD86x4NOHkrv3Mcc8mpRp0X9z9aLsDQJX+8v50wlf7y/nVE6fD/AM8gaQ2EP/PFaeoy6Sv95fzpjbT/ABL+YqmbKAf8sV/KozZwj/lkv5UXYFl0z0wfxqu8DnoufpUTWsI/5Zr+VQtBEP8Almv5UagSNazH/lmx/CmLBMrjMTj/AIDTPKj/ALgH0qxbxrvGCw+jGk2wOs8PZ+xuCMEEVr1BZRrHZxbRglRk+vFT1gMKKKKQDBRSUtIAooooAWiiigAqhqMsxUwxLIARyyrnNX6OnWmBx82kwqGln8xFHLMwwBVaL+xnkCR6hAznoqyrk/rTPHWt3k8J07Sx+6YfvpAeW9h7V5rJZXiH54H/AAGa1UmI9WNtpyLue6VV9SwFN26T/wA/8X/fwf415KxkUbXRwB0BB4pPMp8zEetONLj+9fRLn1kApmzTXHyXsLf8DBryvzC3q1OEEsvAhYj/AHafMwPRbvRrOUbk8s+4xWLPpcMTfJJGv/AhiuY/s+6VOIyq+mahFs27DLg+4qWxnYW1k2fkCt7qc12fhy/lto/s9wCY/wCE/wB2uC8J38mi6gJPLWWJ/lkRh1HqPevYbdoJoVlgC7WGRgVDAmHI4oooqBhS0lFAC0UUUAGcdaTNDAMMHkGuS+JPxCg+HWiQXsto1208vlRxK23Jxnk9qYjpNQjaexkjjGWPQVzA0C7ZyZYT9Nwry5v2pW/h8L/nef8A2NIP2pJCf+RWX/wM/wDsaadgPXZLG/c4aElQOPmFWrHw/aGNpruHFxIfmJ546CvGD+1HL28ML/4Gf/Y03/hqSbt4XX/wMP8A8TV+0Yj3I6Dp39ym/wBgWGf9WK8OP7Us/wD0K6f+Bh/+JpP+Gpbj/oV4/wDwMP8A8TS9owse5/8ACPacf4KoX2hx2sqPp0BZpBhyvt0rxv8A4alue3haP/wMP/xNJ/w1Jdf9CtF/4Fn/AOJo9owPUrjR7ySUn7KxBHtVWXw7eHlLWRT6Yrzb/hqS77eFof8AwLP/AMTR/wANSXf/AEK8P/gWf/iaHO4z1ODwNb3kKzXTtFKeqEdKuR+CoIh+7nX8UP8AjXkI/ajut3zeF4cd8XR/+Jr32xul1TRre8C7BNEsoUHpkA1O4XMgeF5Avy3EX/fs/wCNIPDE/eeE/wDAD/jXR0tF2M5o+GJu00P/AHy3+NIfDFx/z1h/Jv8AGumoouwOY/4Ri4/56wfk1PXwu/8AHNH+ANdJRmndgctfaGljAJC3mZOMDiseRgvSH/x//wCtXY6yM2Q9mrkpxyaabEZU0IknMjKBmrdlBmQEjgdKa4ycCtG0i2qKtAXo1+UU4rSoOKWrERlaYVqU0w0wImWomWp2qJqAK7rVZ1q24qvIKAKrDmp7YfvBUTVPaj94PrUvYZ3kAxbxj/ZH8qfTYxiNR7CnVzjCiiigCOlpKWkAUUUUALRSUtABUF5A9zAY45PLz1OOoqeobqZoYSURmY8DAzimB5/4vuNO8NhPtLm5uZORDHwQPUntXJf8J3pyHnSpj/20Fd3quk208zXd9uQscF5Rgfmazv7J0w/cmtT/AMCU1qr9xHLf8J9o5H7zSJv++lNRnxt4db72kT/gF/xrrTo1p2+yN+Apn9iWp/5YWx/4CKqz7gcqPGnh0dNMuh9Av+NPHjbQf4dNu/8Ax3/Guo/sO0729qP+AipF0WxA+ZbVfwFOzA5YeNNFPTS7o/iv+NRSeKdFm/5hd0D65H+NdedJ0wfee2H/AAICq02k6U4wZbf8JBSa8wMnRNS0rUNQjtwslpvOFeb7uewOK9V0yxubIBZJUaPHRc15vD4dszOPskiyHrtQhj+leiaLcyGBLeVJPlXAZh6VkwNeiiioGFFFFABRRS0wAfeH1rwT9qK6ItdBts8GSaQj6BRXvaj94tfNf7T93v8AFGj2uf8AV2rvj6tj+lHQR4fnp+FIvX/PtR+PelGPX/OakBc0maBjj/PpQOvFACHkf596D/X/ABo/h/ClP+f1oATv+FKOfz/wo/i/z60D+v8AhQIT+H8KD/n9aT+D8KU/1/xoGB7/AOfWvu3we/m+AtJf+9YxH/xwV8JHr/n1r7k+H7+Z8M9Db10+L/0AVSA6EUtIPuj6UUDFopKKACiiigCnqgzYt9RXI3PU12GpDNi/4VyFyOTVIRWhTdJk1pwrgVUhTFXoxgCtUBMo4pJZY4YmlmdY40GWZjgAepNOWs3xHLp8Hh29l1qFprFIyZo1QuSPYDn8e1UIot4oDSiWCwuJtPwS10o5I/vLH95lHqB9M1rW9zDeW6T2sqTRSDKuhyCK8WPjrw09o2orczI8b4EU25r3jG3ZJnAGN3cDnkGvT/CNzpl74Tiu/D8c0cE4aT98p8wuepJPU579KSaYG4ajauDjTxj50KzpeiNYpgXDrl3x8jMA/HPbkfSo1j8cIu25Ms0oWRA0bKqH92Nr/eznP8OCM9xTuB3T1XkrkRH4sGmukUdyLt44xG80yhEwcvkbmO44xnng1q6BbarDFczaxcM7zSs0cJOfJXJwM5PbHTii4Gi1WLIZmX61XardgMzp/vClLYZ3I4UfSloornGFFFFAEdLikpaQBRRRQAtFJS0AFNdxGhZugp1RzQJcIFkzjOeDimB574x0jUfEt4odpUtox+7jUjA9z71y3/CtpD1klH4Cup8ea/eeHrqCDQrc3UjITICpfac+o6Vy0XjjxZszJpcJPoIn4/WtFyi1Gt8NJP8An5kH/AB/jUZ+G0o/5fJP++B/jVk+O/FPfSI/+/T/AONNPjzxP/0B4/8Av0/+NV7oEH/CtpD/AMvsn/fH/wBepU+Gzd7mQ/8AARTh468Uf9AaP/v0/wDjTl8a+K26aTEPrG//AMVR7oAPhzjrI5pf+EDWPrvP/AqX/hLfFjf8uNuv1Q//ABVZ154r8cRzjybS1kiPpHyP/HqegGvYeHLnS7+K5095I5Y2yGBr1vT737XbqXwJcfMB6149o3ibXJriMavZmOMsN5SLt+dev2NrZoqzWnIYcHcTWUrAXqKKKgYUUUUwCiiigB0fMgr5S/aRuPO+KCRZz5NjGPzLH+tfV0X3/wAK+Pfjxc/afjBqmDkRJFH+SLQxHnJUD/P1o2gH/PrS0o5P+fepAbtGf8+1AUU70/z6Ug4P+fagBu0Yz7UbB6/55o/h/ClP+f1oATYM4pAoPrTs8j/PegdKAG7ePwpdozSkcH/PrS9/x/rQA3aK+3/hg/mfCnQCf+gfGP8Ax2viL0/z6V9r/CVt/wAI9AP/AE5qPyyKpAdav3R9KWmp9wfSnUDCiiigAooooArX4zYyfSuSmXMldfejNnL/ALtcpIvzmqiIZGuMVaSoEHNWErZASilIDAgjIPUGkFLTEcZcfCvwpceIxrElgN+dxtwcQs394r/Tp7V1iokUapGoRFGAqjAAqU0w0WSAjao2qQ1E1MCF6rvVh6ryUAQNV3TRm6j/AN4fzqk1aGlDN3F/vj+dTLYaO1ooornGFFFFAEdLSUtIAooooAKWkpaACo5lkaMrEQCe5qSo7jzPKIhHzHvnpTA4PxZrWieG7uNNVgaeaRd2IBuIHvkisZPHvhcqD/Z94ue3lL/8VXX3fhOK8uGmuImZ2PJODUH/AAhNn3t/zQGtU/MRzX/Cf+Fh/wAuV2P+2Q/+Kpp8f+F/+fS7/wC/I/xrqP8AhCLDvbL/AN+RTT4I0/8A59F/78j/AAp38wOY/wCFg+GB0tLz/vyv/wAVS/8ACwfDnawvD/2yX/4qunHgmwHS0X/v0KkXwdZjpa/+QxRfzA5M+PtCb7mmXh/7Zr/jWfefEPSoZQg0G/kDDIYIuP513v8AwiFt2tj+QFNPhCPPy25H/AhRfzA4rT/GOnXdwi/2Vc24YjLOvT8hXqumWwjjWWG5EsTjI2jg1gp4QIbIRV+rVvabYTWQCmRdmPuiok79QNGiiisxhRRRQAUUUtMBqzJG7B2A+XPNeHeL/gUvirxbqGt/8JVBAbyXeIjb7tg44zvGelez3sUrYaEZJGCPWqH2Ob/n1T/v2tPQR4U37NMn8Hi60P1tf/s6af2aLoD5fFVkfrbn/wCKr3f7LOP+XVP+/a1DJ8rFXgiyOoMY/wAKLILHhDfs16p/yz8S6cfrEw/rULfs2a6Pu69pbH33j+le8lYj1t4P+/S/4U0i3B+a3t/+/S/4UcoHgL/s3eJguE1fSG+skg/9lqF/2cfF38OoaO3/AG3kH/slfQJ+yd7e1/79L/hSEWJ621p/36X/AAo5QPnpv2dPGYIxcaQ30uX/APiKYf2d/G6j5TpbfS6b/wCIr6HxY/8APtZ/9+lpQtkelraf9+1p8qA+c2/Z88dDOItPP0u/r/s0w/AHx2D/AMelmfpdj/Cvo/yrL/n0tf8Av2tOW3tHYBLK2J7BYhS5UB82H4DePF/5h1ufpdJX0r8NtLu9A+HOl6XqqLFd2sJSRAwYA5PcexoOmQHrpkX/AH6qxZwvaqYbS1EKueQqY/GnoFjdT/Vr9KdSKu1QPQUtSMKKWkoAKKKKAIroZtZP901y0g+aurmUtC4HJKmuZmhcMflP5VUdxECiplqMIwPINSKK1QEgp1NFKTiqEIaYaeTUZoAY1RNUpqNqYED1XerLgntUDox/hP5UgKx61p6MM30X+8KoeRITwh/KtbRbaUX0ZZDgHJOKiT0GdXRS0lYjCijFFADKKKKQBRS0UAFFFFAC0UUUAFFLRQAUUUUAFFFFABS0UUAFFFFABRRRigAopaKACiiigAooooAKQqp6gH8KXFGKYDfLT+6v5VyWvnZqL7SR04BxXYVzOsQI+oOWGacdwMAysP42/M1E0zZ++3/fRq5cwqo+UYqgy/NWghrTP/ff/vo1peHyZNViDszDPRjkVUjUela2iIo1OIgAHPahrQDrvIi/55J/3yKURRqcqig+wp9FZDCiiigAoooxQAUUUUAFFFFABSFVPVQfqKWigCMwRHrGv5Uw2kB6wp+VT0UAV/sVt/zxX8qT7BbH/litWaKYFb+z7b/nitJ/Z9r/AM8Vq1RQBV/s+1/54rR/Z9r/AM8VqzRSAr/YbX/ngn5Uv2O3HSFP++anooAiEEQ6RIP+AinhQOgA+gp1FACUUtJigAooxRQBHS4oopAFFFLQAlLRS0AJS0UUAFFFFABRS0UAFFFFABRS0UAJS0UUAFFFFABRRS0wEopaKACiiikAUUUuKAErndX/AOP566PFc5q4/wBOerjuBlTjKmsxlw1azjIqhMmHrQQxBitXQ+dSi/3qywMVp6H/AMhKL/eoewHZUUtFYjCiiigAooopAFFFFABRRRQAYpKWimAlFLRigBKKWigBKKWigBKKWigBKKKKAExRS0UAJRS0UAJSUuKMUAR0UtFIAopaKACiiigAoopaACiiigAoopaACiiigAoopaACiiigAooooAKKWigBKKWigBKWiigAooooAK57Vh/pz10Vc9qv/H89XDcDOIqrOmauGoZFzWxJQIxWjof/ACEov96qMgw1XtE/5CUP+9SlsM7OilornGJRS0UAJRS4oxQAUlLRQAlLiiigAxSUtFABikpaKACiiigApKWimAlFFFABRRRQAUUUUAJRS0UAJRRRigCOlpKWkAUUUUAFLSCloAKKKKACiiloAKKKKACiiloAKKKKACiilxQAlLRRQAUUUUAFFFFABRRS0AFFFFABXP6r/wAfz10Fc/qv/H69XDcChUbjipajetxFKYc1c0T/AJCUX+9VWYdataL/AMhKL/eqZbAdnRS0lc4wooooAKKKKACiiigAooooAKKKKACiiigAooooAKKKKACiiigAooooASilpKYBRRRQAUUUUAR0UUUgCijFLQAUUUUAFLSUtABRRRQAUUUUAFLRRQAUUUUAFLRRQAUUUUAFFFFABRRRQAtFGaTNAC0UlGaAFrn9V/4/XrfzWDqv/H69XDcChUb1KaietxFaWrOi/wDISi/3qrSVZ0X/AJCUX+9Uy2A7KiiiucYUUUUAFFFFABRRRmgAooooAKKKKACiiigAooooAKKKKACiiigAooooAKSlopgJRRRQAUUUUAR0UtFIAooooAKKWigAooooAKKMUtABiiiigAoopaAEopaKACiiigAooooAKKSigBc0maKKACiiigAooooAKwdU/wCP163qwtU/4/Xq4bgUTUT1KaietxFaWrOjf8hKL/eqvJVjR/8AkJQ/71TLYDsqKKK5xhRRRQAUUUUAFFFFACUtFFAC0UUUAJRS0UAJRS0lABRS0UAJRRRQAUUUUAFFFFMBKKWkoAKKKKAGUUYopAFLRRQAUUUuKAEpaKKACiilxQAlFLRQAUUUUAFFFFABRmikoAKKKKACiiigAooooAKKKKACilxRQACsHVP+Pxq3qwtU/wCP1vwq47gUDUT1KaiethFaQ1Z0b/kJxf71Vpas6N/yEov96lLYDsqKWiucYYooooASilpKACiiigApaKKACiiigAooNJQAUtJS0AFFFFABRRRQAUlLiigBKKKKACjFFFABSUtJimA2iilpAJiloooAKKKWgBMUtFFABRRRQAUUUtACUUtJQAUUUUAFFFFACUYpaKADFFFFABRiiigAooooAKKXFGKAErC1T/j8b8K3awtV/wCPxvwq47gUTUT1KelRPWwirLVrRv8AkJRf71VpKs6P/wAhKH/eqZbAdlRRRWAwooooAKKKKACiiigApaKWgBKSnUlACUYpaSgAooooAKKKKACilpKACiiigAooooASiloxQAlFLSUANooooAKKKKAFopKWgAooooAKWkooAWikooAWjNJRQAUUUUAFFFLQAlFLRQAlFLRQAYooooAKKKKACiiigArC1X/j8b8K3awtV/4/W/CrjuBQNRPUx6VC9bCKslWtG/5CUX+9VWWrWj/8hKH/AHhUy2A7KlpKWsBhRRRQAUlLRQAlLRRQAUtJRQAtJRmigApKKKACiiigApaKKACiiigApKWkoAKKKKACiiigAooooAjpaKKACiiigApaSloAKKKKACiiigAooooAKKWigBKWiigAooooAKKKKACiiigAoopaAEopaBQAlLRRQAVhar/x+N9BW7WFqn/H434VcdwKB6VC9TNUL1sIrSVZ0f8A5CUP+8KrS1Z0f/kJQ/7wqZbDOypaSisAFooooAKKKKACiiloASkp1JQAlFFFABRRRQAUUUUALRSUUAFFFFABRRRQAUUUUAFFFBoASiiigBtFFFABS0UUAFFFFABRRRQAUUtFIAooopgFFFFABRS0YoASilooAKMUUUAFGKKKACiiigAooooAKKKKACsPVP8Aj8b8K3Kw9V/4/G+gq47gUDUL1K1RPWwirLVnR/8AkJQ/71Vpas6P/wAhKL/eqZbDOyooorABaKKKAFopKWgAooooASilpKACkpaMUAJRS0lABRRRQAtFJRQAUUUUAFFFFABRRRmgApKKKACiijNACUUUUgCiiigApaKKACiiigAoopaAEpcUUUwCiilxQAUYopaQCYopaKAEopaKAEopaKAEopaSmAlFLRQAlFLRQAlYeq/8fh+grdrC1X/j8P0FVHcCgahepjUL1uIrSVZ0f/kJRf71VpKs6P8A8hKL/eqZbAdjRRRWAxaKKKAClpKWgAooooAKKKKACiiigApMUtFACYopaKAG0UtFACUUUUAFFFFACUUUUAFFFFABRRRQAlLSUUgFooooAKKKKACiiigApaSigBaKM0ZoAKXNJRQAtLTaWgBaKSigBaKKKACiiigAooooAKSlooASjFLRQAlYWq/8fh+grerB1b/j8b6CrhuBQPSoXqY1E9biKslWdH/5CUP+9VeSrGkH/iZw/wC8KmWwzssUUtFc4BRRRQAUUUUAFFFFABRRRQAUUUUAFFFFMAoopKACiikoAKKKSgBaSiigAoozRmgAopKKAFzRSUUAFFFFIApaSigBaKSigBaKSigBaKSigBaKSigBaWkzRmgBc0UmaKYC0tNzRmgB2aM0maM0ALmikooAdRTaXNAC0UmaM0gFopM0ZoAWsHVv+Pw/QVu1g6sf9NP0FXDcCiaiepTUT1uIrSVPpH/IUh/3hUElTaR/yFIf94VMthna0UUVzgFFFFABRRRQAUUUlAC0UlGaYC0UmaM0ALSZpM0maAHUmaTNJmgB2aSkzSZoAdmjNNzRmgBaKTNJmgB2aM03NGaAFzRTc0ZoAdRTc0ZoAkooopAFFFJQAUUUUwCiiigAooooAKKM0maAFopM0UALmkzSZooAXNLmmZozQA/NGaZmjNAEmaM0zNGaAH5ozTc0132LnrTAkzS5qlPqCW6hnRyD/cUmlivllTcqMB/tDBp8rAuZozVb7UP7v60fah/dP50crAs5rA1c/wCnH6CtY3YH8J/OsHU7gS3zY4wBxVRi7iuR1E9PB4pjmtQKstTaUf8AiZw/74qCY0ljdR299E7nowwPWlLYDvM0ZqKGZZ4lkTofWn5rnGOzRmm5ozQA7NGabmjNADs0ZpuaTdQA/NJmmbqbuoAk3Um6mbqTNMCTNJmmZozQA7dRmm5ozQA7NGaZmjdQA7NGaZmjdQA/NGaZuo3UAOzRmm5ozQA7NGabmlzQAuaM0maM0AT0UUUgEooooAKKKKACkpaSgAooooAKKKSgBaSiigAoopM0AFIaWkNACUUUUAGaM0lFADs1DOGcgJ6ZqTNUr2YxyDaccVcNxPYd5U3qKb5U3tVU3cn980hu5P75ro1JLRjmHpTCJRVf7XJ/eppun/vUAWT5g61nXMYeXE6ZP8Lg4NTm5c96jkkMi89ulAys8HynZPIv1AOKqm0uC3/IQfHp5a1dc/LWRLrUMcwQsu4n7m7DbckbsdxwaTaW4yxLaDAElxI30AFQJFBbyh4o8uOjudxFW5WyoPtVNz81AHY6K5bTVJOTuNaGaytAbdpo9mNaea53uMdmjNNzSFqQD80hamFqbmgB5akzTc0ZoAdmkzSUoFABmjFLiigAooooAKSiigBKDRRQAlJS0mKACjNGKMUALRSUUDFpc02loELmikooAtUUUUgCkpaKAEooooAKSlooASijr0ooASilpMUAFFFFACUUYoxQAmaKXFJigApKXFFACYoxRmjNACYrK1NsXAH+zWtmsTVX/wBK47DFaQ3EyruNJvqIvTfMroETbzSbqh8yk30AT76TdUPmYpPMoAlLfKRWLLosH9pfa0iQTFShk/iK+lanmU0sDUuKe47jZflVR6CqUj81YuJMD8KzJZfm607COm0S6kS1dUbA3Vpfa5v+ehrA0GTdDIP9oVtLEx68Vm0rjIV1DUze+WYFFv8A89fNGf8AvnFXGmuDGdkmGxwSKFjxTgtLlQFBZtZFztLI0efv5HT6YrVhmcqBNgt6gVFijpg+hocVYLlwc04Cmq2adWQxaWkooAWjNJRQAuaM0lFABRRRQAUlLRQAlJTqMUANxRTsUYoAbijFOxRigBuKXFLilxQA2lxS4oxQBYpKdRikAlFLRQA2ilxS4oAbRilxRigBMUmKdijFADcUYp2KMUANxRinYoxQAzFGKdijFADcUYp2KSgBuKQin4pMUAMxSU/FIRQAzOBWJqUBluN3mKgPrWxO/lxEn6VmzW0d8cOxQkY8xDggVrT7iZl/YXbpOh+lIdPk/wCey/ka2YNKhgGPtDyH1dgcVKbOP/np/KtuZEnOiyZzhbmNj6A07+z5f+eq/ka2Y9JtIGLxLGjHqVUCpPsSH/lpT5gMD7BL/wA9V/I0hsJf+ei/ka3jZJ/z0ppsk/56UXAwvsMv/PRaQ2Mv/PRf1rd+xJ/z0pPsKf8APSi4znZNNlkxmVR+FNj0OLdmaRn9ugro/sK/36PsS/36LiINOto4IdsaBRnsKvAUkcQjGA2afx6ipAjMkattaRA3oWGakxUL2drJMJZIYmkHRiozU24eopDGNJGpwzqD7mlyGXKkEeoNVLnTIJjuWR4iMk+WwGfrUSSC1XanHGCx6tSGasb5xmrFUrWTzYw46GroHFYjFooxS4pAJRS4oxQAlFOxRigBMUYpcUuKAG4pcUuKMUAJijFOxRigBuKMU7FLigBuKMU7FFADcUYpcUYoATFGKXFFAE1LRRUgJS0UUAFJS0UAJRS0UAJRS0UAIaMUtFACYoxS0UwExRilooAbRilooAbRilooAbikIp1JQBU1DizP1FYxbjrXQTxLNEUfp7VnSaUT9yTj3FaRkktRGZuPrRuPqavf2S//AD1H5Un9kyf89V/KtOZAUdx9TSbj61d/smX/AJ6L+RpDpM3/AD0T8jRzICluPqaN59auHSZv76frSHSZ/wC+n60cyAp7z6mjefU1b/sqf++n60f2TP8A30/WjmQFPefU0bz6mrf9kz/30/Wj+yZ/76frRzILFTefU0bz6mrg0mX/AJ6L+Rpf7Ik/56L+VHMgsUtx9TSbz6mr39kSf89V/Kj+yJP+eo/75o5kBR3n1NV5jmtb+yH/AOeo/wC+aBoe4/vJTj/ZFJyQE2lndZpj3rUUfKKitbaO2hEcYwBU+Kx6jExS4paMUAJijFLijFABijFLijFACYoxTsUUAJRS0YoATFGKdijFIBMUYpcUuKAExSYp2KMUANxRilooATFFLRQBJRRRSAKKKKACiiigAooooAKKKKACiiigAooooAKKKKACiiimAlJS0UAJSYp1JQAmKbin0lMBmKMU40YoAZikxT8UmKAGbaTbUmKTFMCPbRtp+KMUAM20bafijFADdtG2nYooAbto20+ikA3bRtp1GKAEApcUtGKACilooAMUUUuKQCUUtFABRRRQAUUUtABRRRQAUUUUAFFFFABRRRQAlFLmkoA//9k=;" vertex="1" parent="dws5M60ZwzQ7IvA7W7Ju-5">
          <mxGeometry x="26.87" y="70" width="132.92" height="160" as="geometry" />
        </mxCell>
        <mxCell id="dws5M60ZwzQ7IvA7W7Ju-8" value="Sensors" style="text;html=1;strokeColor=none;fillColor=none;align=center;verticalAlign=middle;whiteSpace=wrap;rounded=0;fontSize=18;fontStyle=1" vertex="1" parent="dws5M60ZwzQ7IvA7W7Ju-5">
          <mxGeometry x="63.33" width="60" height="30" as="geometry" />
        </mxCell>
        <mxCell id="dws5M60ZwzQ7IvA7W7Ju-24" style="edgeStyle=orthogonalEdgeStyle;rounded=0;orthogonalLoop=1;jettySize=auto;html=1;entryX=0;entryY=0.25;entryDx=0;entryDy=0;startArrow=classic;startFill=1;exitX=1;exitY=0.5;exitDx=0;exitDy=0;" edge="1" parent="1" source="dws5M60ZwzQ7IvA7W7Ju-51" target="dws5M60ZwzQ7IvA7W7Ju-29">
          <mxGeometry relative="1" as="geometry">
            <mxPoint x="1152" y="-849" as="sourcePoint" />
          </mxGeometry>
        </mxCell>
        <mxCell id="dws5M60ZwzQ7IvA7W7Ju-25" value="API calls" style="edgeLabel;html=1;align=center;verticalAlign=middle;resizable=0;points=[];" vertex="1" connectable="0" parent="dws5M60ZwzQ7IvA7W7Ju-24">
          <mxGeometry x="0.1528" relative="1" as="geometry">
            <mxPoint as="offset" />
          </mxGeometry>
        </mxCell>
        <mxCell id="dws5M60ZwzQ7IvA7W7Ju-29" value="" style="strokeColor=#dddddd;shadow=1;strokeWidth=1;rounded=1;absoluteArcSize=1;arcSize=2;" vertex="1" parent="1">
          <mxGeometry x="1262" y="-682" width="200" height="60" as="geometry" />
        </mxCell>
        <mxCell id="dws5M60ZwzQ7IvA7W7Ju-30" value="&lt;font color=&quot;#000000&quot;&gt;Kester Home Weather Site&lt;/font&gt;&lt;br&gt;Firebase" style="sketch=0;dashed=0;connectable=0;html=1;fillColor=#5184F3;strokeColor=none;shape=mxgraph.gcp2.firebase;part=1;labelPosition=right;verticalLabelPosition=middle;align=left;verticalAlign=middle;spacingLeft=5;fontColor=#999999;fontSize=12;" vertex="1" parent="dws5M60ZwzQ7IvA7W7Ju-29">
          <mxGeometry width="32.4" height="45" relative="1" as="geometry">
            <mxPoint x="5" y="7" as="offset" />
          </mxGeometry>
        </mxCell>
        <mxCell id="dws5M60ZwzQ7IvA7W7Ju-31" value="" style="strokeColor=#dddddd;shadow=1;strokeWidth=1;rounded=1;absoluteArcSize=1;arcSize=2;" vertex="1" parent="1">
          <mxGeometry x="482" y="-599" width="240" height="60" as="geometry" />
        </mxCell>
        <mxCell id="dws5M60ZwzQ7IvA7W7Ju-32" value="&lt;font color=&quot;#000000&quot;&gt;Dataset: weather_measures&lt;br&gt;Table: measures&lt;/font&gt;&lt;br&gt;BigQuery" style="editableCssRules=.*;html=1;fontColor=#999999;shape=image;verticalLabelPosition=middle;verticalAlign=middle;labelPosition=right;align=left;spacingLeft=20;part=1;points=[];imageAspect=0;image=data:image/svg+xml,PHN2ZyB4bWxucz0iaHR0cDovL3d3dy53My5vcmcvMjAwMC9zdmciIHhtbG5zOnY9Imh0dHBzOi8vdmVjdGEuaW8vbmFubyIgd2lkdGg9IjIwLjAwMTA0NTIyNzA1MDc4IiBoZWlnaHQ9IjIwLjAwMTA0NTIyNzA1MDc4IiBmaWxsLXJ1bGU9ImV2ZW5vZGQiIHZpZXdCb3g9IjAgMCAyMC4wMDEwNDUyMjcwNTA3OCAyMC4wMDEwNDUyMjcwNTA3OCI+JiN4YTsJPHN0eWxlIHR5cGU9InRleHQvY3NzIj4mI3hhOwkuc3Qwe2ZpbGw6I2FlY2JmYTt9JiN4YTsJLnN0MXtmaWxsOiM2NjlkZjY7fSYjeGE7CS5zdDJ7ZmlsbDojNDI4NWY0O30mI3hhOwk8L3N0eWxlPiYjeGE7CTxwYXRoIGNsYXNzPSJzdDAiIGQ9Ik00LjczIDguODN2Mi42M2E0LjkxIDQuOTEgMCAwIDAgMS43MSAxLjc0VjguODN6Ii8+JiN4YTsJPHBhdGggY2xhc3M9InN0MSIgZD0iTTcuODkgNi40MXY3LjUzQTcuNjIgNy42MiAwIDAgMCA5IDE0YTggOCAwIDAgMCAxIDBWNi40MXoiLz4mI3hhOwk8cGF0aCBjbGFzcz0ic3QwIiBkPSJNMTEuNjQgOS44NnYzLjI5YTUgNSAwIDAgMCAxLjctMS44MlY5Ljg2eiIvPiYjeGE7CTxwYXRoIGNsYXNzPSJzdDIiIGQ9Ik0xNS43NCAxNC4zMmwtMS40MiAxLjQyYS40Mi40MiAwIDAgMCAwIC42bDMuNTQgMy41NGEuNDIuNDIgMCAwIDAgLjU5IDBsMS40My0xLjQzYS40Mi40MiAwIDAgMCAwLS41OWwtMy41NC0zLjU0YS40Mi40MiAwIDAgMC0uNiAwIi8+JiN4YTsJPHBhdGggY2xhc3M9InN0MSIgZD0iTTkgMGE5IDkgMCAxIDAgMCAxOEE5IDkgMCAxIDAgOSAwbTAgMTUuNjlhNi42OCA2LjY4IDAgMCAxIC4wMDctMTMuMzYgNi42OCA2LjY4IDAgMCAxIDQuNzI3IDExLjQwM0E2LjY4IDYuNjggMCAwIDEgOSAxNS42OSIvPiYjeGE7PC9zdmc+;" vertex="1" parent="dws5M60ZwzQ7IvA7W7Ju-31">
          <mxGeometry width="30" height="30" relative="1" as="geometry">
            <mxPoint x="15" y="15" as="offset" />
          </mxGeometry>
        </mxCell>
        <mxCell id="dws5M60ZwzQ7IvA7W7Ju-44" style="edgeStyle=orthogonalEdgeStyle;rounded=0;orthogonalLoop=1;jettySize=auto;html=1;exitX=0;exitY=0.5;exitDx=0;exitDy=0;entryX=1;entryY=0.25;entryDx=0;entryDy=0;" edge="1" parent="1" source="dws5M60ZwzQ7IvA7W7Ju-51" target="dws5M60ZwzQ7IvA7W7Ju-31">
          <mxGeometry relative="1" as="geometry" />
        </mxCell>
        <mxCell id="dws5M60ZwzQ7IvA7W7Ju-45" value="Query" style="edgeLabel;html=1;align=center;verticalAlign=middle;resizable=0;points=[];" vertex="1" connectable="0" parent="dws5M60ZwzQ7IvA7W7Ju-44">
          <mxGeometry x="-0.0564" y="-1" relative="1" as="geometry">
            <mxPoint as="offset" />
          </mxGeometry>
        </mxCell>
        <mxCell id="dws5M60ZwzQ7IvA7W7Ju-50" value="" style="group" vertex="1" connectable="0" parent="1">
          <mxGeometry x="862" y="-719" width="293" height="100" as="geometry" />
        </mxCell>
        <mxCell id="dws5M60ZwzQ7IvA7W7Ju-51" value="" style="strokeColor=#dddddd;shadow=1;strokeWidth=1;rounded=1;absoluteArcSize=1;arcSize=2;" vertex="1" parent="dws5M60ZwzQ7IvA7W7Ju-50">
          <mxGeometry width="220" height="60" as="geometry" />
        </mxCell>
        <mxCell id="dws5M60ZwzQ7IvA7W7Ju-52" value="&lt;font color=&quot;#000000&quot;&gt;https_measure_7day_asis&lt;br&gt;Trigger: HTTPS (API)&lt;/font&gt;&lt;br&gt;Cloud Functions" style="editableCssRules=.*;html=1;fontColor=#999999;shape=image;verticalLabelPosition=middle;verticalAlign=middle;labelPosition=right;align=left;spacingLeft=20;part=1;points=[];imageAspect=0;image=data:image/svg+xml,PHN2ZyB4bWxucz0iaHR0cDovL3d3dy53My5vcmcvMjAwMC9zdmciIHhtbG5zOnY9Imh0dHBzOi8vdmVjdGEuaW8vbmFubyIgd2lkdGg9IjIwIiBoZWlnaHQ9IjE5Ljk4OTk5OTc3MTExODE2NCIgdmlld0JveD0iMCAwIDIwIDE5Ljk4OTk5OTc3MTExODE2NCI+JiN4YTsJPHN0eWxlIHR5cGU9InRleHQvY3NzIj4mI3hhOwkuc3Qwe2ZpbGw6IzQyODVmNDt9JiN4YTsJLnN0MXtmaWxsOiM2NjlkZjY7fSYjeGE7CS5zdDJ7ZmlsbDojYWVjYmZhO30mI3hhOwk8L3N0eWxlPiYjeGE7CTxwYXRoIGNsYXNzPSJzdDEiIGQ9Ik0zIDMuOTlMMCA2LjQydjcuMTNsMyAyLjQ0eiIvPiYjeGE7CTxwYXRoIGNsYXNzPSJzdDAiIGQ9Ik0zIDMuOTlsLTMgNCAzLTJ6bS0zIDhsMyA0di0yeiIvPiYjeGE7CTxwYXRoIGNsYXNzPSJzdDIiIGQ9Ik0wIDE1Ljk5bDQgNCAyLTItNi02em0uMDEtOEw1Ljk5IDJsLTItMkwwIDMuOTl6Ii8+JiN4YTsJPHBhdGggY2xhc3M9InN0MSIgZD0iTTE3IDE2bDMtMi40MlY2LjQ0TDE3IDR6Ii8+JiN4YTsJPHBhdGggY2xhc3M9InN0MCIgZD0iTTE3IDE2bDMtNC0zIDJ6bTMtOGwtMy00djJ6Ii8+JiN4YTsJPGcgY2xhc3M9InN0MiI+JiN4YTsJCTxwYXRoIGQ9Ik0yMCA0bC00LTQtMiAyIDYgNnptLS4wMSA4bC01Ljk4IDUuOTkgMiAyTDIwIDE2eiIvPiYjeGE7CQk8Y2lyY2xlIGN4PSI2IiBjeT0iOS45OSIgcj0iMSIvPiYjeGE7CQk8Y2lyY2xlIGN4PSIxMCIgY3k9IjkuOTkiIHI9IjEiLz4mI3hhOwkJPGNpcmNsZSBjeD0iMTMuOTkiIGN5PSI5Ljk5IiByPSIxIi8+JiN4YTsJPC9nPiYjeGE7PC9zdmc+;" vertex="1" parent="dws5M60ZwzQ7IvA7W7Ju-51">
          <mxGeometry width="30" height="24" relative="1" as="geometry">
            <mxPoint x="15" y="18" as="offset" />
          </mxGeometry>
        </mxCell>
        <mxCell id="dws5M60ZwzQ7IvA7W7Ju-53" value="" style="shape=image;verticalLabelPosition=bottom;labelBackgroundColor=default;verticalAlign=top;aspect=fixed;imageAspect=0;image=https://upload.wikimedia.org/wikipedia/commons/thumb/c/c3/Python-logo-notext.svg/800px-Python-logo-notext.svg.png;" vertex="1" parent="dws5M60ZwzQ7IvA7W7Ju-50">
          <mxGeometry x="14" y="63.55499999999995" width="30" height="32.89" as="geometry" />
        </mxCell>
        <mxCell id="dws5M60ZwzQ7IvA7W7Ju-54" value="&lt;div style=&quot;text-align: left;&quot;&gt;&lt;span style=&quot;background-color: initial;&quot;&gt;https_measure_7day_asis()&lt;/span&gt;&lt;/div&gt;&lt;div style=&quot;text-align: left;&quot;&gt;&lt;span style=&quot;background-color: initial;&quot;&gt;&lt;font color=&quot;#999999&quot;&gt;python 3.12&lt;/font&gt;&lt;/span&gt;&lt;/div&gt;" style="text;html=1;align=center;verticalAlign=middle;resizable=1;points=[];autosize=1;strokeColor=none;fillColor=none;movable=1;rotatable=1;deletable=1;editable=1;locked=0;connectable=1;" vertex="1" parent="dws5M60ZwzQ7IvA7W7Ju-50">
          <mxGeometry x="41" y="60" width="170" height="40" as="geometry" />
        </mxCell>
        <mxCell id="dws5M60ZwzQ7IvA7W7Ju-55" value="" style="group" vertex="1" connectable="0" parent="1">
          <mxGeometry x="862" y="-599" width="293" height="100" as="geometry" />
        </mxCell>
        <mxCell id="dws5M60ZwzQ7IvA7W7Ju-56" value="" style="strokeColor=#dddddd;shadow=1;strokeWidth=1;rounded=1;absoluteArcSize=1;arcSize=2;" vertex="1" parent="dws5M60ZwzQ7IvA7W7Ju-55">
          <mxGeometry width="220" height="60" as="geometry" />
        </mxCell>
        <mxCell id="dws5M60ZwzQ7IvA7W7Ju-57" value="&lt;font color=&quot;#000000&quot;&gt;https_measure_14day_asis&lt;br&gt;Trigger: HTTPS (API)&lt;/font&gt;&lt;br&gt;Cloud Functions" style="editableCssRules=.*;html=1;fontColor=#999999;shape=image;verticalLabelPosition=middle;verticalAlign=middle;labelPosition=right;align=left;spacingLeft=20;part=1;points=[];imageAspect=0;image=data:image/svg+xml,PHN2ZyB4bWxucz0iaHR0cDovL3d3dy53My5vcmcvMjAwMC9zdmciIHhtbG5zOnY9Imh0dHBzOi8vdmVjdGEuaW8vbmFubyIgd2lkdGg9IjIwIiBoZWlnaHQ9IjE5Ljk4OTk5OTc3MTExODE2NCIgdmlld0JveD0iMCAwIDIwIDE5Ljk4OTk5OTc3MTExODE2NCI+JiN4YTsJPHN0eWxlIHR5cGU9InRleHQvY3NzIj4mI3hhOwkuc3Qwe2ZpbGw6IzQyODVmNDt9JiN4YTsJLnN0MXtmaWxsOiM2NjlkZjY7fSYjeGE7CS5zdDJ7ZmlsbDojYWVjYmZhO30mI3hhOwk8L3N0eWxlPiYjeGE7CTxwYXRoIGNsYXNzPSJzdDEiIGQ9Ik0zIDMuOTlMMCA2LjQydjcuMTNsMyAyLjQ0eiIvPiYjeGE7CTxwYXRoIGNsYXNzPSJzdDAiIGQ9Ik0zIDMuOTlsLTMgNCAzLTJ6bS0zIDhsMyA0di0yeiIvPiYjeGE7CTxwYXRoIGNsYXNzPSJzdDIiIGQ9Ik0wIDE1Ljk5bDQgNCAyLTItNi02em0uMDEtOEw1Ljk5IDJsLTItMkwwIDMuOTl6Ii8+JiN4YTsJPHBhdGggY2xhc3M9InN0MSIgZD0iTTE3IDE2bDMtMi40MlY2LjQ0TDE3IDR6Ii8+JiN4YTsJPHBhdGggY2xhc3M9InN0MCIgZD0iTTE3IDE2bDMtNC0zIDJ6bTMtOGwtMy00djJ6Ii8+JiN4YTsJPGcgY2xhc3M9InN0MiI+JiN4YTsJCTxwYXRoIGQ9Ik0yMCA0bC00LTQtMiAyIDYgNnptLS4wMSA4bC01Ljk4IDUuOTkgMiAyTDIwIDE2eiIvPiYjeGE7CQk8Y2lyY2xlIGN4PSI2IiBjeT0iOS45OSIgcj0iMSIvPiYjeGE7CQk8Y2lyY2xlIGN4PSIxMCIgY3k9IjkuOTkiIHI9IjEiLz4mI3hhOwkJPGNpcmNsZSBjeD0iMTMuOTkiIGN5PSI5Ljk5IiByPSIxIi8+JiN4YTsJPC9nPiYjeGE7PC9zdmc+;" vertex="1" parent="dws5M60ZwzQ7IvA7W7Ju-56">
          <mxGeometry width="30" height="24" relative="1" as="geometry">
            <mxPoint x="15" y="18" as="offset" />
          </mxGeometry>
        </mxCell>
        <mxCell id="dws5M60ZwzQ7IvA7W7Ju-58" value="" style="shape=image;verticalLabelPosition=bottom;labelBackgroundColor=default;verticalAlign=top;aspect=fixed;imageAspect=0;image=https://upload.wikimedia.org/wikipedia/commons/thumb/c/c3/Python-logo-notext.svg/800px-Python-logo-notext.svg.png;" vertex="1" parent="dws5M60ZwzQ7IvA7W7Ju-55">
          <mxGeometry x="14" y="63.55499999999995" width="30" height="32.89" as="geometry" />
        </mxCell>
        <mxCell id="dws5M60ZwzQ7IvA7W7Ju-59" value="&lt;div style=&quot;text-align: left;&quot;&gt;&lt;span style=&quot;background-color: initial;&quot;&gt;https_measure_14day_asis()&lt;/span&gt;&lt;/div&gt;&lt;div style=&quot;text-align: left;&quot;&gt;&lt;span style=&quot;background-color: initial;&quot;&gt;&lt;font color=&quot;#999999&quot;&gt;python 3.12&lt;/font&gt;&lt;/span&gt;&lt;/div&gt;" style="text;html=1;align=center;verticalAlign=middle;resizable=1;points=[];autosize=1;strokeColor=none;fillColor=none;movable=1;rotatable=1;deletable=1;editable=1;locked=0;connectable=1;" vertex="1" parent="dws5M60ZwzQ7IvA7W7Ju-55">
          <mxGeometry x="36" y="60" width="180" height="40" as="geometry" />
        </mxCell>
        <mxCell id="dws5M60ZwzQ7IvA7W7Ju-60" value="" style="group" vertex="1" connectable="0" parent="1">
          <mxGeometry x="862" y="-479" width="293" height="100" as="geometry" />
        </mxCell>
        <mxCell id="dws5M60ZwzQ7IvA7W7Ju-61" value="" style="strokeColor=#dddddd;shadow=1;strokeWidth=1;rounded=1;absoluteArcSize=1;arcSize=2;" vertex="1" parent="dws5M60ZwzQ7IvA7W7Ju-60">
          <mxGeometry width="220" height="60" as="geometry" />
        </mxCell>
        <mxCell id="dws5M60ZwzQ7IvA7W7Ju-62" value="&lt;font color=&quot;#000000&quot;&gt;https_measure_60day_asis&lt;br&gt;Trigger: HTTPS (API)&lt;/font&gt;&lt;br&gt;Cloud Functions" style="editableCssRules=.*;html=1;fontColor=#999999;shape=image;verticalLabelPosition=middle;verticalAlign=middle;labelPosition=right;align=left;spacingLeft=20;part=1;points=[];imageAspect=0;image=data:image/svg+xml,PHN2ZyB4bWxucz0iaHR0cDovL3d3dy53My5vcmcvMjAwMC9zdmciIHhtbG5zOnY9Imh0dHBzOi8vdmVjdGEuaW8vbmFubyIgd2lkdGg9IjIwIiBoZWlnaHQ9IjE5Ljk4OTk5OTc3MTExODE2NCIgdmlld0JveD0iMCAwIDIwIDE5Ljk4OTk5OTc3MTExODE2NCI+JiN4YTsJPHN0eWxlIHR5cGU9InRleHQvY3NzIj4mI3hhOwkuc3Qwe2ZpbGw6IzQyODVmNDt9JiN4YTsJLnN0MXtmaWxsOiM2NjlkZjY7fSYjeGE7CS5zdDJ7ZmlsbDojYWVjYmZhO30mI3hhOwk8L3N0eWxlPiYjeGE7CTxwYXRoIGNsYXNzPSJzdDEiIGQ9Ik0zIDMuOTlMMCA2LjQydjcuMTNsMyAyLjQ0eiIvPiYjeGE7CTxwYXRoIGNsYXNzPSJzdDAiIGQ9Ik0zIDMuOTlsLTMgNCAzLTJ6bS0zIDhsMyA0di0yeiIvPiYjeGE7CTxwYXRoIGNsYXNzPSJzdDIiIGQ9Ik0wIDE1Ljk5bDQgNCAyLTItNi02em0uMDEtOEw1Ljk5IDJsLTItMkwwIDMuOTl6Ii8+JiN4YTsJPHBhdGggY2xhc3M9InN0MSIgZD0iTTE3IDE2bDMtMi40MlY2LjQ0TDE3IDR6Ii8+JiN4YTsJPHBhdGggY2xhc3M9InN0MCIgZD0iTTE3IDE2bDMtNC0zIDJ6bTMtOGwtMy00djJ6Ii8+JiN4YTsJPGcgY2xhc3M9InN0MiI+JiN4YTsJCTxwYXRoIGQ9Ik0yMCA0bC00LTQtMiAyIDYgNnptLS4wMSA4bC01Ljk4IDUuOTkgMiAyTDIwIDE2eiIvPiYjeGE7CQk8Y2lyY2xlIGN4PSI2IiBjeT0iOS45OSIgcj0iMSIvPiYjeGE7CQk8Y2lyY2xlIGN4PSIxMCIgY3k9IjkuOTkiIHI9IjEiLz4mI3hhOwkJPGNpcmNsZSBjeD0iMTMuOTkiIGN5PSI5Ljk5IiByPSIxIi8+JiN4YTsJPC9nPiYjeGE7PC9zdmc+;" vertex="1" parent="dws5M60ZwzQ7IvA7W7Ju-61">
          <mxGeometry width="30" height="24" relative="1" as="geometry">
            <mxPoint x="15" y="18" as="offset" />
          </mxGeometry>
        </mxCell>
        <mxCell id="dws5M60ZwzQ7IvA7W7Ju-63" value="" style="shape=image;verticalLabelPosition=bottom;labelBackgroundColor=default;verticalAlign=top;aspect=fixed;imageAspect=0;image=https://upload.wikimedia.org/wikipedia/commons/thumb/c/c3/Python-logo-notext.svg/800px-Python-logo-notext.svg.png;" vertex="1" parent="dws5M60ZwzQ7IvA7W7Ju-60">
          <mxGeometry x="14" y="63.55499999999995" width="30" height="32.89" as="geometry" />
        </mxCell>
        <mxCell id="dws5M60ZwzQ7IvA7W7Ju-64" value="&lt;div style=&quot;text-align: left;&quot;&gt;&lt;span style=&quot;background-color: initial;&quot;&gt;https_measure_60day_asis()&lt;/span&gt;&lt;/div&gt;&lt;div style=&quot;text-align: left;&quot;&gt;&lt;span style=&quot;background-color: initial;&quot;&gt;&lt;font color=&quot;#999999&quot;&gt;python 3.12&lt;/font&gt;&lt;/span&gt;&lt;/div&gt;" style="text;html=1;align=center;verticalAlign=middle;resizable=1;points=[];autosize=1;strokeColor=none;fillColor=none;movable=1;rotatable=1;deletable=1;editable=1;locked=0;connectable=1;" vertex="1" parent="dws5M60ZwzQ7IvA7W7Ju-60">
          <mxGeometry x="36" y="60" width="180" height="40" as="geometry" />
        </mxCell>
        <mxCell id="dws5M60ZwzQ7IvA7W7Ju-65" style="edgeStyle=orthogonalEdgeStyle;rounded=0;orthogonalLoop=1;jettySize=auto;html=1;entryX=0;entryY=0.5;entryDx=0;entryDy=0;startArrow=classic;startFill=1;exitX=1;exitY=0.5;exitDx=0;exitDy=0;" edge="1" parent="1" source="dws5M60ZwzQ7IvA7W7Ju-56" target="dws5M60ZwzQ7IvA7W7Ju-29">
          <mxGeometry relative="1" as="geometry">
            <mxPoint x="1092" y="-679" as="sourcePoint" />
            <mxPoint x="1272" y="-574" as="targetPoint" />
          </mxGeometry>
        </mxCell>
        <mxCell id="dws5M60ZwzQ7IvA7W7Ju-66" value="API calls" style="edgeLabel;html=1;align=center;verticalAlign=middle;resizable=0;points=[];" vertex="1" connectable="0" parent="dws5M60ZwzQ7IvA7W7Ju-65">
          <mxGeometry x="0.1528" relative="1" as="geometry">
            <mxPoint as="offset" />
          </mxGeometry>
        </mxCell>
        <mxCell id="dws5M60ZwzQ7IvA7W7Ju-67" style="edgeStyle=orthogonalEdgeStyle;rounded=0;orthogonalLoop=1;jettySize=auto;html=1;entryX=0;entryY=0.75;entryDx=0;entryDy=0;startArrow=classic;startFill=1;exitX=1;exitY=0.5;exitDx=0;exitDy=0;" edge="1" parent="1" source="dws5M60ZwzQ7IvA7W7Ju-61" target="dws5M60ZwzQ7IvA7W7Ju-29">
          <mxGeometry relative="1" as="geometry">
            <mxPoint x="1102" y="-669" as="sourcePoint" />
            <mxPoint x="1282" y="-564" as="targetPoint" />
          </mxGeometry>
        </mxCell>
        <mxCell id="dws5M60ZwzQ7IvA7W7Ju-68" value="API calls" style="edgeLabel;html=1;align=center;verticalAlign=middle;resizable=0;points=[];" vertex="1" connectable="0" parent="dws5M60ZwzQ7IvA7W7Ju-67">
          <mxGeometry x="0.1528" relative="1" as="geometry">
            <mxPoint as="offset" />
          </mxGeometry>
        </mxCell>
        <mxCell id="dws5M60ZwzQ7IvA7W7Ju-69" style="edgeStyle=orthogonalEdgeStyle;rounded=0;orthogonalLoop=1;jettySize=auto;html=1;exitX=0;exitY=0.5;exitDx=0;exitDy=0;entryX=1;entryY=0.5;entryDx=0;entryDy=0;" edge="1" parent="1" source="dws5M60ZwzQ7IvA7W7Ju-56" target="dws5M60ZwzQ7IvA7W7Ju-31">
          <mxGeometry relative="1" as="geometry">
            <mxPoint x="872" y="-679" as="sourcePoint" />
            <mxPoint x="732" y="-624" as="targetPoint" />
          </mxGeometry>
        </mxCell>
        <mxCell id="dws5M60ZwzQ7IvA7W7Ju-70" value="Query" style="edgeLabel;html=1;align=center;verticalAlign=middle;resizable=0;points=[];" vertex="1" connectable="0" parent="dws5M60ZwzQ7IvA7W7Ju-69">
          <mxGeometry x="-0.0564" y="-1" relative="1" as="geometry">
            <mxPoint as="offset" />
          </mxGeometry>
        </mxCell>
        <mxCell id="dws5M60ZwzQ7IvA7W7Ju-71" style="edgeStyle=orthogonalEdgeStyle;rounded=0;orthogonalLoop=1;jettySize=auto;html=1;exitX=0;exitY=0.5;exitDx=0;exitDy=0;entryX=1;entryY=0.75;entryDx=0;entryDy=0;" edge="1" parent="1" source="dws5M60ZwzQ7IvA7W7Ju-61" target="dws5M60ZwzQ7IvA7W7Ju-31">
          <mxGeometry relative="1" as="geometry">
            <mxPoint x="882" y="-669" as="sourcePoint" />
            <mxPoint x="742" y="-614" as="targetPoint" />
          </mxGeometry>
        </mxCell>
        <mxCell id="dws5M60ZwzQ7IvA7W7Ju-72" value="Query" style="edgeLabel;html=1;align=center;verticalAlign=middle;resizable=0;points=[];" vertex="1" connectable="0" parent="dws5M60ZwzQ7IvA7W7Ju-71">
          <mxGeometry x="-0.0564" y="-1" relative="1" as="geometry">
            <mxPoint as="offset" />
          </mxGeometry>
        </mxCell>
        <mxCell id="dws5M60ZwzQ7IvA7W7Ju-73" value="Sensor Measurements and interaction with Google Cloud Platform" style="shape=step;perimeter=stepPerimeter;whiteSpace=wrap;html=1;fixedSize=1;fontSize=14;" vertex="1" parent="1">
          <mxGeometry x="242.5" y="-628" width="223" height="120" as="geometry" />
        </mxCell>
        <mxCell id="_vZ3tyjFOiJT6bmv1r3o-1" value="Described in the Kester Weather Project&lt;br style=&quot;font-size: 13px;&quot;&gt;&quot;Project Config Code&quot; at:&amp;nbsp;https://www.about.nkester.com/project/weatherstation/&lt;br&gt;Tag: v-1.1" style="rounded=0;whiteSpace=wrap;html=1;fillColor=#d5e8d4;strokeColor=#82b366;opacity=70;align=right;verticalAlign=top;fontStyle=1;fontColor=#FF0000;fontSize=13;" parent="1" vertex="1">
          <mxGeometry x="22" y="-820" width="1210" height="480" as="geometry" />
        </mxCell>
        <mxCell id="dws5M60ZwzQ7IvA7W7Ju-76" value="" style="shape=image;verticalLabelPosition=bottom;labelBackgroundColor=default;verticalAlign=top;aspect=fixed;imageAspect=0;image=https://github.com/observablehq/plot/raw/main/img/plot.svg;" vertex="1" parent="1">
          <mxGeometry x="1443" y="-64" width="183" height="82.41" as="geometry" />
        </mxCell>
        <mxCell id="dws5M60ZwzQ7IvA7W7Ju-77" value="" style="shape=image;verticalLabelPosition=bottom;labelBackgroundColor=default;verticalAlign=top;aspect=fixed;imageAspect=0;image=https://github.com/d3/d3/raw/main/docs/public/logo.svg;" vertex="1" parent="1">
          <mxGeometry x="1443" y="-171" width="104.67" height="100" as="geometry" />
        </mxCell>
        <mxCell id="dws5M60ZwzQ7IvA7W7Ju-79" style="edgeStyle=orthogonalEdgeStyle;rounded=0;orthogonalLoop=1;jettySize=auto;html=1;exitX=0.08;exitY=0.99;exitDx=0;exitDy=0;exitPerimeter=0;entryX=0;entryY=0.5;entryDx=0;entryDy=0;" edge="1" parent="1" source="dws5M60ZwzQ7IvA7W7Ju-78" target="dws5M60ZwzQ7IvA7W7Ju-76">
          <mxGeometry relative="1" as="geometry" />
        </mxCell>
        <mxCell id="dws5M60ZwzQ7IvA7W7Ju-81" style="edgeStyle=orthogonalEdgeStyle;rounded=0;orthogonalLoop=1;jettySize=auto;html=1;exitX=0.08;exitY=0.99;exitDx=0;exitDy=0;exitPerimeter=0;entryX=0;entryY=0.5;entryDx=0;entryDy=0;" edge="1" parent="1" source="dws5M60ZwzQ7IvA7W7Ju-78" target="dws5M60ZwzQ7IvA7W7Ju-80">
          <mxGeometry relative="1" as="geometry">
            <Array as="points">
              <mxPoint x="1372" y="-219" />
            </Array>
          </mxGeometry>
        </mxCell>
        <mxCell id="dws5M60ZwzQ7IvA7W7Ju-82" style="edgeStyle=orthogonalEdgeStyle;rounded=0;orthogonalLoop=1;jettySize=auto;html=1;exitX=0.08;exitY=0.99;exitDx=0;exitDy=0;exitPerimeter=0;entryX=0;entryY=0.5;entryDx=0;entryDy=0;" edge="1" parent="1" source="dws5M60ZwzQ7IvA7W7Ju-78" target="dws5M60ZwzQ7IvA7W7Ju-77">
          <mxGeometry relative="1" as="geometry">
            <Array as="points">
              <mxPoint x="1372" y="-121" />
            </Array>
          </mxGeometry>
        </mxCell>
        <mxCell id="dws5M60ZwzQ7IvA7W7Ju-78" value="" style="shape=image;verticalLabelPosition=bottom;labelBackgroundColor=default;verticalAlign=top;aspect=fixed;imageAspect=0;image=data:image/png,iVBORw0KGgoAAAANSUhEUgAAAiwAAABbCAMAAABnES6LAAAAgVBMVEX///8AAADt7e1ISEjm5uZFRUX8/PyKioqenp729vaWlpb4+Pjw8PC7u7tubm7Ozs7c3NzFxcXn5+ctLS3g4OBmZmY8PDyvr6/T09OEhISmpqYeHh6+vr5ycnJeXl5VVVUTExN8fHwkJCSYmJgyMjJOTk43NzePj49gYGAREREZGRnOS+G7AAARhUlEQVR4nO1d62KiOhBWa1HrDe9ItZZa19r3f8Ajl4TMfJMA1t12z2b+KQGSyZe5J7Ranjx58uTJkydPnjx58uTJkydPnv4kLaebp/3Ly8vkvJmF390ZTz+Xwvj02Tbp9fEYBd/dK08/j0ZP722JFufud3fN08+iaCUiJafT7Lu75+nnUNcFlQwu0Xd30dPPoGBbAZWUJqNv6563mlrBsPk9nft3o9WaXWpg5Uqb3/FyN3XCOHlrt/9pLThqzoPhfHc8tNur+3fmqR5UrpTc/+V2Cqabyfo7XvyDKIg2e8WDfc17uuPe6bm4Z3Dn/gxPtbHSbv/6LZINaDSN98Qz6/2R1/4o6kRx8svkwbbyliAcb+ls3qC7XDRYNMDKlb7sRQ9HnSs57J/Z5BPe+q+BJVo9Aw/67lvmFFq/AywDObTioOUX3hZuVqe3/DG/DtuxjBjJ2D5/4aV/Ix0FHlSAZSZN1l3B0lSupHSrbJkm8KjHvqDWesI74y+N8u+jfnOwTH83WAILVi7vL6vDO2qDnG6yWzYWEbaC9FPiwSJKlgoeSJLlcs+Yw4s0fad4OUhfEgy6YzFUt27+oqlD2+2ZNpqPj9uHfxwsneY8GG7O4Ko83xEsZ2HqXuakSSC1mTR8TzChQ3hc0+dh/GbA3vgvxlk4D+osGAawO4JF0HKXHbTqPmKzZtG57qt572p5HcFw/Gb+ByGEjgcL8GBc4x4GlsXdOhOgd7YWDaI9oqWJ2UIxqdZHcDD/PbEl4MFyF7A83q0z6KKuLVILWzaII8tYuRIJC7zTmzijps2H99fTTwLLEhBgt50P0Lb2UqevOVmvHMhdHiw/CyxNAMD73W6/1XzLkOo6UueQkEskSOvB8qPAEsH8uxJVG2hdp+tXor63U3zM7Jc8WL4XLB8w/U6j9Y23rhds2dGbmK9FwzyvxhUPlp8EFrRY3EnNGNrXsVoCFgRmRtGYXn0qr3iw/CSwYALG7Q2PoH0dh6jvvoU/tAzl2sASjEZROKqq0hiMRmEUzSvbXU2qwagbdWo0bBmxymAUdu5QKHIdSyeKouVoJDsWVrBceRBZulwbLMGVR9dXD2pF7UCtHCpuwGBLdayFCxaIQbLrpWiRwTKeFLms9da6oWkw3p904d/jJHakPadPBxUufEicgjLqvbcPRQwqOGedePlSTXIY70/lFLy9PAnjkcGym7wrHgg9qAeW5WalkoKLVVxZLYvB26qgLOapqsO43CyG0SWsgca5AJaAFvStxdmdoY/3eRTxMgOjrS8v1uEsMXtfjmmLEXlNqQwdsv90mUXEh53SArSMAJaAJhgXwIMaYOlCYeShYishdrdKTgwgB/1ScQcLu7WFhDm3hLQBjGDBOuE9PG665m0KboDJMxYTm2gVDIxUavYQU8Bu7WBJs2cWsERC+iSjj4oo9rg1g5j7it1TCZaOEI6XWGnSK29ebQphhrrqjjlr/wktuLjSRg1nVCTlM9+YAHVsUaBo6YjZ9jaPHnRi0i5dxjQjGnI8aLKDxdFJFkCHlIdU5PJGF3kVWKRHpHRxlLRV+UJR77A+JZTD6A9VuSj8DhRFXf5IxS7OKKFi8ErPBC0mo06rZHUwinWIJjKdsI/p1Jy+B90o7PNanxjKTCYtsVttGSzH63+BHsj7MprGTBKa8W3kgaXKg6DFDZaRUcNw2UQbU1DZTTAW/mhTCRwqQfluwgGNlorSLbYMpUJaiAxPbRdkMoM9hhTYDngHTHPEXF2ZKDFNq0K27cABSM1vwHZrEMVQ8vM8icNMrF8v7vPnvG/jaebzlCpoDX1pMzPwBh64wTI3LYkUYyNzlFZPAGWhIYbMhWfgobHzHHCGI7isTWoyysCfYbZplpcjMd5J7Ltckpm2bt4DSVxvW4CLjGu85IjUC+cmglq2Bt+LOaaPvJi31uWBqRRcYCFQzx1T08+xljOgzi4FOnWUDKzDPe9uJx3QJVTvcItUOfACoz7fpa1waj0YnCjTVqXRVL6ReGjFdiSS+sieKIElAcHSztwIENPG+ILsD5VSN7X/Wng1DXELPLiIPDCcGQdYRsRDKUStqWptOyjQa9DmMNe0ZTAKJPPFHZkC91zwtXnp4C8bo5JwEAwi3OKkivaS8i9D4Km/nvU/1For5obAOtNMaKBdu2ALZPJ/DYc2B9Kx+GU+QM2jPBwbD1qDKQYHDFvQARZyn1qURMXIARf0+ErFx92Osvs4U253G5KPgkHMRdzrQGaUQj1unuwCz43wovITS6ZRK1ENYI1/Lqf8Xdk2v5m5ZBZyp4wZz60mNQvmvQfhP6oLOA8U5FDqleaGHSwU/mfpX3m/DQo4bYcPwZXXeMPibXcQE1anABZuAytBZgNLK+E35CMk1ndpfym86rVHGb1QepSsAzUpUhAlJnpjY2GnFtO5FtLold7CptfIKvDHapMPLM5SgVjBwgajhB/NzonTyAMgxmJAvaynGEMdWLBrEoxJsLcT3mYpM0qzY8gjRLmFQkDwppW4UjpqeAG9Vy8RIqIVhwdoH5wIf3V1Hw8Ga32bayHFJjIoxVa2XAz7wwoW0HullrWChU2Gek1I/hUXPyJCg2UMl/TIUWW786AAljm2gWdWgQV31IQCy7cKl7OcFG+YsNOjpnZAoZyETVVzk0ULLXO5daZBmAnjV+0HGCpHW+Gs58b6s4MFFJGGmA0s3NlQ1iaNh4h6qBFYtA/TFCw2FWMSPDOSGVWCBeKJWf8g0fMYh4KvxmJ72umkEfhiwhAshfM0Tw/AWBztz1UydEDfYjJXG8GMS4bHaAeLzIOUbGDh9qP8v5jAwQCuBosjX9gULOCf1wHLTmaU4dbxOzLvBUu5rr72fsMscL5IVJabKRwFA0jilMYQ29jPzbNiXnfsrlaiGpSYuAUsLQ7jD3XBBhbunMj8f5NiIWizaBvsjjZLwpvXAUtXZpQBFo7BhcDycvjk7EQ+p2odsBWiDoPhYPlo2YjHGwolk2khEhjbZc/8MPDDEnuOAjADLNx9VhEHG1jAVlftmVkmxULQG9IjQtmrH4DekDs59HtsFrwl/VPKMxb0UtqMHFKFZFwyo1kFajhYHDUZPJebvTOQ7hp15saUjHj6ux5YOGsvStBZwMILrgvTPEjY/1KkxRVn4cZTeeZS0zgLzKpQNgESoVqyQKgldVQx2WWQxTS5ouLpfN4mPDCoWcybO4YbsqbZK/NOWSOXnd0W86P1wAJRCbUOLWDhlujn8Xw+JyiOxbCcI4LLvMsvRHBvirN0ZEb1HI9N8WUtLMmo2GgJmShb8+JNDCxsHxwlNksXPTjLvvDwKCeR64EF4p1Kr1nAUvcgOBEsmBsqVw31Aw0bFu6pyA2BYyXUtnHl+zaUGdVzPDaSHkQpn34MOMqkbBMGloeWg3ivZgrAkqruHOWSi3ZdsAAPlGVmAUudw0hTEsGCNxtjMkW6YZzj4q3IOnPRXCc3pEbXGCziUTYlJdJDbaTUVhOw8KU0KToq5HKnhuv21mfr9kawKA3/RbCIqgJVvFk+sFRcWn+pngXKyIT2XB8qod0YLFZ/qKBQeKiNVD8bgYWb2INcfB95u9A0/cY3ekPAgwo1VBMs8jZTDLTQgsLpebVe9ajaaF4px8UGMA4Le5XwcYDFoq8rdExWusbftu10JVLrqxFYeMxhnK8VbhSTxHN6kYH8D4FlJA7cYsFD2mNRuYEE415VdySsPR5mC2t9ablggAVi3YWiHbjN10AwcCv0aCOwcKvpkElitsFmZNoqeVLgJrDAgqmwWSCy0GjbU8LvlvxaQrAsq6v7ubLDonAu4XRGzAEWGLi6EDg1USoGudKr2ILbDCxcTWfgoTFuiud8wm4Ci23B2MBSp1qk/siqC2rxjupjq/gd0ICLUx0RcYCFi9Qy5dqaQsiEjg9cJnegqBlYIAafEpXX5P0Fw28CS8IuaTPaAhYw/9EicBFo+CpWYPy2ekciX+oQwuUpZC3eHGDh4oFYW90nG15SHQgL0p3caggWoRST7pmgknYk8qgeWHh8VOtTC1ggv9NsEzRmBd2HIaPjXL3HDAANwo/ZQaVaaJBIzARcUFDa091WWuMppkA6nlouaggWITBIdfuD9LRbwALGvBbyrMsaEyAbGh19XeUPcWruC6XEgA71EuyRZWLSDhY4V2ZpvEiJ424MUa90eLgnzGmpNQQLeu90/dIxreSbaoEFJk9NPc/s6Q6AO1T3qxE5uYK4AsEWxlrnszDRwtnNwna/yit2sHCRmAfhlTVgbFJgU525YjCdMIqBsZGzKVgAxzQKSbWQiijdAhZu42vGWcGCMUtY667px5OfXAe0YHKh3slPzKRk4WT2VCOuYwULHLEZk/eYVtEK26GVztz5+bOhmZqCpWJvNxXOX5EsfBD6ihUsgvXNwNFzVlRjNsWux1Bp1TxTjllWzOWizDWNICtYALW5A6qycqTChjiq+UpCnpEildTFLNHSGCzMQ2U5RGrNK5l2A1jAktZREztY8Jw3IluWqR53nDoCqRvHEbuYIa3rqNPlRCHGZKMZKOKMOsu3aBQp2BE0EqbmfwkH3H9uCgEwnOWOlj6TtzFYmE3EeMTmuIij1QeLsmJtPGi5wIIm7tVuUXK4m4gdNimBu23HrKPbbC8a40QdHqLFqflLcM0ZdciRhBXC+cRq94BoFROo6oJ4fsLqHPd7Lyqqre0YBpZfrUoiduQzu8h8hEIP1QfLS84DlBGlcudg+SzjPOIXZh6SfvykPxfnVEQItoMY9BcYXP+E7YDGRQzxQUdNjUEs/Fw9xWcM6BeWky6iJRNq2oEqHu4ufMlIa2MGFj75ApEE0RO7yKdre5VoHe6mHK8qYZKveMx7XnnQQ0VqWI8DNqXm2f1J5cCdpwoKaf0F+pKhUKXT5Ox++kmj0iKgapBZMzUTxEoUlhAwnhEYCbDSaa+oZTB7wgZ+sXxMyyQzWsZDkLD3+3LCc31Og+WikLI1cJ2SmeDisQGCb9shQooq0oNS5npPxyieFNTsqyAD0suHguPUkSSpg+H0aDttxzK8ch5iPeKuMXGmhyyYesLY5uNEYO5iFUdOlhqjwkP63AVaJqV7mp/qNS8r8juzHtyyOk41woOKb+xWfXRM/JzQabMsyhC7Y3HSGn9viAIuGcMxNtSyco+ppFLImov24dyPryaIKc9oh0XtrUitU4graXJL1VJTYmxBEmrPQwET/VZgfz8l4/QrC7hKu9z96dTqmK7lS2bP68fDw9qW82/+MXBnPXX7hVlA2GKTCLedSvtn6MggXoUFEwZda1Fj6VjYPwfoDjCVrr1wEdfmda7RK12LuyE3kh5YGzagtHeqTSWc9EXBnH4JWy84dWqWpZp0yxc1A3s38chFbDMQNCbNHcwsZw+226/C7ibL0WpvpYS7FSza2JK+RB1wzfaQzjVkUkYiWAJhvws5UqUGWKxHNNb7YOmo6Rc1XUfVuWhwFAXVQYgEQaPUjgjpMD+gG9FE0skP8txKvTmZTe2VVBWha+UKy1mnhDyqmGtqRWVGHaqhVD+GVIAeKA8saoglS4XDX1/PdZ3bTs39EYpu/1JvEPWYHDvFYi/D2aZ/7E0eFopjOaB2epifW7EXw9mZIOpzFduFaxCdSdlanz4y+/i0SBUfNB0WzSyXIx1XuZx15+ZJ2Y+d5kGc8UCtgPz/nTYiX+HcaEuXwWiYb0xL9Hk7a/CJ1sAivkRaN7dXCHWm8Xa/P3zs9+dxVW1eSoNueLWGdVevLNxspk6zfRmlbTa7KKwuHQzCKG07jb78ZfMmlHZwzAcRTtOOSJv5cx5s9IxmPPhqj7sZl2bTsPG3fO32BKf9PT/96umvJDy9Wqaa3xjy9P+mpAZUVnf4Eoan/wMtxficQad/8ZM/niwUugzdBw8VT4Q6T3LIZtH7o96Cp7+Elv0XGg66nKTvJnnylNFwuev3tvv9frvtj5feqPXkyZMnT548efLkyZMnT548efLk6Xb6D+Wy58mQdpQdAAAAAElFTkSuQmCC;points=[[0,0,0,0,0],[0,0.25,0,0,0],[0,0.5,0,0,0],[0,0.75,0,0,0],[0,1,0,0,0],[0.08,0.99,0,0,0],[0.25,0,0,0,0],[0.5,0,0,0,0],[0.5,1,0,0,0],[0.75,0,0,0,0],[0.75,1,0,0,0],[1,0,0,0,0],[1,0.25,0,0,0],[1,0.5,0,0,0],[1,0.75,0,0,0],[1,1,0,0,0]];" vertex="1" parent="1">
          <mxGeometry x="1348" y="-330" width="296" height="48.45" as="geometry" />
        </mxCell>
        <mxCell id="dws5M60ZwzQ7IvA7W7Ju-80" value="" style="shape=image;verticalLabelPosition=bottom;labelBackgroundColor=default;verticalAlign=top;aspect=fixed;imageAspect=0;image=https://raw.githubusercontent.com/uwdata/arquero/main/docs/assets/logo.svg;" vertex="1" parent="1">
          <mxGeometry x="1454" y="-251" width="64" height="64" as="geometry" />
        </mxCell>
        <mxCell id="dws5M60ZwzQ7IvA7W7Ju-84" value="&lt;u&gt;Observable:&lt;/u&gt;&amp;nbsp;&quot;An open-source static site generator for data apps, dashboards, reports, and more.&quot; It uses reactive JavaScript to develop charts and inputs." style="text;html=1;strokeColor=none;fillColor=none;align=left;verticalAlign=middle;whiteSpace=wrap;rounded=0;fontSize=16;fontStyle=0" vertex="1" parent="1">
          <mxGeometry x="1644" y="-341" width="501" height="90" as="geometry" />
        </mxCell>
        <mxCell id="dws5M60ZwzQ7IvA7W7Ju-87" value="&lt;div style=&quot;&quot;&gt;&lt;u style=&quot;background-color: initial;&quot;&gt;D3&lt;/u&gt;&lt;span style=&quot;background-color: initial;&quot;&gt;&amp;nbsp;&lt;/span&gt;&lt;span style=&quot;background-color: initial;&quot;&gt;is a free, open-source JavaScript library for visualizing data&lt;/span&gt;&lt;/div&gt;" style="text;html=1;strokeColor=none;fillColor=none;align=left;verticalAlign=middle;whiteSpace=wrap;rounded=0;fontSize=15;fontStyle=0" vertex="1" parent="1">
          <mxGeometry x="1547.67" y="-160" width="619" height="50" as="geometry" />
        </mxCell>
        <mxCell id="dws5M60ZwzQ7IvA7W7Ju-89" value="&lt;div style=&quot;&quot;&gt;&lt;span style=&quot;background-color: initial;&quot;&gt;&lt;u&gt;Observable Plot&lt;/u&gt;&amp;nbsp;is a free, open-source JavaScript library for visualizing tabular data, focused on accelerating exploratory data analysis&lt;/span&gt;&lt;/div&gt;" style="text;html=1;strokeColor=none;fillColor=none;align=left;verticalAlign=middle;whiteSpace=wrap;rounded=0;fontSize=15;fontStyle=0" vertex="1" parent="1">
          <mxGeometry x="1644" y="-47.790000000000006" width="474" height="50" as="geometry" />
        </mxCell>
      </root>
    </mxGraphModel>
  </diagram>
</mxfile>
